<?xml version="1.0" encoding="UTF-8"?><svg id="Layer_1" xmlns="http://www.w3.org/2000/svg" viewBox="0 0 470.32 768"><defs><style>.cls-1{fill:#fff;stroke-width:0px;}</style></defs><path class="cls-1" d="m335.84,283.19c-.61-.27-.8-.43-.95-.4-.13.02-.31.25-.31.39,0,.14.16.38.29.4.16.03.34-.12.98-.38Z"/><path class="cls-1" d="m365.79,513.09c-.04-.08-.09-.17-.13-.25-.2.05-.43.05-.58.17-.13.11-.17.33-.25.51.08.06.17.11.25.17.24-.2.47-.4.71-.6Z"/><path class="cls-1" d="m137.11,366.39c-1.46.63-1.85-.02-2.14-1.43-.58-2.76-1.46-3.05-3.86-1.33-.07-2.05-4.66-.91-2.72-4.38l-.08.03c3.02-.53,7.29-3.73,7.43-5.62h-2.98l.09.07c1.96-3.45,4.03-6.78,8.18-7.99-.37.8-.74,1.59-1.34,2.89,7.91-3.73,9.08-5.15,6.41-7.74-.91,1.51-1.78,2.97-2.69,4.49-.71.09-1.52.19-2.33.29,1.53-2.6,3.06-5.2,4.27-7.26,2.23.57,3.67.94,5.12,1.32.07-.83.15-1.66.22-2.49.99-.78,1.97-1.58,2.99-2.31,2.39-1.7,2.82-2.96,1.44-5.41-1.51,2.73-4.54,4.28-4.37,7.81-2.62,0-3.22-1.65-2.79-4.14-.24-.02-.49-.03-.73-.05-1.89,2.28-3.68,4.65-5.68,6.83-4.17,4.51-8.12,9.28-14.31,11.29-1.25.41-2.36,1.4-3.39,2.29-1.68,1.46-2.68.51-2.98-1.01-.96-4.94-1.62-9.94-2.51-14.89-1.02-5.66-2.21-11.3-3.24-16.96-.65-3.58-1.04-7.21-1.73-10.78-.73-3.76-1.72-7.47-2.53-11.22-.41-1.89-.66-3.82-1.01-5.72-1.55-8.45-3.09-16.91-4.7-25.35-.29-1.5-1.29-2.76-.32-4.52.35-.62-1.09-2.05-1.28-3.19-1.1-6.66-2-13.36-3.14-20.02-.44-2.55-1.25-5.06-2.07-7.52-1.13-3.4-2.11-6.9-3.72-10.07-1.74-3.43-4.14-6.53-6.22-9.79-.63-.99-1.25-2.01-1.7-3.09-1.22-2.89-3.27-5.48-2.89-8.95.15-1.41-.13-2.95-.57-4.31-.24-.72-1.41-1.79-1.88-1.67-1.62.43-3.57.95-4.56,2.13-1.68,2-2.19,5.51-4.17,6.57-1.79.96-4.87-.69-7.4-.85-4.56-.29-9.14-.43-13.72-.41-1.5,0-3.04.55-4.48,1.09-3.44,1.28-6.8,1.46-9.66.02-1.38.55-2.59,1.5-3.38,1.23-1.32-.45-3.08-1.47-3.42-2.62-1.3-4.36-2.28-8.83-3.05-13.32-.61-3.59-.66-7.28-1.14-10.9-.2-1.49-.89-2.91-1.29-4.38-1.06-3.94-2.08-7.9-3.1-11.85-.07-.26-.17-.62-.06-.81,1.88-3.17-.8-5.67-1.23-8.49-.49-3.18-1.09-6.34-1.67-9.5-1.63-8.92-3.29-17.83-4.91-26.75-.72-3.95-1.23-7.93-2.05-11.86-1.09-5.22-2.46-10.39-3.55-15.61-.28-1.35.3-2.86.08-4.24-.3-1.81-1-3.55-1.52-5.32-.33-1.14-.75-2.27-.92-3.43-.91-6.34-1.59-12.72-2.66-19.03-.84-4.98-1.96-9.94-3.29-14.81-.69-2.53.23-3.36,2.4-3.86,5.39-1.24,10.77-2.55,16.16-3.82,3.56-.83,7.12-1.71,10.7-2.42,3.19-.64,6.42-1.52,9.62-1.44,1.95.05,4.41,1.25,5.68,2.74,4.21,4.94,7.12,4.64,9.94-1.5.49-1.08.87-2.29,1.63-3.14.8-.89,1.91-1.77,3.03-2.04,4.51-1.09,9.07-2,13.63-2.87,6.05-1.15,12.09-2.31,18.18-3.22,1.89-.28,4.23.92,5.8.2,6.32-2.88,12.96-3.87,19.74-4.73,4.89-.63,9.64-2.21,14.5-3.15,1.32-.26,2.8.27,4.41.46,2.7-4.29,4.8.33,7,1.18-.35-1.2-.97-2.3-.81-3.27.08-.46,1.63-.84,2.56-.96,4.71-.62,9.48-.95,14.15-1.76,3.82-.66,7.53-1.9,11.31-2.82,2.47-.6,4.96-1.13,7.46-1.61.47-.09,1.01.24,1.52.23.77-.01,1.55-.1,2.31-.25,1.32-.25,2.61-.61,3.93-.83,4.39-.74,8.78-1.55,13.2-2.12,1.88-.24,4.42-.69,5.59.26,1.52,1.24,2.13,3.73,2.84,5.79.36,1.04.06,2.3.06,3.9q-.82.54-3.16-1.76c-2.01,1.36-2.82,2.82-1.15,5.16.76,1.06.8,2.61,1.27,3.9.24.66.56,1.57,1.08,1.8,1.95.83,3.38,1.82,2.83,4.28-.05.23.53.8.88.87,2.73.5,2.56,2.86,2.97,4.72.84,3.82,1.53,7.68,2.21,11.53.33,1.91.38,3.87.78,5.75.39,1.81,1.09,3.54,1.61,5.32.2.69.33,1.42.39,2.14.08.91-.05,1.86.12,2.75,1.32,6.83,2.88,13.63,3.96,20.49.71,4.52,3.46,8.76,2.02,13.6,2.8,3.23,2.2,7.4,3.07,11.16.87,3.73,1.67,7.48,2.36,11.25.85,4.61,1.49,9.26,2.33,13.87.69,3.78,1.64,7.52,2.29,11.31.6,3.49.87,7.03,1.44,10.52.35,2.15,1.09,4.24,1.49,6.39.63,3.31,1.15,6.64,1.65,9.97.06.37-.2,1.03-.49,1.18-1.6.8-3.21,1.71-4.92,2.16-2.88.76-5.87,1.79-8.75,1.62-2.62-.15-4.82.41-7.05,1.38-3.61,1.56-7.21,3.16-10.76,4.87-5.09,2.46-8.9,6.57-11.81,11.13-2.98,4.67-4.96,9.89-5.43,15.71-.51,6.31-.6,12.52.42,18.75.35,2.09.81,4.17,1.02,6.28.12,1.27-.15,2.58-.23,3.65.82,2.06,2.03,4.02,2.39,6.13,2.04,11.86,3.79,23.77,5.81,35.63.75,4.41,2.04,8.73,2.92,13.13.22,1.1.03,2.39-.34,3.47-.81,2.38-1.02,4.3.85,6.58,1.4,1.7,1.86,4.3,2.34,6.58,1.34,6.38,2.55,12.8,3.66,19.22.36,2.06-.28,4.41.45,6.28,3.27,8.36,2.84,17.43,5.32,25.94,1.12,3.85.05,5.03-4.35,6.71,1.1,2.5,1.17,2.49,5.61-1.46.16,1.11.26,1.93.39,2.76.77,5.04.82,10.35,2.55,15.04,1.47,3.97.92,8.2,2.68,12.01.49,1.06.03,2.56,0,3.86-.01.36-.17.75-.09,1.08,2.51,10.61,5.18,21.18,7.51,31.83,1.3,5.93,1.97,11.99,3.02,17.98.71,4.06,1.83,8.05,2.32,12.13.4,3.38-.7,6.99,1.96,9.92.05.06.06.18.06.27.22,8.05,3.08,15.61,4.29,23.46.81,5.24,1.24,10.55,1.97,15.8.36,2.6.97,5.18,1.56,7.74.53,2.3.59,2.29-2.01,2.79.09.94.19,1.91.31,3.17.97-.46,1.74-.83,2.88-1.37.88,2.62,1.78,5.09,2.55,7.61,1.82,5.97,5.48,10.82,9.76,15.12,2.98,3,6.58,5.38,9.96,7.98.39.3,1.12.22,1.69.19,1.48-.08,3.11-.69,4.42-.26,6.87,2.24,13.87,2.19,20.84,1.13,7.61-1.17,15.29-2.32,22.65-4.49,5.61-1.66,10.78-4.82,16.08-7.46,2.02-1,3.99-2.21,5.71-3.66,1.42-1.21,2.38-2.95,3.64-4.37,3.95-4.44,7.02-9.25,9.52-14.79,3.46-7.66,1.35-15.19,1.49-22.76.08-4.17-1.07-8.34-1.33-12.53-.1-1.6.82-3.25,1.09-4.91.17-1.08.2-2.26-.06-3.3-.26-1.03-1-1.93-1.48-2.92-3.34-6.81-3.82-14.29-5.16-21.58-1.24-6.77-2.74-13.49-4.22-20.21-1.78-8.13-3.65-16.24-5.5-24.36-.83-3.65,2.33-7.44,6.1-7.34,1.29.03,2.6.04,3.87-.15,5.94-.91,11.08,1.73,13.63,7.06.25.51.67.96,1.09,1.36.06.06.82-.39.8-.5-.15-.64-.39-1.27-.69-1.85-.29-.56-.67-1.09-1.06-1.59-1.41-1.81-2.85-3.61-4.58-5.79,2.59-1.15,5.5-3,8.67-3.73,4.43-1.02,9.05-1.28,13.6-1.71.79-.07,1.66.62,2.78,1.08.01-.02.33-.71.83-.87,3.59-1.18,6.98-3,10.98-2.84,1.7.07,3.52-.66,5.14-1.36,1.87-.8,5.82-.13,6.87,1.83,1.55,2.89,3.12,5.87,3.95,9.01,1.42,5.39,1.67,11.14,3.5,16.36,2.35,6.72,2.93,13.68,4.27,20.54,1.39,7.1,2.73,14.21,4.29,21.27.82,3.74,2.17,7.35,3.07,11.08.49,2.04.49,4.21.81,6.3.7,4.52,1.37,9.06,2.25,13.54.51,2.61,1.58,5.1,2.13,7.71,1.73,8.28,3.28,16.59,4.99,24.87,1.3,6.31,2.82,12.57,4.06,18.89,1.79,9.14,3.35,18.32,5.14,27.46.59,3.04,1.8,5.97,2.32,9.01.37,2.16.23,4.44.03,6.64-.11,1.24-1.09,2.43.87,3.14.49.18,1.1,1.3.95,1.76-1.04,3.29,1.65,5.48,2.24,8.24.93,4.36,1.52,8.79,2.29,13.19.13.75.4,1.48,1.06,2.1.55,3.3,1.6,6.78-.42,10.1-.26.42.14,1.73.61,2.02,2.67,1.67,3.76,3.56,3.15,6.88-.3,1.62-.65,2.95.9,4.17.44.35.26,1.41.51,2.09.38,1.03.89,2.02,1.36,3.02.15.32.43.6.49.93,1.01,5.77,1.83,11.57,3.04,17.3,1.07,5.1,2.56,10.12,3.86,15.17.07.27.16.53.21.81,1.29,7.27,3.21,14.51,3.61,21.83.23,4.26,1.2,8.24,1.83,12.35.39,2.56-.94,3.13-3.08,3.44-6.16.89-12.3,1.87-18.43,2.95-7.59,1.33-15.16,2.79-22.73,4.2-4.5.84-8.99,1.76-13.51,2.52-1.51.25-3.04.45-3.78-1.71-.36-1.05-1.73-1.65-2.9-.26-.4.47-1.16.61-1.71.96-.77.48-2.07.92-2.15,1.52-.38,2.62-2.32,2.62-4.17,2.88-3.78.53-7.66.16-11.26,2.11-1.36.74-3.32.76-4.82-.87-.51-.56-2.06-.38-3.06-.16-.44.1-.67,1.14-1.22,2.18-2.18.38-4.85.96-7.56,1.25-.76.08-1.82-.5-2.37-1.12-1.76-1.95-3.32-4.08-5-6.11-1.83-2.21-5.72-2.16-7.89-.03-2.45,2.4-4.93,4.77-7.52,7.02-.34.3-1.8.03-1.99-.34-1.69-3.45-5.11-3.03-8.01-3.63-.47-.1-1.16.88-1.74,1.37.59.4,1.24,1.21,1.76,1.14,2.22-.33,4.36-.69,6.41,1.27-.68.38-1.19.66-1.7.95.03.13.05.4.12.42,2.42.63,1.17,2.24.61,3.21-.37.63-1.73,1.16-2.5,1-4.84-.99-9.46.26-14.11,1.18-.62.12-1.2.46-1.82.59-1.85.37-4.76.11-1.68,3.16.16.16-.37,1.56-.81,1.7-2.18.72-4.42,1.33-6.67,1.78-8.8,1.78-17.61,3.51-26.43,5.19-4.41.84-8.87,1.41-13.26,2.31-4.98,1.02-9.89,2.33-14.86,3.41-1.14.25-2.37.04-3.69.04.17-1.22.31-2.18.45-3.22.9-.09,1.87-.02,2.7-.33.62-.23,1.05-.97,1.56-1.48-.59-.29-1.18-.78-1.79-.81-1.17-.06-2.35.15-3.35.23-.59-1.3-1.06-2.35-1.69-3.75-.57.78-.77.92-.76,1.06.1,3.51.11,3.49-3.78,4.01-.7.09-1.34.54-2.03.71-1.3.32-2.43.4-3.15-1.2-.72-1.59-1.86-2.26-3.73.19,1,.41,1.99.82,2.98,1.23-.2.24-.4.48-.6.71-1.67.04-3.24-3.19-4.84-.36-.68-1.32-1.68-2.56-1.91-3.94-.19-1.16.53-2.47,1-4.34-.13-.34-.47-1.46-.97-2.5-.18-.38-.74-.58-1.12-.87-.29.4-.9,1.04-.81,1.16,1.43,1.88.57,3.13-.98,4.33-.27.2-.18.86-.27,1.35h-4.27c.32-1.41.58-2.56,1.02-4.48-1.75.24-3.36.45-5.33.72,1.13,1.5,1.71,2.27,2.3,3.05-1.03.72-1.99,1.6-3.12,2.12-1.04.49-2.26.61-3.64.96,1.01,3.67,4.33,1.25,6.72,2.72-1.85.6-3.19,1.15-4.58,1.46-2.81.61-5.7.92-8.46,1.69-1.42.4-2.63,1.52-3.94,2.32,0,0,0,0,0,0-3.36-1.88-6.37.52-9.55.64q-.03,2.33,7.63,2.02c-.83.53-1.59,1.36-2.49,1.53-3.6.69-7.22,1.28-10.86,1.72-3.44.41-6.93.41-10.35.92-2.24.33-4.4,1.23-6.6,1.88-.09.03-.16.1-.25.12-5.99,1.01-11.99,2.02-18.03,2.76,6.08-4.08,9.06-6.82,9.56-9.55-2.7,1.17-5.14,2.23-7.58,3.29-4.38,1.92-7.91,5.61-12.98,6.16-.6.06-1.09.93-1.68,1.35-2.82,1.97-6.24,1.66-9.39,2.34-1.53.33-3-.48-3.31-2.47-.15-.97-.65-1.9-.41-2.6.61-1.92,2.1-4.1,1.63-5.71-.67-2.28-3.17-2.83-5.63-1.64-.67-2.5-1.43-4.82-1.91-7.2-1.16-5.67-2.16-11.37-3.3-17.05-1.24-6.21-2.68-12.39-3.82-18.62-1.75-9.54-3.33-19.11-4.99-28.67-1.5-8.61-2.94-17.23-4.54-25.82-1.17-6.31-2.7-12.56-3.81-18.89-1.14-6.43-1.78-12.94-2.98-19.36-1.45-7.79-3.27-15.51-4.9-23.27-.12-.58.08-1.23.11-1.85.07-1.41.5-2.91.14-4.2-1.01-3.6-.12-5.23,3.45-6.36,4.99-1.59,10.13-2.23,15.25-3.13,3.23-.57,6.34-2.05,9.4-3.36,3.27-1.4,6.75-2.64,9.55-4.73,4.39-3.27,7.9-7.35,10.4-12.5,3.27-6.73,5.1-13.59,4.53-20.99-.33-4.2-1.21-8.35-1.78-12.53-.49-3.63-.74-7.3-1.37-10.91-.97-5.56-2.22-11.08-3.28-16.63-.4-2.08-.5-4.22-.86-6.31-1.11-6.41-2.27-12.81-3.4-19.21-.05-.27-.02-.55,0-.82.13-1.34,1.88-2.68-.61-4-.85-.45-.62-2.97-.84-4.55-.57-4.24-1.1-8.49-1.68-12.73-.06-.43-.2-.94-.49-1.25-1.6-1.73-1.27-3.48-.28-5.01-.51-1.11-1.17-2-1.33-2.97-1.09-6.93-2.01-13.89-3.14-20.82-.55-3.36-1.6-6.65-2.15-10.01-.78-4.8-1.39-9.64-1.89-14.48-.12-1.11.63-2.28.72-3.45.13-1.85.03-3.71.03-4.69-1.24-1-2.28-1.41-2.42-2.02-1.57-6.77-3.02-13.57-4.44-20.38-.19-.91-.03-1.89-.03-2.85,1.37.38,2.29.63,3.2.89.14-.21.27-.42.41-.64.34,1.31.69,2.61,1.03,3.92.29-.01.58-.03.87-.04.08-1.08.16-2.15.24-3.23,1.4.22,2.64.42,4.44.7.71,1.11,1.28,3.66,4.45,2.34-.4-.55-.74-1.03-1.07-1.5,1.44.45,2.87.9,4.91,1.54-.53-1.39-.94-2.46-1.35-3.52-1.16.68-2.32,1.37-3.48,2.05Zm138.2,366.57c2.94.26,5.85.41,8.63-1.43-2.28-1.64-6.52-.81-8.63,1.43-3.13,0-6.36-.67-9.28,1.3.82.62,1.7.99,2.44.8,2.31-.59,4.57-1.38,6.84-2.1Zm-127.01,23.69c.66-.94,1.32-1.89,1.98-2.83-1.03-.28-2.07-.57-3.1-.85-.54-.14-1.09-.28-1.63-.43-1.54.74-4.26-.02-4,3.04.21,2.46,1.82,4.01,4.03,4.04.91.01,1.86-1.97,2.79-3.04,0,0-.07.06-.07.06ZM206.32,117.41c-2.12,1.23-.46,3.31-.96,4.57-1.2,3,.02,4.88,1.73,6.86.49.57,1.11,1.03,1.7,1.51.01.01.51-.49.48-.53-.41-.53-.86-1.04-1.32-1.53-1.44-1.51-2.8-2.94-1.09-5.2,2.01-2.64,1.86-3.42-.62-5.73.73-2.87-.91-5.27-1.6-7.86-.1-.39-.55-.71-.89-1-.65-.55-1.33-1.05-2-1.58-.37.55-1.14,1.2-1.03,1.61.25.91.8,2.24,1.49,2.42,2.12.55,2.68,2.03,3.12,3.82.22.9.66,1.75,1,2.62Zm201.93,416.28l-.08-.08c.84,1.79,2.43,1.27,3.04.33.79-1.21,1.41-3.14.97-4.36-.39-1.1-2.42-2.42-3.51-2.25-1.13.18-2.4,1.88-2.89,3.18-.71,1.88.77,2.78,2.46,3.17Zm-104.56,99.02l.08.08c-.59-5.17-3.83.83-5.27-1.52-.3,1.81-.37,3.35-.29,4.87.09,1.72.81,2.79,2.77,3.1,2.21.35,3.41-.92,4.08-2.45.64-1.46.81-3.31-1.38-4.08Zm-61.07,106.14c.32-1.34.63-2.68.95-4.03-.26-.16-.52-.32-.78-.48-.76,1.22-1.52,2.44-2.28,3.66.72.26,1.44.52,2.17.79,3.18,2.22,7.04,1.98,9.9.58,2.29-1.12,4.66-1.58,6.91-2.53.65-.27,1.09-1.04,1.63-1.58-.77-.12-1.58-.46-2.3-.32-3.46.67-6.9,1.41-10.33,2.23-1.98.47-3.91,1.11-5.86,1.68Zm-94.86-481.04c2.42.47,4.04,1.51,3.1,4.36,3.61,3.02-3.33,2.28-1.4,4.89,3.3-.78,7.07-.12,10.16-2.86,1.69-1.49,1.46-2.39-.07-3.67-.72.61-1.31,1.11-2.34,1.98-.24-1.16-.39-1.9-.54-2.64.45-.03.97.06,1.35-.13.5-.26,1.02-.68,1.29-1.16.14-.26-.16-1.1-.38-1.15-.67-.15-1.91-.25-2.01,0-.29.74-.15,1.65-.18,2.49-.6.42-1.19.83-1.79,1.24-.51.35-1.18,1.08-1.51.95-.52-.2-1.19-1.02-1.14-1.51.2-1.82.66-3.62,1.13-5.92-1.97,1.09-3.81,2.1-5.63,3.12-.62.67-1.46,1.25-1.79,2.04-.38.89-.48,2-.34,2.97.08.51.93.91,1.43,1.36.45-.66.93-1.3,1.34-1.98.46-.76.86-1.55,1.31-2.35-.71-.72-1.35-1.37-1.99-2.02Zm31.09-217.04c-2.25-.61-3.11,1.08-4.16,2.21.79.79,1.64,1.31,1.99,2.06.81,1.74,1.22,3.68,2.13,5.36.3.54,2.1.98,2.45.65,2.16-1.99,4.69-3.67,5.79-6.64,1.53-4.13,1.05-5.56-2.87-7.18.31-.64,1.02-1.51.83-1.87-.35-.63-1.73-1.44-1.86-1.31-1.99,1.9-4.82,3.32-4.37,6.79l.06-.07Zm120.24,693.89c-.78-.7-1.56-1.4-2.34-2.1-.1,1.09-.03,2.23-.34,3.26-.2.65-.86,1.44-1.48,1.63-1.38.42-2.86.48-4.29.74-3.21.58-6.41,1.22-9.63,1.73-.4.06-.91-.5-1.36-.77,3.15.9,3.89.23,3.75-3.5-3.46-1.1-4.98.34-5.4,5.06-3.38,1.65-7.65.26-11.25,3.01,2.21.83,3.77,1.42,5.26,1.97.62-.56,1.17-1.45,1.88-1.62,6.24-1.45,12.49-2.89,18.78-4.1,6.32-1.22,12.69-2.15,19.02-3.3.86-.16,1.61-.88,2.41-1.34-.11-.25-.22-.49-.33-.74-1.45-.17-2.9-.33-4.35-.5.02-.23.04-.47.06-.7,3.9-.58,7.79-1.15,11.69-1.73.05-.3.1-.61.15-.91-.88-.2-1.76-.55-2.65-.57-2.65-.08-5.31-.03-7.96-.03-.61.64-1.22,1.29-1.75,1.85-1.1-.55-2-.99-2.91-1.44-.35,1.5-.7,2.99-1.1,4.72-.54.16-1.42.41-2.29.67,1.81-2.88,1.28-3.4-3.91-3.7.11.82.21,1.61.31,2.4Zm-38.3-7.94c1.81-.2,3.63-.36,5.43-.62.47-.07,1.15-.36,1.27-.71.14-.4-.09-1.09-.39-1.46-.45-.54-1.11-.92-1.68-1.36.1.23.19.45.29.68-1.64.74-3.28,1.48-5.08,2.29.02.17.1.69.18,1.21,1.12,1.31.57,1.81-.89,2.19-2.38.61-4.74,1.34-7.06,2.17-.53.19-.85.97-1.27,1.48,1.4.46,2.4.46,3.32.18,1.89-.57,3.7-1.55,5.62-1.89,4.46-.79,8.97-1.27,13.45-1.92,2.27-.33,4.52-.76,6.78-1.11,4.99-.77,9.51-4.28,14.94-2.5.29.1.69-.13,1.03-.22,1.4-.36,2.78-.76,4.19-1.08,2.58-.58,5.18-1.05,7.74-1.68,1.31-.32,2.57-.89,3.85-1.34-.89-1.02-1.78-2.03-2.25-2.57-2.03.45-3.61.8-5.4,1.19-.75-1.33-1.72-3.01-2.68-4.7-.31.17-.62.33-.94.5.4,1.32.81,2.64,1.35,4.44h-7.95c.13.23.26.47.39.7-1.12.98-2.1,2.51-3.39,2.85-3.62.95-7.36,1.44-11.06,2.06-4.83.81-9.67,1.61-14.52,2.3-.91.13-1.91-.28-2.86-.48-.82-.17-1.63-.39-2.43-.59Zm-100.72-402.31c.38.08.75.15,1.13.23,0,1.49-.13,2.99.05,4.46.1.78.75,1.49,1.16,2.24.85-.61,2.4-1.17,2.45-1.85.42-4.95.61-9.93.68-14.9.01-.93-.8-1.88-1.24-2.82-.54.26-1.38.4-1.54.81-.3.78-.22,1.72-.32,2.82-1.25,1.14-2.6,2.9-4.38,3.87-2.28,1.24-2.24,2.33-.22,4.22-1.65.34-2.93.6-4.12.85-.57.87-1.26,1.7-1.67,2.65-.25.57-.16,1.35,0,1.98.04.16,1.04.26,1.47.08,1.87-.8,3.69-1.71,5.85-2.73.09-.24.39-1.06.69-1.88Zm211.42,365.42c1.73.73,3.09,1.02,4.06,1.8.99.8,1.38,2.56,2.42,3.04,1.34.61,3.24.82,4.57.34,1.22-.45,2.4-1.92,2.86-3.21.26-.71-.83-2.11-1.59-2.94-.77-.83-1.93-1.3-2.87-1.98-1.41-1.03-2.01-.31-2.24,1.03-.1.58.05,1.2.06,1.25-2.1-.47-4.13-1.02-6.19-1.27-.3-.04-.78,1.36-1.09,1.94Zm11.88-26.96c.13-.04.26-.07.39-.11-.48-1.83-.75-3.75-1.48-5.47-1.29-3.02-4.03-5.41-3.87-9.07,0-.17-.07-.43-.19-.5-.75-.48-1.53-.91-2.3-1.37-.18.8-.64,1.66-.5,2.4.43,2.31,1.1,4.57,1.64,6.86.82,3.52,1.41,7.14,4.45,9.62.37.3,1.01.64,1.36.51.36-.13.66-.79.73-1.26.08-.52-.13-1.08-.22-1.63ZM112.37,201.1c.39.08.77.16,1.16.24.48-.83,1.14-1.6,1.4-2.49.65-2.2,1.58-2.66,3.65-1.64.27.13,1.01-.03,1.06-.2.17-.54.36-1.32.09-1.68-.47-.64-1.51-.9-1.87-1.56-.41-.76-.67-2.46-.43-2.58,2.87-1.36,1.22-3.51.9-5.24-.35-1.83-1.7-2.07-3.73-.96,3.62,2.41.84,4.44.05,6.36-.75-.08-1.42-.15-2.1-.22.08.77-.11,1.77.31,2.26.99,1.16,1.14,1.82.12,3.24-.78,1.08-.46,2.95-.62,4.47Zm204.69,524.56c-2.14,0-3.57-.19-4.94.04-3.82.62-7.6,1.52-11.42,2.12-4.75.75-9.52,1.31-14.29,1.96.03.3.05.59.08.89,1.57,0,3.14.1,4.7-.02,3.2-.24,6.69.1,9.5-1.1,2.62-1.12,4.57-.83,6.9.14,1.81-3.81,6.47-.7,9.48-4.02Zm-112.11-356.08c-.34-.96-.5-2.04-.77-2.06-.82-.08-1.85-.01-2.48.44-5.09,3.69-8.62,8.72-11.75,14.07-.47.81-.73,1.74-1.05,2.52,1.8.18,3.21.31,4.06.4,1.06-6.54,5.42-10.92,9.27-15.77.62.09,1.4.21,2.73.41Zm-19.61,13.48c-1.69-.48-3.24-.46-3.65-1.13-2.09-3.44-3.88-7.06-6.08-11.21-.11.89-.47,1.71-.22,2.24,1.62,3.49,3.42,6.91,5.08,10.38.98,2.05,1.8,4.17,2.68,6.27,1.04,2.5,2.03,5.02,3.12,7.49.14.31.71.43,1.45.84-.1-1.07-.03-1.81-.26-2.43-1-2.66-2.06-5.3-3.16-7.93-.68-1.64-1.51-3.24,1.05-4.53Zm-57.99-178.94c-.85.61-1.52,1.09-2.2,1.57.72.39,1.41,1.06,2.15,1.12,2.67.21,5.19.56,6.28,3.08,1.37-2.42,2.69-4.74,4.13-7.28-.55,0-1.01-.12-1.39.02-2.16.78-4.04,1.47-6.33-.32-1.46-1.14-2.95-.02-2.64,1.81Zm21.12,14.36c-.17-.25-.33-.49-.5-.74-.69.47-1.5.82-2.04,1.42-3.69,4.09-7.44,8.14-10.88,12.44-.85,1.06-1.22,4.08-.8,4.3,2.12,1.12,1.66-1.4,2.38-2.29,4.01-4.99,7.9-10.07,11.83-15.12Zm25.41,150.62c.17-.02.33-.04.5-.06-.38-1.07-.75-2.14-1.13-3.21-.82-2.36-2.14-4.55.22-7.06.88-.94.5-3.07.69-4.66-.35-.1-.7-.19-1.04-.29-1.21,1.93-2.42,3.86-3.54,5.65-1.4-1.04-2.43-1.8-3.46-2.57-.29.31-.57.62-.86.93,1.43,1.82,2.89,3.63,4.3,5.48,1.46,1.91,2.89,3.86,4.33,5.79Zm152.17,355.61c3.56,2.45,7.38,3.83,11.67,3.4.87-.09,1.69-.69,2.53-1.06-.85-.51-1.64-1.2-2.56-1.5-1.01-.32-2.5.12-3.17-.47-3.45-3.06-7.25-.59-10.85-.89-.23-.02-.54.77-.81,1.18.45.24.99.77,1.32.66.62-.2,1.13-.77,1.86-1.32Zm-132.52-383.12c-1.44,0-2.65-.21-3.75.04-2.59.59-5.15,1.36-7.69,2.14-.39.12-.64.69-.95,1.06.39.31.88.96,1.17.88,1.91-.5,4.2.98,5.84-1.13.17-.23,1.29-.06,1.68.27,1.77,1.53,2.71,1.43,2.84-1.13.03-.57.44-1.13.86-2.14Zm162.04,357.68c1.78.09,3.99-.42,4.67.37,1.52,1.78,3.29,1.51,4.99,1.44.67-.03,1.29-1.28,1.93-1.97-.71-.48-1.71-1.55-2.1-1.36-2.54,1.26-4.01-.37-5.74-1.68-1.36-1.03-2.71-1.01-3.26,1-.23.84-.39,1.71-.49,2.2Zm4.45,10.87c-3.45.68-6.88,1.36-10.9,2.15,1.02,1.41,1.48,2.69,2.35,3.12,1.54.77,7.82-2.4,8.78-4.15.03-.06-.03-.17-.23-1.13Zm-130.54,9.01c.04-.35.07-.7.11-1.04-.68-.09-1.39-.09-2.02-.3-.71-.24-1.63-.52-1.95-1.08-.89-1.53-1.39-3.29-2.29-4.81-.84-1.41-2.01-2.62-2.77-3.59-.25,1.45-.32,2.74-.71,3.93-.48,1.44-.36,2.58,1.36,2.35,2.51-.33,2.67.99,2.78,2.89.04.71.91,1.83,1.53,1.93,1.28.2,2.64-.16,3.97-.29Zm13.7-154.01c.2.37.44,1.02.87,1.51.12.14,1.03-.08,1.16-.34,1.01-2.09,1.94-4.21,2.85-6.35.33-.79.64-1.61.77-2.45.09-.57-.06-1.64-.28-1.7-.72-.17-2.07-.18-2.2.14-1.14,2.9-2.07,5.88-3.17,9.17ZM13.92,83.7c-.25-1.45-.65-2.41-.49-3.26.16-.89,1.05-1.63,1.28-2.53.33-1.26-2.47-4.19-3.67-3.93-.37.08-.78.49-.96.86-1.32,2.64.31,7.06,3.83,8.87Zm85.22,137.72c4.09.68,8.85-5.87,7.99-10.36-1.72,1.17-3.39,2.27-4.99,3.46-.11.08.2.76.36,1.15.8,1.89.54,3.39-1.48,4.35-.54.26-.98.72-1.88,1.41Zm83.08,195.1c-.05.26-.1.52-.14.78,1.58.99,3.11,2.07,4.78,2.86.19.09,1.66-1.44,1.62-2.18-.07-1.53-.51-3.19-1.31-4.48-.3-.49-2.14-.43-3.03-.05-1.38.58-2.56,1.63-3.79,2.53-.15.11-.14.46-.27.97.85-.16,1.5-.29,2.15-.42Zm88.88,324.28c.05.19.11.39.16.58.77-.37,1.83-.54,2.24-1.16.36-.54.32-1.92-.1-2.27-.53-.45-1.65-.4-2.47-.27-2.31.39-4.61.88-6.88,1.47-.53.14-.92.81-1.37,1.23.55.34,1.1,1,1.63.98,2.26-.08,4.52-.36,6.78-.57Zm70.59-196.03c.73-1.02,1.94-2.04,2.26-3.29.44-1.69-1.59-3.85-3.09-3.81-2.03.05-4.15,1.92-4.06,3.68.13,2.68,2.43,2.53,4.89,3.42Zm-110.78,189.09c.36-.12.72-.23,1.08-.35-.1-1.29-.1-2.6-.37-3.85-.08-.34-1.05-.79-1.51-.69-2.64.53-5.27,1.15-7.87,1.86-.58.16-1.04.76-1.56,1.16.66.25,1.39.82,1.96.69,2.91-.69,5.73-1.07,8.27,1.19Zm-61.42-462.99c7.29-.27,7.84-.61,7.73-4.28-.08-2.7-1.9-3.07-3.99-3.04-2,.03-2.89.96-2.8,3.29.72-.65,1.14-1.33,1.7-1.48,1.1-.29,2.27-.29,3.42-.4-.02.79.16,1.66-.11,2.36-.45,1.16-.96,2.63-2.75,1.56-2.13-1.29-2.72-.03-3.2,1.99Zm-28.34,152.4c.88.38,1.8.68,2.62,1.16.62.36,1.1.95,1.64,1.44-.62.16-1.25.29-1.85.5-.9.32-1.78.7-2.67,1.06.09.35.17.7.26,1.05,2.33-.27,4.67-.5,6.99-.86.16-.02.35-1,.23-1.46-.61-2.3-4.44-4.17-7.22-2.89Zm190.16,296.23c1.69-.35,2.58-.61,3.48-.71,1.64-.18,2.67-.72,2.02-2.63-.58-1.7-1.53-2.47-3.29-1.44-.59.34-1.41,1.05-1.78.87-1.13-.54-2.37-1.1-2.3.65.05,1.18,1.29,2.31,1.86,3.25ZM131.76,233.39c-.69.35-1.13.45-1.14.59-.34,3.89-.67,7.78-.9,11.68-.01.23.79.51,1.22.77.18-.54.68-1.36.49-1.57-1.7-1.9-.55-3.48.57-4.89,1.9-2.4-.05-4.24-.24-6.57Zm30.84,357.59q8.02-.49,8.89-3.04c-3.05-.16-6.02-.32-8.89-.47v3.51Zm-20.21-456.6c.32.83.45,2.29,1.26,3.02,1.05.96,2.63,1.34,3.98,1.97.07-1.25.12-2.5.23-3.75.05-.54.34-1.1.27-1.61-.12-.78-.46-1.52-.7-2.28-1.17.96-1.46,2.11-2.19,2.76-.43.38-1.57-.03-2.84-.12Zm-43,62.87c-.8-1.5-1.52-2.59-1.97-3.79-.25-.65-.06-1.47-.06-2.21.66.3,1.4.51,1.96.94.49.38.76,1.03,1.32,1.83.08-1.01.29-1.61.14-2.09-.29-.91-.57-2.04-1.25-2.56-1.6-1.23-2.79.15-3.69,1.22-.53.63-.78,1.82-.6,2.64.26,1.21,1,2.33,1.71,3.85.37.03,1.22.08,2.46.17Zm79.03,561.76c.19-1.2.33-2.08.45-2.83.84.18,1.65.35,2.85.59-2.42-4.59-8.09-6.55-10.39-3.59,6.32-2.59,4.35,3.91,7.09,5.83ZM146.3,54.75c-.09-.33-.19-.66-.28-.99-1.05.37-2.44.44-3.06,1.17-.69.82-.98,2.26-.88,3.37.11,1.18.89,2.29,1.34,3.37.86-.46,1.77-.95,2.82-1.52-.61-.42-1.09-.75-1.63-1.13.9-.52,1.65-.95,2.62-1.51-.87-.77-1.55-1.37-2.26-2,.56-.33.94-.55,1.32-.77Zm42.18-18.97c.43-.77,1.09-1.39.99-1.87-.8-3.95.55-6.98,4.47-9.52h-4.44c-.63,3.71-3.43,7.06-1.02,11.38Zm-65.67,265.34c-2.18-1.53-3.9-2.74-6.25-4.39-.37,1.97-.85,4.05-.75,4.08,2.05.59,4.1,2.12,7,.31Zm129.6,428.61c-1.26-.86-2.13-1.32-2.82-1.96-1.41-1.33-4.92-1.46-6.12.03-.39.49-.2,1.45-.27,2.2.63-.16,1.25-.39,1.89-.47,1.02-.12,2.68-.55,2.98-.1,1.3,1.89,2.52,1.03,4.34.31ZM83.96,180c-1.35-4.52-5.64-7.41-4.07-12.03-3.15,2-1.5,7.9,4.07,12.03Zm104.59-4.73c.23-.14.46-.28.69-.43-.9-1.78-1.81-3.57-2.77-5.46-1.11.06-2.26.13-3.56.21-.28,1.39-.53,2.68-.79,3.97.23.07.46.13.69.2.4-.85.79-1.7,1.2-2.57,1.67,1.51,3.1,2.8,4.53,4.09Zm83.6,545.95l1.12.18c.93-1.59,1.92-3.15,2.71-4.8.11-.22-.77-.92-1.2-1.4-1.21,1.32-2.51,2.57-3.54,4.02-.21.3.58,1.31.91,2ZM104.81,204.31c1.04.25,1.82.44,2.61.63l-.18,1.21c-1.59-.16-3.18-.32-5.29-.53-.01.05-.57,1.04-.29,1.56.36.65,1.43,1.32,2.16,1.29,1.67-.07,3.32-.57,5.1-.92-.78-1.63-.82-4.08-4.1-3.24Zm26.03-2.77c.09-.26.17-.51.26-.77-2.86-3.57-6.15-4.41-9.51-2.27.61.81,1.21,1.61,1.56,2.08.96-.81,1.77-2.02,2.6-2.04.8-.01,1.57,1.3,2.46,1.86.8.5,1.75.76,2.63,1.13Zm65.72,526.13c-.35.36-1.07,1.12-1.78,1.87,1.37,1.01,2.69,2.09,4.14,2.97.21.13,1.35-.6,1.43-1.05.25-1.45-1.78-3.83-3.79-3.79ZM117.34,205.64c.32.04.64.08.96.12.87-1.46,1.77-2.89,2.53-4.4.07-.15-1.08-1.16-1.15-1.1-1.16.89-2.42,1.76-3.23,2.93-.29.41.56,1.61.89,2.45Zm266.02,409.37c1.74-.47,2.48-.85.95-2.73-.97-1.19-.93-3.23-1.26-4.91-.14-.72-.08-1.49-.12-2.23-.29.02-.57.04-.86.05-2,3.37.04,6.49,1.29,9.81Zm-138.73-76.36c-3.35-1.33-6.03-2.43-8.75-3.41-.34-.12-.9.37-1.36.58.28.52.44,1.36.85,1.5,1.98.68,4,1.27,6.05,1.69.84.17,1.79-.18,3.21-.35Zm-103.92-156.15c.63,2.62.83,5.06-2.3,6.7,2.14,2.01,3.94-.04,4.46-.76,1.88-2.64-.93-4.07-2.16-5.94Zm33.51-33.89c.1-.17.2-.33.29-.5.91,0,1.96.29,2.69-.07.91-.46,1.55-1.46,2.31-2.22-.94-.27-1.89-.74-2.83-.74-.84,0-1.71.47-2.51.86-.63.3-1.17.78-1.75,1.18.6.5,1.2.99,1.8,1.49Zm205.94,212.85c-1.14-1.25-1.72-1.9-2.3-2.54-1.13,1.03-2.32,2.01-3.3,3.17-.1.12,1.29,1.95,1.53,1.86,1.25-.51,2.36-1.39,4.06-2.49ZM183.44,25.05c-.29.3-.59.6-.88.89.88,1.16,1.77,2.32,2.65,3.48.75-1,2.2-2.04,2.13-2.98-.22-3.2-2.54-1-3.9-1.4Zm31.79,671.95c-.16.31-.32.61-.49.92,1.07,1.03,1.99,2.45,3.27,2.91.51.19,2.05-1.57,2.61-2.69.3-.6-.5-1.74-.81-2.63-.25.06-.5.11-.76.17-.08.74-.17,1.48-.24,2.12-1.26-.28-2.42-.54-3.58-.8Zm-61.8-200.4c.39-2.37,2.15-4.18-.33-5.86-1.14.98-2.19,1.89-3.24,2.79,1.08.93,2.16,1.86,3.57,3.07Zm309.1,176.76c-.16-2.4-1.26-3.37-3.05-3.31-.49.02-1.4,1.34-1.36,1.38.97,1.09,2.02,2.12,3.16,3.02.09.07.97-.84,1.25-1.1ZM207.73,125.04c1.79,1.92,3.44,3.68,5.09,5.44.03-1.42-.39-2.39-.5-3.4-.36-3.16-1.23-3.64-4.59-2.04Zm-43.27,272.27c-.05-.19-.1-.39-.15-.58-.64.21-1.65.24-1.85.66-.88,1.83-3.39,2.9-3.23,5.21.27.16.55.31.82.47,1.47-1.92,2.94-3.84,4.42-5.76Zm-38.52-205.07c-.99-.98-1.92-2.62-2.78-2.58-1.39.06-2.73,1.22-4.1,1.91.13.31.26.63.4.94.94-.29,1.88-.59,2.95-.92.96.77,1.91,2.65,3.53.65Zm160.85,544.73c2.31,0,3.64.15,4.91-.05,1.03-.16,2-.75,2.99-1.14-.9-.43-1.76-1.05-2.71-1.24-.82-.16-1.83-.03-2.59.32-.84.39-1.49,1.18-2.61,2.11Zm91.34-61.65c-3.42-.97-3.38,1.7-4.19,2.95-.54.84-.1,2.31-.1,3.49.21-.03.42-.06.63-.09,1.18-2.05,2.36-4.09,3.67-6.36ZM216.85,167.96h7.74c-1.84-1.87-5.53-2.01-7.74,0Zm179.37,349.65c2.36.25,3.85.48,5.34.53.44.02,1.04-.35,1.29-.72.16-.24-.08-1.13-.3-1.2-1.26-.41-2.61-.96-3.87-.86-.76.06-1.42,1.24-2.46,2.24Zm-69.59,126.62c.06-.17.33-1.02.61-1.86-.7.43-1.41.85-2.11,1.28-.16.09-.44.16-.46.28-.19,1.08-.44,2.18-.41,3.27,0,.2,1.18.37,1.82.56.15-.96.3-1.92.55-3.52ZM175.43,174.87c-.54.15-1.08.29-1.61.44.49,2.06.95,4.13,1.5,6.18.05.18.64.37.93.3.28-.06.74-.5.7-.67-.46-2.09-1-4.17-1.51-6.25Zm45.32-85.53c-2.04-.42-3.56-.73-5.08-1.04-.05.25-.1.49-.14.74.85.09,1.71.18,2.88.3-.69,1.85-1.27,3.38-1.84,4.91.25.13.51.26.76.4.96-1.49,1.92-2.97,3.43-5.31Zm43.23,485.43c-.57.65-1.26,1.08-1.24,1.48.07,1.52.32,3.05.62,4.54.05.27.69.53,1.08.57.26.02.77-.35.79-.57.11-1.49.2-2.99.09-4.48-.03-.46-.72-.86-1.34-1.55ZM127.58,229.46c.93-.85,1.89-1.42,2.31-2.25.16-.31-.92-1.25-1.44-1.9-.98.83-1.96,1.66-2.93,2.49.55.44,1.11.89,2.07,1.66Zm9.09,186.89c.43.02.85.04,1.28.06,1.88-1.15.81-2.91.59-4.43-.03-.19-1.22-.2-1.87-.3v4.66Zm86.32,323.4c1.32-1.77,2.43-3.27,3.57-4.8-1.84.23-3.31.41-4.92.61.54,1.66.96,2.99,1.35,4.19Zm-81.51-288.62c-2.5,2.56-.81,4.4-.27,6.68,2.97-2.44.03-4.22.27-6.68Zm165.13,260.03c-.2.88-.61,1.57-.42,2.01.33.77.91,1.73,1.6,1.97.63.21,1.55-.43,2.34-.7-.5-.56-.97-1.16-1.52-1.68-.56-.53-1.2-.97-2.01-1.6Zm-90.74-24.89c-1.09,2.39,1.22,6.25,3.44,7.08-1.1-2.26-2.14-4.4-3.44-7.08Zm-51.17-501.6c-.38-.14-.76-.27-1.14-.41-.88,1.91-1.75,3.83-2.63,5.74.45.19.91.38,1.36.57.8-1.97,1.6-3.94,2.41-5.91Zm-11.41,203.04c.07.34.14.69.2,1.03,1.57-.51,3.17-.94,4.66-1.62.21-.1-.13-1.4-.22-2.16-1.82,1.08-3.23,1.91-4.64,2.75Zm220.76,162.49c1.39,1.12,2.27,1.9,3.25,2.52.12.07,1.21-.95,1.13-1.08-.55-1.04-1.22-2.04-2.02-2.9-.09-.1-1.16.71-2.37,1.46Zm-235.55,140.55h3.95c-.64-1.53-1.16-2.77-1.68-4.02h-.94c-.4,1.2-.8,2.42-1.33,4.02ZM81.27,130.78c.04-.3.08-.59.11-.89-.92-.5-1.8-1.16-2.78-1.42-.45-.12-1.1.55-1.66.86.88.76,1.69,1.64,2.67,2.21.3.18,1.09-.48,1.66-.76Zm43.01,79.7c.23-.11.46-.21.69-.32-.42-.99-.69-2.09-1.31-2.93-.31-.43-1.26-.39-1.92-.56.04.73-.19,1.68.18,2.15.57.72,1.55,1.12,2.36,1.66Zm76.62,539.32c-.95.68-1.68,1.2-2.4,1.71.59.38,1.25,1.17,1.75,1.07,1-.2,1.92-.86,2.87-1.34-.62-.4-1.23-.81-2.21-1.44Zm-44.94-9.23c.46-1.37.92-2.52,1.22-3.72.08-.32-.21-.94-.5-1.09-.32-.17-1.19-.03-1.22.12-.35,1.49-1.82,3.11.5,4.7Zm70.18-232.91c-3.45.87-3.87,1.88-1.98,5.19.76-2,1.29-3.37,1.98-5.19Zm-45.73,174.11c.42-.3.84-.6,1.26-.9-1.36-1.82-2.72-3.64-4.08-5.46-.32.22-.63.44-.95.66,1.26,1.9,2.51,3.8,3.77,5.7Zm2.4-414.05c-.04-.25-.08-.49-.12-.74-1.25.52-2.54.96-3.69,1.64-.24.14.09,1.22.15,1.87.53-.28,1.12-.49,1.58-.85.74-.58,1.39-1.27,2.08-1.92Zm-79.79,333.46c.35-.08.69-.15,1.04-.23-.32-1.61-.65-3.22-.97-4.83-.32.07-.64.14-.96.21-.13,1.71-.86,3.57.89,4.84Zm142.57,142.2c-.09.33-.18.67-.27,1,.9.36,2.21,1.27,2.61.97.84-.62,1.9-2.46,1.63-2.8-1.8-2.27-2.37,1.41-3.98.83Zm-2.97-32.44c-.49-1.75-2.96-2.19-2.17-4.23-.55.13-1.4.08-1.59.41-1.21,2.12-.15,3.27,3.76,3.82Zm17.91,2.08c.81.9,1.26,1.4,1.71,1.9.72-1.03,1.52-2.02,2.09-3.12.09-.18-.86-.9-1.33-1.37-.74.77-1.47,1.55-2.46,2.59ZM136.84,98.97c-.41-.22-.81-.45-1.22-.67-2.17.98-.55,4.1-2.31,5.31l.85.47c.89-1.7,1.78-3.4,2.68-5.11Zm-8.93,203.42c0,.25,0,.5-.01.75,1.04.99,2.08,1.97,3.6,3.41.07-1.14.5-2.62.11-2.88-1.04-.7-2.44-.89-3.7-1.28Zm107.57,410.78c-.35.16-.7.32-1.05.48-.29,2.08-.3,4.02,3.1,4.31-.68-1.6-1.37-3.19-2.05-4.79Zm-61.6-99.97c.28.05.56.1.85.15.08-2.31,2.51-4.19,1.26-6.74-.37-.06-.73-.12-1.1-.19-.34,2.26-.68,4.52-1.01,6.78ZM35.55,194c.25,3.26,1.86,5.29,4.28,4.85-1.5-1.7-2.8-3.17-4.28-4.85Zm150.73,556.94c1.2,1.96,2,3.28,2.81,4.6.27-.18.53-.36.8-.54-.22-1.79.04-3.92-3.61-4.06Zm176.93-58.7c1.18,2.72,2.46,2.34,3.62,1.1.47-.51.48-1.45.7-2.2-1.38.35-2.77.7-4.33,1.1ZM58.39,156.14c.3-.12.59-.25.89-.37,0-1.83.4-3.85-1.83-4.67l-.96.41c.64,1.54,1.27,3.08,1.91,4.63Zm72.28,20.86c.07-.58-1.26-.07.67,1.21.54.36.83,1.08,1.35,1.5.49.39,1.13.58,1.71.87-.05-.67.16-1.7-.18-1.93-1.08-.71-2.35-1.12-3.55-1.64ZM27.74,106.37c-1.63,1.18-.31,2.62-.06,3.69.18.75,1.5,1.23,2.31,1.82.17-.22.35-.43.52-.65-.89-1.56-1.78-3.13-2.77-4.87Zm204.22,610.84c.37-.13.74-.27,1.11-.4-.59-1.72-1.17-3.43-1.76-5.15-.45.17-.91.33-1.36.5l2.01,5.05ZM85.03,190.36c.25-.04.51-.07.76-.11.36-.97.73-1.93,1.23-3.26-1.17-.1-2.01-.18-3.5-.3.64,1.54,1.07,2.61,1.51,3.67Zm283.54,443.77c.12.37.24.73.36,1.1,1.18.15,2.36.3,3.54.45.2-.25.39-.5.59-.75-.61-.75-1.15-2.03-1.84-2.11-.81-.1-1.76.83-2.64,1.32ZM7.25,66.08c-.2.45-.4.91-.6,1.36l2.77,1.92c.34-.79.68-1.58,1.02-2.38-1.06-.3-2.12-.61-3.18-.91Zm357.51,615.78c-.78-.2-1.59-.63-1.84-.42-.87.75-1.55,1.72-2.45,2.77.62.5,1.18.97,1.77,1.45.86-1.3,1.54-2.33,2.52-3.8ZM184.67,167.15c.27-.29.54-.57.81-.86-.92-1.12-1.8-2.27-2.79-3.32-.19-.2-.81-.07-1.21.03-.11.03-.25.59-.15.7,1.09,1.17,2.22,2.31,3.34,3.45Zm-25.52,138.51l1.7.33c.23-1.24.49-2.48.62-3.73,0-.07-1.1-.25-1.69-.37l-.63,3.77Zm7.85,393.87c.46-.05.93-.1,1.39-.16l.51-4.3c-.8.7-1.82,1.28-2.3,2.15-.29.53.24,1.52.4,2.3Zm3.72-262.74c1.47-2.45,1.07-3.65-1.44-4.74.57,1.88,1.01,3.31,1.44,4.74ZM49.52,186.79l-1.42.18.85,4.37c.43-.08.87-.15,1.3-.23-.24-1.44-.49-2.88-.73-4.32Zm143.9,563.48c-2.38,1.56-1.99,2.89-.9,4.05.26.28,1.12,0,1.71-.04l-.81-4.02Zm14.91-386.38c-1.97.62-3.04.95-4.53,1.42,1.18.86,2.02,1.48,3.19,2.34.42-1.17.73-2.03,1.34-3.76Zm-62.75,401.74c.1-.45.19-.9.29-1.36-1.2-.32-2.39-.63-3.59-.95-.17.65-.34,1.3-.51,1.95,1.27.12,2.54.23,3.81.35Zm222.46-55.08c1.11.05,2.19.19,3.25.1.42-.03.87-.51,1.15-.89.11-.16-.1-.71-.31-.93-1.04-1.02-3.61-.03-4.08,1.72Zm-202.92,27.94c2.06,1.3,3.59,2.26,5.11,3.23-3-3.1-3.81-3.61-5.11-3.23Zm17.45,9.05c-.25.14-.51.28-.76.41v4.59c.3.09.6.18.9.27.42-.94,1.16-1.88,1.16-2.82,0-.82-.84-1.64-1.3-2.46Zm-22.57-364.61v5.1c2.68-1.15,2.57-2.52,0-5.1Zm73.9,349.79c.47,0,.95-.01,1.42-.02.01-1.11.1-2.23-.04-3.32-.02-.18-1.05-.23-1.62-.34l.24,3.68ZM149.21,178.53c-.12-.24-.25-.48-.37-.72-.96.51-2.03.9-2.82,1.61-.25.22.28,1.3.58,2.51,1.14-1.49,1.88-2.45,2.61-3.4Zm-27.59-137.37c-.36.14-.71.29-1.07.43.33,1.1.65,2.21.98,3.31.51-.26,1.49-.69,1.47-.75-.39-1.03-.9-2.01-1.38-3Zm308.12,557.95c.33.38.66.77.98,1.15.96-.57,1.91-1.15,2.87-1.72-.63-.5-1.48-1.54-1.83-1.39-.8.34-1.36,1.26-2.01,1.95Zm-268.79-222.94h-3.97c.81,1.36,1.33,2.23,2,3.35.65-1.1,1.14-1.93,1.97-3.35Zm8.76-209.23c-.42,3.22,1.99,3.08,3.61,3.78.21-.26.43-.52.64-.78-1.35-.95-2.7-1.9-4.26-3Zm197.11,546.52c-1.25-1.1-2.19-1.98-3.21-2.78-.38-.3-.92-.55-1.37-.53-.26.01-.76.71-.68.93.18.51.55,1.17,1,1.33,1.25.44,2.58.66,4.25,1.06ZM164.74,154.94c-.29.21-.59.42-.88.64-.57,2.35.96,2.91,2.66,3.32.24-.18.47-.37.71-.55-.83-1.14-1.66-2.27-2.49-3.41Zm-22.03,250.36c-.33-.04-.66-.08-.99-.11-.52,1.11-1.05,2.22-1.57,3.33.2.2.41.39.61.59.81-.37,2.03-.54,2.33-1.16.32-.66-.22-1.74-.38-2.64Zm275.45,295.34c.97-.78,1.62-1.3,2.27-1.82-.68-.44-1.33-1.17-2.04-1.23-.53-.04-1.13.77-1.71,1.2.42.53.84,1.05,1.48,1.85ZM199.97,10.32c-.33.08-.66.17-.98.25.36,1.5.72,3.01,1.08,4.51.33-.09.66-.18.99-.27-.36-1.5-.72-3-1.08-4.5Zm173.65,687.18c-1.35-1.94-2.04-3.56-4.34-2.68-.1,3.18,2.22,2.04,4.34,2.68Zm-177.1,42.34c-.07-4.16-.72-4.83-3.3-3.69,1.01,1.13,1.94,2.17,3.3,3.69Zm-42.99-599.87c.45-.14.91-.28,1.36-.42-.45-1.19-.87-2.38-1.38-3.54-.03-.08-.76.16-1.17.25.4,1.24.8,2.47,1.2,3.71Zm41.98,208.67q1.06-4.16-1.68-3.8c.58,1.32,1.13,2.56,1.68,3.8ZM129.85,61.15c.28.43.57.86.85,1.29,1.04-.64,2.09-1.28,3.13-1.92-.42-.4-1.04-1.22-1.23-1.13-.98.46-1.84,1.15-2.75,1.76Zm-90.78-17.55c.18-.08.36-.16.54-.24-.39-.97-.67-2.01-1.25-2.85-.12-.18-1.35.42-2.57.83,1.48,1.01,2.38,1.63,3.29,2.25Zm234.98,583.67c3.01,2.19,3.26-.04,4.06-.88.24-.26-.09-1.05-.16-1.59-.67.54-1.31,1.13-2.01,1.61-.43.3-.97.45-1.89.86Zm-146.94-253.02c-.29.08-.58.16-.87.24.51,1.81,1.02,3.62,1.54,5.43.19-.05.39-.1.58-.15-.42-1.84-.83-3.68-1.25-5.52Zm165.11,219.58c.03,2.86,1.11,3.51,2.69,3.33.39-.05.69-.82,1.03-1.27-1.07-.59-2.14-1.18-3.73-2.06Zm-97.13,152.02c-1.92.63-3.49,1.14-5.06,1.65q4.35.47,5.06-1.65ZM52.8,190.58c.44-.22.88-.45,1.33-.67-.83-1.4-1.66-2.79-2.49-4.19-.29.15-.58.3-.86.45.67,1.47,1.35,2.94,2.02,4.41Zm108.38,102.97c.22.33.44.67.66,1,1.21-.59,2.42-1.17,3.63-1.76-.14-.28-.28-.56-.43-.84-1.29.53-2.57,1.06-3.86,1.6Zm31.5-11.78c0-.21,0-.41,0-.62-1.18,0-2.4-.17-3.52.08-.52.11-.87,1.04-1.33,1.64,1.9-.43,3.38-.77,4.85-1.1Zm-55.76-66.23c.2,1.69.35,2.91.52,4.38,2.32-1.99,2.28-2.4-.52-4.38Zm248.16,423.57c2.25-1.21,2.21-1.95-.2-4.01.07,1.51.13,2.67.2,4.01ZM113.4,203.94l-.17-1.44c-.92.14-1.88.17-2.73.49-.22.09-.11,1.08-.14,1.65,1.01-.23,2.03-.47,3.04-.7Zm128.07,528.02c.23-.09.46-.18.69-.27-.45-1.21-.89-2.42-1.4-3.6-.03-.08-.64.09-.98.14.36,1.1.69,2.21,1.09,3.3.07.19.39.29.59.43Zm56.26-164.09c-1.35-.8-2-1.33-2.73-1.53-.23-.06-1.09.97-1,1.14.34.6.87,1.26,1.49,1.48.38.14,1.03-.46,2.25-1.08Zm-51.36-30.88c-.08.35-.16.71-.25,1.06.83,1.41,2.01,1.25,3.28.69.07-.32.14-.63.21-.95l-3.25-.8ZM117.29,124.77l-1.27.35c.21,1.01.43,2.02.64,3.03.52-.17,1.05-.34,1.57-.51-.32-.96-.63-1.91-.95-2.87Zm23.76,269.59c.17.19.33.39.5.58.6-.37,1.63-.65,1.72-1.12.15-.74-.33-1.6-.54-2.42-.23.03-.46.05-.69.08-.33.96-.66,1.91-.99,2.87ZM42.53,176.98c1.13-.81,2.23-1.61,3.71-2.67q-4.58.87-3.71,2.67Zm128.81,509.21c.97.93,1.94,1.86,3.37,3.24-.27-2.29-.05-4.16-3.37-3.24Zm-4.38-354.96c-.24.18-.48.37-.71.55.83.91,1.65,1.84,2.53,2.71.04.04.52-.37.8-.58-.69-.89-1.37-1.8-2.09-2.67-.07-.09-.34-.01-.52-.01Zm-41.85,13.03l.3-1.44c-1.01-.21-2.02-.41-3.03-.62-.03.4-.18,1.09-.07,1.14.9.38,1.85.63,2.79.92Zm220.86,371.96c-.85-1.18-1.57-2.19-2.29-3.2-.27.21-.78.58-.77.6.67.97,1.38,1.91,2.1,2.85.02.03.17-.04.97-.25Zm-124.01-27.65c-.26.03-.53.06-.79.09-.17.57-.62,1.24-.46,1.7.26.76.91,1.38,1.39,2.06.37-.61,1.08-1.24,1.03-1.82-.06-.71-.75-1.36-1.17-2.03Zm179.27-72.34c-1.02,2.5-.02,3.9,2.75,5.04-1.13-2.07-1.94-3.55-2.75-5.04Zm-184.38-102.19c.66-.85,1.06-1.36,1.46-1.87-.65-.48-1.25-1.12-1.98-1.37-.27-.1-1.29.93-1.23,1.03.39.7.97,1.29,1.75,2.21Zm-30.48-392.28c-.98-.52-1.82-1.16-2-1.01-.88.72-1.58,1.66-2.34,2.52.16.1.33.19.49.29,1.03-.48,2.06-.96,3.85-1.79Zm12.47,257.34c.41.04.82.08,1.23.13.13-1.05.25-2.11.38-3.17-.31-.06-.62-.12-.93-.18-.23,1.07-.45,2.15-.68,3.22Zm-49.44,3.29c-1.05.11-2.17.13-2.18.24-.08,1.01.04,2.04.09,3.07.2,0,.41,0,.61,0,.39-.87.78-1.74,1.47-3.3ZM40.29,189.3c.59-1.22,1.15-1.86,1-2.2-.32-.75-1-1.35-1.53-2.02-.29.57-.85,1.17-.8,1.72.05.65.63,1.25,1.33,2.5Zm150.85,140.4c-.38-.08-.77-.17-1.15-.25-.23,1.3-.46,2.6-.68,3.9.42.08.84.16,1.26.24.19-1.3.38-2.59.57-3.89Zm20.04-163.32l-.22-.64c-1.13.24-2.26.47-3.82.79,2.14,2.6,2.94.44,4.04-.15Zm-50.65,145.32c-.05-.3-.1-.61-.15-.91-1.24.01-2.79-.97-3.88,1.7,1.76-.35,2.9-.57,4.03-.79Zm-53.91-180.83c.42-.07.84-.14,1.27-.21-.2-1.25-.39-2.5-.59-3.74-.37.07-.74.14-1.11.21.14,1.25.29,2.5.43,3.75Zm28.04,517.8c.28-.38.56-.76.85-1.14-.7-.66-1.41-1.31-2.11-1.97-.4.63-.8,1.25-1.2,1.88.82.41,1.64.82,2.46,1.23Zm13.09-589.34c.2.16.41.33.61.49.44-.49,1.21-.97,1.23-1.48.03-.73-.49-1.49-.77-2.24-.21.07-.43.14-.64.21-.14,1.01-.28,2.01-.43,3.02Zm254.56,655.55c.3.31.6.62.91.93.75-.71,1.5-1.41,2.26-2.12-.29-.31-.57-.63-.86-.94-.77.71-1.53,1.42-2.3,2.13ZM44.85,187.3c-.47.09-.94.18-1.42.26.29,1.07.56,2.15.9,3.2.02.06.92-.1.92-.12-.1-1.12-.26-2.23-.4-3.35Zm180.87,524.26c.34-.25.68-.51,1.02-.76-.65-.88-1.31-1.77-1.96-2.65-.32.35-.97.92-.9,1.03.54.85,1.21,1.61,1.84,2.39Zm-98.5,1.7c.31.19.62.38.92.57.49-.87.97-1.73,1.46-2.6-.37-.2-.75-.39-1.12-.59-.42.87-.84,1.74-1.26,2.61ZM227.46,161.94c.34-.44.51-.71.72-.93.31-.32.68-.59.98-.91.98-1.05.55-2.49-.35-1.87-.78.55-1.13,1.73-1.61,2.66-.09.17.11.49.26,1.04Zm-49.28,236.33c-.39-.18-.78-.35-1.17-.53-.53,1.01-1.05,2.01-1.58,3.02.33.18.67.36,1,.54.58-1.01,1.16-2.02,1.74-3.03Zm258.88,236.86c-.06.43-.12.86-.18,1.3,1.05.18,2.1.39,3.16.47.08,0,.23-.92.34-1.42-1.11-.12-2.21-.24-3.32-.35Zm-120.16,83.18c-.17-.22-.35-.45-.52-.67-.69.38-1.69.59-1.99,1.17-.26.52.25,1.43.42,2.17.24,0,.48.01.71.02.46-.9.92-1.8,1.38-2.69ZM156.14,172.52c-.41.19-.83.39-1.24.58.4.86.8,1.73,1.2,2.59.39-.18.78-.36,1.17-.53l-1.13-2.64Z"/><path class="cls-1" d="m226.17,754.63c1.24-.41,2.45-1.12,3.71-1.19,6.26-.38,12.26-1.75,18.03-4.2.08-.04.18-.1.26-.08,2.76.68,5.26.29,7.3-2.16-.4,2.53-1.15,3.75-3.9,4.12-8.38,1.12-16.68,2.85-25.01,4.34-.13-.28-.26-.55-.39-.83Z"/><path class="cls-1" d="m211.66,754.23c.13-.33.21-.93.39-.96,2.26-.33,4.53-.58,6.8-.85.15.23.29.46.44.69-.73.51-1.46,1.01-2.26,1.57.5.57,1.14,1.29,1.98,2.24-7.04,1.4-13.77,2.73-20.5,4.07-.06-.23-.11-.45-.17-.68,4-1,8-2.01,12.04-3.02,0-1.48,0-3,0-4.52,0,0-.01,0,0,0,.46.46.91.92,1.35,1.39.16.94.32,1.88.48,2.82l3.86-.72c-.05-.21-.11-.42-.16-.63l-4.24-1.39Z"/><path class="cls-1" d="m128.39,359.25c-.89-1.02-1.77-2.04-2.61-3,2.67-.95,4.87-1.74,7.07-2.52,0,0-.09-.07-.09-.07-.83,1.2-1.62,2.43-2.51,3.58-.57.74-1.29,1.37-1.95,2.05l.08-.03Z"/><path class="cls-1" d="m331.77,733.54l-5.86,1.01c-.06-.37-.12-.75-.18-1.12,1.96-.27,3.92-.55,5.89-.82.05.31.1.62.15.93Z"/><path class="cls-1" d="m122.7,361.08c-.31-1.17-.57-2.16-.98-3.75,1.44.39,2.31.62,3.3.89-.83,1.03-1.46,1.8-2.32,2.86Z"/><path class="cls-1" d="m148.37,756.59c-1.41.22-2.81.44-4.64.73.72-1.92,1.26-3.35,1.81-4.78.56.14,1.1.29,1.64.43.37,1.23.75,2.45,1.12,3.68l.07-.06Z"/><path class="cls-1" d="m178.79,40.84c1.43-.02,2.86-.04,4.29-.06-.41,1.81-.82,3.63-1.23,5.44-.33-.03-.66-.06-1-.09-.66-1.79-1.33-3.58-1.99-5.36,0,0-.06.08-.06.08Z"/><path class="cls-1" d="m303.7,632.71c.04.82.25,1.69.06,2.46-.21.86-.65,1.75-1.25,2.37-.2.21-1.69-.27-1.77-.61-.19-.89-.26-2.16.24-2.77.6-.73,1.84-.94,2.8-1.37,0,0-.08-.08-.08-.08Z"/><path class="cls-1" d="m184.62,414.29c1.42.75,2.16,1.14,3.29,1.74-.9.85-1.5,1.43-2.61,2.48-.25-1.54-.41-2.54-.69-4.22Z"/><path class="cls-1" d="m343.49,541.08c-1.29.72-1.98,1.41-2.62,1.37-.71-.05-1.38-.77-2.06-1.2.78-.6,1.49-1.39,2.37-1.71.38-.14,1.11.71,2.3,1.53Z"/><path class="cls-1" d="m408.25,533.69c-.25-.66-.5-1.31-.8-2.12,1.38-.19,2.53-.35,4.06-.56,0,2.6-2.08,2.1-3.34,2.59,0,0,.08.08.08.08Z"/></svg>