<?xml version="1.0" encoding="UTF-8"?><svg id="Layer_1" xmlns="http://www.w3.org/2000/svg" viewBox="0 0 1682.73 768"><defs><style>.cls-1{fill:#fff;stroke-width:0px;}</style></defs><path class="cls-1" d="m335.84,283.19c-.61-.27-.8-.43-.95-.4-.13.02-.31.25-.31.39,0,.14.16.38.29.4.16.03.34-.12.98-.38Z"/><path class="cls-1" d="m365.79,513.09c-.04-.08-.09-.17-.13-.25-.2.05-.43.05-.58.17-.13.11-.17.33-.25.51.08.06.17.11.25.17.24-.2.47-.4.71-.6Z"/><path class="cls-1" d="m1574.17,33.49c-165.93,3.22-385.7,252.39-526.26,313.6,64.84-82.7,110.76-164.32,120.69-229.03,9.4-60.95-38.39-116.26-100.01-118-211.58-5.91-515.92,407.98-628.69,313.07-55.45-58.13,69.81-212.92,177.88-283.67,15.3-10.07,5.1-29.13-13.29-28.33C337.34,11.34-106.09,558.13,23.06,702.72c42.96,45.78,144.05,26.98,262.73-39.2,58.67-32.62,112.77-73.17,162.44-118.27,79.61-72.36,142.57-113.17,189.43-131.16,171.03-65.65,127.81,172.24-101.49,290.51-9.8,5.1-10.74,15.57-6.44,22.69.54.81,1.07,1.61,1.75,2.42,1.48,2.15,3.22,4.3,4.97,6.31,42.96,45.78,144.05,27.12,262.73-39.07,58.66-32.76,112.77-73.17,162.44-118.27,369.99-336.02,380.06,8.19,88.34,159.09-17.05,8.86-7.52,34.37,11.01,29.67,215.2-54.5,582.37-408.25,619.96-609.49,12.35-66.32-39.2-125.79-106.73-124.45Z"/></svg>