<?xml version="1.0" encoding="UTF-8"?>
<svg id="Layer_1" data-name="Layer 1" xmlns="http://www.w3.org/2000/svg" viewBox="0 0 600 400">
  <defs>
    <style>
      .cls-1 {
        fill: #29aae1;
      }

      .cls-1, .cls-2, .cls-3 {
        stroke-width: 0px;
      }

      .cls-2 {
        fill: #117ba2;
      }

      .cls-3 {
        fill: #015878;
      }
    </style>
  </defs>
  <path class="cls-2" d="M225,278.78c-2.41,1.25-2.64,3.83-1.58,5.58-11.15-16.26,2.44-46.38,26.52-76.97,42.03-16.13,31.41,42.33-24.94,71.39Z"/>
  <path class="cls-2" d="M351.25,286.93c-2.41,1.25-2.64,3.83-1.58,5.58-11.15-16.26,2.44-46.38,26.52-76.97,42.03-16.13,31.41,42.33-24.94,71.39Z"/>
  <path class="cls-3" d="M506.31,144.45c-9.24,49.45-99.47,136.38-152.35,149.77-4.55,1.15-6.9-5.11-2.71-7.29,71.69-37.08,69.21-121.67-21.71-39.09-12.21,11.08-25.5,21.01-39.92,29.06-29.16,16.26-54.01,20.85-64.56,9.6-.43-.49-.86-1.02-1.22-1.55.86.96,2.21,1.52,3.86,1.09,36.12-9.07,89.8-52.65,123.05-95.11,34.54-15.04,88.55-76.27,129.32-77.06,16.59-.33,29.26,14.28,26.23,30.58Z"/>
  <path class="cls-1" d="M380.41,134.65c-2.44,15.9-13.72,35.96-29.66,56.28-33.25,42.46-86.93,86.04-123.05,95.11-1.65.43-3-.13-3.86-1.09-.16-.2-.3-.4-.43-.59-1.06-1.75-.82-4.32,1.58-5.58,56.35-29.06,66.97-87.52,24.94-71.39-11.51,4.42-26.99,14.45-46.55,32.23-12.21,11.08-25.5,21.05-39.92,29.06-29.16,16.26-54.01,20.88-64.56,9.63-31.74-35.53,77.23-169.9,142.88-172.41,4.52-.2,7.03,4.49,3.27,6.96-26.56,17.39-57.34,55.42-43.71,69.71,27.71,23.32,102.5-78.38,154.49-76.93,15.14.43,26.89,14.02,24.58,29Z"/>
</svg>