<?xml version="1.0" encoding="UTF-8"?><svg id="Layer_1" xmlns="http://www.w3.org/2000/svg" viewBox="0 0 763.63 768"><defs><style>.cls-1{fill:#fff;stroke-width:0px;}</style></defs><path class="cls-1" d="m335.84,283.19c-.61-.27-.8-.43-.95-.4-.13.02-.31.25-.31.39,0,.14.16.38.29.4.16.03.34-.12.98-.38Z"/><path class="cls-1" d="m365.79,513.09c-.04-.08-.09-.17-.13-.25-.2.05-.43.05-.58.17-.13.11-.17.33-.25.51.08.06.17.11.25.17.24-.2.47-.4.71-.6Z"/><path class="cls-1" d="m763.61,412.58c-1.04-2.46-.32-5.07-.69-7.6-.39-2.67-1.48-5.42-.29-8.21.16-.39-.33-1.02-.43-1.56-.37-1.85-1.26-3.81-.92-5.52.37-1.84.19-3.21-.96-4.44-1.16-1.25-.86-2.44-.61-3.92.22-1.29-1.75-2.24-1.16-3.95.21-.61-.07-1.41-.21-2.11-.12-.65-.45-1.27-.51-1.93-.3-3.21-1.34-6.46.45-9.56-.34-2.35-.86-4.65-.63-7.1.07-.73-.6-1.72-.53-2.84.14-2.15-.14-4.34-.31-6.51-.04-.55-.22-1.15-.52-1.6-1.38-2.06-1.25-4.28-1.04-6.62.15-1.72.25-3.67-.41-5.18-1.74-4.01-1.72-8.21-1.89-12.38-.1-2.65.38-5.32-1.14-7.76-.29-.46-.3-1.11-.38-1.67-.37-2.73-.29-5.56-1.93-7.98-.15-.23-.2-.54-.23-.83-.26-2.56-.43-5.14-.79-7.69-.24-1.74-.7-3.45-1.13-5.16-.22-.88-.65-1.71-.82-2.6-.34-1.78-.22-3.73-.91-5.34-.95-2.23-2.2-4.29-2.89-6.69-1.11-3.79-2.68-7.46-4.13-11.15-.32-.82-.94-2.18-1.42-2.17-2.13.03-1.6-1.8-2.37-2.62.48-.54.83-.94,1.12-1.27-.78-.79-1.97-1.45-1.93-2.05.08-1.53.23-2.97-.65-4.31,1-1.85-.6-3.13-1.03-4.66-.33-1.18-.86-2.32-1.08-3.51-.49-2.63-1.29-5.02-3.8-6.42-2.05-1.14-2.94-2.9-3.04-5.18-.02-.47-.36-.95-.29-1.39.28-1.88-2.17-2.31-1.91-4.25-.88.55-1.57.98-2.81,1.75.16-1.78.28-3.01.4-4.32.78-.04,1.47-.08,2.45-.14-.34-1.99-.28-3.93-1.02-5.49-2.17-4.57-4.55-9.06-7.06-13.46-2.74-4.81-5.65-9.53-8.6-14.22-.84-1.34-2.31-2.32-3.06-3.7-2.57-4.75-4.93-9.62-7.42-14.42-.52-1.01-1.22-1.94-1.88-2.88-1.16-1.63-2.39-3.2-3.53-4.85-3.83-5.53-7.63-11.07-11.45-16.6-.32-.47-.7-.9-1.09-1.32-2.21-2.35-4.7-4.5-6.58-7.09-2.49-3.46-5.4-6.59-7.81-10.06-3.45-4.96-8.27-8.46-12.39-12.69-2.99-3.07-6.45-5.7-9.75-8.46-3.52-2.94-7.03-5.89-10.55-8.84,0-.07,0-.13,0-.2-.3-.18-.6-.37-.9-.56-5-4.19-10.02-8.35-15.11-12.43-3.54-2.83-7.12-5.61-10.7-8.39.06-.19.13-.39.23-.6.9.38,1.88.57,2.55,1.13,2.12,1.76,4.12,3.67,6.19,5.49.21.18.6.16,1.12.29-1.54-1.71-2.75-3.32-4.21-4.64-3.34-3.02-6.79-5.92-10.24-8.82-.55-.46-1.36-.94-2-.88-1.63.13-2.55-.68-3.23-1.92-.84-1.52-2.08-2.36-3.72-2.89-.8-.26-1.82-.98-2.03-1.7-.54-1.83-1.88-2.81-3.21-3.88-1.5-1.2-2.93-2.48-4.47-3.62-1.67-1.24-3.31-2.7-5.21-3.41-.98-.37-1.92-.66-2.66-1.38-3.93-3.82-8.74-6.07-13.78-8.01-2.13-.82-4.18-1.91-6.17-3.04-3.98-2.26-7.85-4.7-11.84-6.91-2.16-1.19-4.58-1.91-6.72-3.13-4.8-2.74-10.32-4-14.84-7.32-.37-.27-.91-.28-1.35-.48-4.32-1.94-9.04-2.95-13.05-5.62-.3-.2-.71-.25-1.08-.33-1.09-.25-2.24-.34-3.28-.73-2.97-1.13-5.83-2.65-8.95-3.22-4.15-.75-8.18-2.11-12.31-2.74-2.34-.36-3.71-1.75-5.47-2.77-.65-.37-1.36-1.15-1.92-1.05-2.03.36-4.38-.79-6.14,1.59-1.38-2.03-3.34-1.3-5.06-1.65-1.91-.39-3.59-.68-4.67.82-1.92-.33-3.65-.62-5.38-.92-.18-.03-.37-.1-.53-.2-3.25-2.07-7.22-1.26-10.64-2.67-.49-.2-1.24-.26-1.69-.03-2.04,1.07-4.16.18-6.22.34-.66.05-1.43-.42-2.04-.82-1.53-.98-2.07-.79-2.42.96-.09.43-.21.85-.27,1.1-2.86.79-5.5,1.47-8.1,2.26-.6.18-1.24.66-1.57,1.19-.78,1.26-1.73,1.96-3.28,1.88-.53-.03-1.07.33-1.61.48-1.24.35-2.49.67-3.99,1.07.1-1.41.16-2.42.23-3.3-1.79-1.63-3.15-3.34-3.15-5.24-1.39-1.03-2.35-2.07-3.53-2.51-1.36-.51-2.91-.49-4.37-.7-1.98,2.29-1.97,2.27.57,3.68.52.29.91.81,1.32,1.19,1.03-.7,1.88-1.27,2.78-1.88,1.13,1.3,2.12,2.44,3.04,3.51q-.97,2.87-3.66,4.29c-.74-.44-1.51-.9-2.76-1.63.52,1.06.77,1.6,1.13,2.32-1.06-.27-1.86-.48-2.65-.68-.2.58-.35,1-.49,1.42-1.3-.36-2.58-.51-3.65-1.07-1.15-.6-2.11-1.57-3.32-2.51-.22.69-.36,1.11-.53,1.64,1.76.23,3,.95,3.67,2.38-2.35-.07-4.69-.13-7.04-.18-.1-.3-.2-.63-.32-1.06-.1.34-.2.69-.31,1.04-.92-.02-1.83-.04-2.75-.06-7.53-.15-15.05-.17-22.55.81-3.1.41-6.27.16-9.4.36-1.87.12-3.91.09-5.55.54-2.04.57-4.08.77-6.11,1.14-3.93.72-7.89,1.31-11.84,1.92-3.11.47-6.28.67-9.34,1.36-4.09.91-8.08,2.23-12.14,3.26-1.85.47-3.81.51-5.63,1.05-5.21,1.54-10.39,3.17-15.54,4.88-7.12,2.36-14.2,4.83-21.3,7.25-2.07.7-4.32,1.09-6.15,2.18-2.18,1.3-4.54,1.89-6.84,2.76-3.09,1.17-6.13,2.48-9.13,3.86-3.67,1.69-7.32,3.44-10.91,5.31-1.97,1.03-4.54.58-6.11,2.54-.05.06-.17.08-.26.09-3.12.54-5.48,2.79-8.63,3.65-.38-.28-.89-.66-1.37-1.01-1.68,1.07-2.69,3.4-5.06,2.08-.51.53-.99.89-1.3,1.35-1.52,2.33-4.08,2.41-6.31,2.43-3.02.03-4.91.58-6.76,3.12-.21.29-.6.44-.91.66h0c-.75,2.06-2.63,1.59-4.17,1.92-.56.12-1.08.44-1.61.67.78-.2,1.29.06,1.26.9,0,.25-.38.49-.59.74-.25-.49-.5-.98-.75-1.46-1.43,1.36-2.87,2.72-4.33,4.11-.46-.31-.89-.6-1.34-.91-.26.68-.48,1.26-.72,1.9-.55-.38-.93-.65-1.36-.94-.54.92-1.06,1.8-1.57,2.68-1.82-.79-3.3.1-4.4,1.17-1.74,1.71-3.18,3.73-4.85,5.75-.34-.15-.83-.37-1.32-.6-1.3.83-2.61,1.66-4.17,2.64-.07-.91-.11-1.52-.16-2.12-.12-.03-.25-.05-.37-.08-.32,1.34-.64,2.68-1.11,4.66-.62-1.5-.97-2.34-1.4-3.4-.52,2.02-.95,3.69-1.43,5.56-.65-.6-1.04-.95-1.72-1.56,0,.9-.01,1.45-.02,1.99,0,.57,0,1.15-.01,1.72-.23.04-.47.09-.7.13-.36-1.17-.73-2.34-1.02-3.3-2.51.59,1.25,4.05-2.45,4.52-1.49.19-1.72,3.78-4.4,2.6-.63,1.09-1.18,2.06-1.72,2.99-.57-.23-.97-.39-1.3-.52-.3.81-.53,1.43-.85,2.3-.65-.88-1.06-1.43-1.46-1.98-.19.09-.38.18-.57.27.21.8.42,1.6.75,2.87-.83-.47-1.22-.69-1.6-.9,0,1.14-.02,2.27-.03,3.41-.42.2-.83.39-1.26.59-.72-.96-1.96-.69-2.96.12-1.01.81-1.81,1.89-2.64,2.9-.35.43-.44,1.07-.81,1.47-1.48,1.62-3.02,3.18-4.56,4.75-.39.4-.79.88-1.28,1.1-2.42,1.06-4.74,2.26-6.79,3.97-.55.46-1.39.74-2.12.79-1.81.11-2.91,1.13-4.06,2.39-2.37,2.58-3.59,6.06-6.65,8.11-.97.65-1.55,1.86-2.35,2.77-.43.5-.87,1.13-1.44,1.36-3.59,1.47-6.67,3.93-10.35,5.25-.91.32-1.78,1.2-2.3,2.05-1.33,2.18-2.36,4.56-3.69,6.74-.91,1.48-.95,3.64-3.08,4.25-.05.01-.06.17-.12.35.32.48.67,1.01.99,1.48-1.38,2.79-1.76,5.86-3.81,8.25-.68.79-.62,2.18-1.02,3.24-.33.87-.78,1.72-1.3,2.49-.57.85-1.23,1.65-1.93,2.39-.57.61-1.19,1.26-1.92,1.61-2.37,1.15-4.02,2.81-4.67,5.44-.46,1.85-1.1,3.65-1.69,5.47-.49,1.52-.96,2.94-2.6,3.81-1.03.54-1.69,1.77-2.54,2.67-.58.62-1.2,1.19-1.77,1.81-.76.82-1.82,1.54-2.17,2.51-.79,2.17-2.23,3.76-3.76,5.36-.5.53-.95,1.21-1.16,1.9-.85,2.76-1.16,5.74-3.7,7.71-.46.35-.6,1.14-.84,1.75-.24.61-.31,1.33-.67,1.84-2.61,3.75-5.36,7.42-7.9,11.22-1.42,2.13-3.35,3.82-3.94,6.68-.47,2.27-2.46,4.22-3.8,6.3-.46.72-1.19,1.32-1.48,2.1-1.11,2.98-2.64,5.68-4.69,8.13-.95,1.14-1.35,2.52-1.18,4.19.14,1.41-.17,3.1-.87,4.32-1.12,1.95-2,3.83-1.97,6.14,0,.48-.79.96-1.32,1.55.52.71,1.01,1.49-.21,2.46-.73.58-1.35,1.73-1.42,2.66-.2,2.92-1.64,5.12-3.59,7.23.37.28.74.56,1.1.84-.26.55-.89,1.37-.72,1.6,1.23,1.65.05,3.22-.22,4.68-.46,2.45-1.73,4.57-4.25,5.72-2.91,1.32-2.85,1.39-1.98,4.48.35,1.25,1.11,2.8.68,3.76-.54,1.21-.34,2.26-.2,3.36-.67.1-1.12.17-1.64.25.3.69.58,1.32.88,2.01-.74.11-1.25.19-1.69.25.25,2.04.95,4,.56,5.72-.34,1.48-1.04,2.95-1.35,4.52-.26,1.3-.68,2.57-1.06,3.84-.94,3.1-2.9,5.8-2.89,9.31.01,3.16-.82,6.3-1.05,9.5-.18,2.51-1.17,5-.98,7.66.06.87-.79,1.77-.87,2.68-.18,2.06-.96,3.83-2.06,5.51-.25.38-.6.97-.47,1.28,1.01,2.47.25,5.07.59,7.6.36,2.67,1.41,5.44.18,8.22-.17.38.31,1.03.42,1.57.35,1.85,1.21,3.82.85,5.53-.39,1.83-.23,3.2.91,4.45,1.15,1.26.83,2.45.56,3.93-.24,1.28,1.73,2.26,1.11,3.96-.22.61.06,1.41.18,2.12.12.65.44,1.28.49,1.93.26,3.21,1.26,6.47-.57,9.56.31,2.35.8,4.66.54,7.11-.08.72.58,1.72.49,2.84-.16,2.15.09,4.34.23,6.51.04.55.21,1.15.5,1.6,1.35,2.08,1.2,4.3.96,6.63-.17,1.71-.29,3.67.34,5.19,1.69,4.03,1.62,8.23,1.73,12.4.07,2.65-.45,5.31,1.04,7.78.28.46.29,1.11.36,1.68.34,2.73.22,5.56,1.83,8.01.15.23.19.55.22.83.23,2.57.37,5.14.69,7.7.22,1.74.66,3.46,1.06,5.18.21.88.63,1.72.79,2.61.32,1.78.18,3.73.84,5.35.92,2.24,2.14,4.32,2.81,6.73,1.06,3.81,2.59,7.49,3.99,11.2.31.83.92,2.19,1.39,2.19,2.13,0,1.58,1.82,2.34,2.65-.48.54-.84.93-1.14,1.26.77.8,1.95,1.48,1.91,2.08-.1,1.53-.26,2.96.6,4.32-1.02,1.83.56,3.13.97,4.67.32,1.18.83,2.33,1.04,3.53.45,2.63,1.23,5.04,3.71,6.46,2.03,1.16,2.91,2.94,2.98,5.22.01.47.35.95.27,1.39-.3,1.87,2.14,2.34,1.86,4.27.89-.54,1.58-.96,2.83-1.72-.19,1.77-.32,3.01-.45,4.31-.78.03-1.48.06-2.46.1.32,1.99.23,3.93.95,5.5,2.11,4.6,4.44,9.11,6.89,13.55,2.68,4.85,5.53,9.6,8.42,14.33.83,1.35,2.28,2.35,3.01,3.74,2.51,4.78,4.81,9.68,7.23,14.51.51,1.02,1.19,1.96,1.84,2.9,1.14,1.64,2.35,3.23,3.47,4.89,3.76,5.57,7.49,11.17,11.24,16.75.32.47.69.91,1.07,1.33,2.18,2.38,4.65,4.55,6.49,7.17,2.45,3.49,5.32,6.66,7.68,10.16,3.39,5.01,8.16,8.56,12.23,12.84,2.95,3.11,6.37,5.78,9.64,8.58,5.87,5.03,11.71,10.09,17.6,15.09,0,.12,0,.23,0,.35.47.27.93.56,1.4.84,2.42,2.04,4.84,4.07,7.29,6.08,5.99,4.92,12.06,9.73,18.15,14.51-.03.07-.05.14-.08.21-.9-.37-1.88-.54-2.56-1.09-2.14-1.73-4.16-3.62-6.26-5.41-.21-.18-.6-.16-1.13-.28,1.56,1.69,2.79,3.28,4.27,4.58,3.38,2.98,6.86,5.84,10.35,8.69.55.45,1.37.92,2.01.86,1.62-.15,2.56.65,3.25,1.88.86,1.51,2.11,2.34,3.76,2.85.8.25,1.83.95,2.06,1.67.57,1.82,1.91,2.79,3.26,3.84,1.51,1.18,2.97,2.44,4.52,3.56,1.69,1.22,3.34,2.65,5.25,3.35.99.36,1.93.64,2.67,1.34,3.98,3.77,8.82,5.96,13.88,7.83,2.14.79,4.2,1.86,6.21,2.97,4,2.21,7.91,4.6,11.93,6.76,2.17,1.17,4.6,1.85,6.75,3.04,4.84,2.68,10.37,3.87,14.93,7.13.37.27.92.27,1.35.46,4.35,1.88,9.08,2.84,13.12,5.45.3.2.72.24,1.09.32,1.1.23,2.25.31,3.29.69,2.98,1.09,5.86,2.58,8.99,3.11,4.16.7,8.21,2,12.34,2.59,2.35.33,3.73,1.7,5.5,2.7.65.36,1.38,1.13,1.94,1.02,2.02-.39,4.39.74,6.12-1.66,1.4,2.01,3.35,1.25,5.08,1.59,1.92.37,3.6.64,4.66-.88,1.92.3,3.66.57,5.39.85.18.03.38.09.53.19,3.28,2.03,7.24,1.16,10.68,2.53.5.2,1.25.24,1.69,0,2.03-1.09,4.15-.23,6.22-.41.66-.06,1.43.4,2.05.79,1.54.96,2.08.76,2.41-.99.08-.43.19-.86.25-1.1,2.85-.82,5.48-1.54,8.07-2.37.59-.19,1.23-.68,1.55-1.21.76-1.27,1.71-1.98,3.25-1.92.53.02,1.06-.35,1.61-.5,1.24-.36,2.49-.71,3.97-1.13-.08,1.41-.13,2.42-.18,3.31,1.81,1.61,3.19,3.3,3.22,5.2,1.41,1.01,2.38,2.04,3.56,2.46,1.36.49,2.92.45,4.38.65,1.95-2.32,1.94-2.3-.62-3.68-.52-.28-.92-.8-1.33-1.18-1.02.71-1.86,1.29-2.76,1.92-1.15-1.29-2.15-2.41-3.08-3.47q.93-2.88,3.6-4.34c.75.43,1.52.88,2.78,1.6-.53-1.06-.79-1.59-1.15-2.31,1.06.26,1.87.46,2.66.65.19-.58.34-1.01.48-1.43,1.3.34,2.58.48,3.66,1.02,1.16.58,2.13,1.54,3.36,2.47.21-.69.34-1.12.5-1.65-1.74-.21-2.98-.89-3.67-2.27.34.01.68.02,1.02.03,2.02.06,4.04.12,6.05.15.08.26.17.55.27.89.08-.29.17-.59.25-.89,5.33.07,10.66-.05,15.99-.68,3.1-.37,6.27-.08,9.41-.25,1.87-.1,3.91-.04,5.55-.47,2.04-.54,4.09-.72,6.12-1.06,3.94-.67,7.91-1.22,11.87-1.77,3.12-.43,6.29-.6,9.36-1.24,4.1-.86,8.11-2.13,12.18-3.11,1.85-.45,3.82-.47,5.65-.98,5.22-1.47,10.43-3.04,15.6-4.68,7.15-2.27,14.26-4.65,21.39-6.98,2.07-.68,4.33-1.03,6.18-2.1,2.2-1.27,4.56-1.83,6.88-2.67,3.11-1.13,6.16-2.4,9.18-3.75,3.69-1.64,7.36-3.35,10.97-5.17,1.99-1,4.55-.53,6.15-2.47.05-.06.17-.08.26-.09,3.12-.5,5.52-2.72,8.67-3.54.38.29.88.67,1.35,1.03,1.69-1.05,2.73-3.36,5.09-2.01.52-.52,1-.87,1.31-1.34,1.55-2.32,4.11-2.36,6.34-2.35,3.02.01,4.92-.52,6.8-3.03.21-.29.61-.44.92-.65h0c.77-2.05,2.65-1.56,4.19-1.87.56-.11,1.08-.43,1.62-.65-.78.19-1.29-.08-1.25-.91.01-.25.39-.49.6-.73.24.49.49.98.73,1.47,1.45-1.34,2.9-2.69,4.38-4.06.46.32.88.61,1.33.92.27-.68.5-1.26.75-1.89.55.39.93.66,1.35.96.55-.91,1.08-1.79,1.61-2.66,1.81.81,3.3-.05,4.41-1.11,1.77-1.68,3.23-3.69,4.93-5.69.33.16.82.38,1.31.61,1.31-.81,2.64-1.62,4.2-2.59.06.91.1,1.52.13,2.12.12.03.25.06.37.08.34-1.34.67-2.67,1.17-4.65.6,1.51.94,2.35,1.36,3.41.55-2.01,1-3.68,1.5-5.54.65.6,1.03.96,1.7,1.59.02-.9.03-1.45.04-1.99.01-.57.02-1.15.04-1.72.23-.04.47-.08.7-.12.35,1.17.7,2.35.98,3.32,2.52-.55-1.2-4.07,2.5-4.49,1.5-.17,1.77-3.76,4.43-2.55.64-1.08,1.21-2.04,1.76-2.97.57.23.97.4,1.29.53.31-.81.55-1.42.88-2.29.64.89,1.04,1.44,1.44,2,.19-.09.38-.17.57-.26-.2-.8-.4-1.61-.72-2.88.82.48,1.21.7,1.59.92.04-1.99.08-3.98.13-5.97,2.68-1.38,5.44-2.68,8.31-4.1.74.95,1.97.67,2.96-.16,1-.82,1.78-1.91,2.6-2.93.34-.43.43-1.08.79-1.48,1.46-1.63,2.98-3.22,4.5-4.81.39-.41.78-.89,1.27-1.11,2.41-1.09,4.71-2.32,6.74-4.05.55-.47,1.38-.76,2.11-.82,1.8-.13,2.89-1.17,4.03-2.44,2.34-2.61,3.52-6.11,6.55-8.19.96-.66,1.53-1.87,2.31-2.8.43-.51.85-1.14,1.42-1.38,3.57-1.52,6.62-4.01,10.29-5.38.9-.34,1.76-1.23,2.27-2.08,1.3-2.2,2.3-4.58,3.61-6.78.89-1.49.91-3.65,3.02-4.29.05-.01.06-.17.12-.35-.33-.48-.69-1.01-1-1.47,1.34-2.81,1.68-5.89,3.71-8.3.67-.8.59-2.18.98-3.26.32-.88.76-1.73,1.27-2.51.56-.86,1.21-1.66,1.9-2.41.57-.61,1.17-1.27,1.9-1.64,2.36-1.18,3.98-2.86,4.6-5.5.43-1.86,1.06-3.67,1.62-5.49.47-1.52.92-2.96,2.56-3.84,1.02-.55,1.67-1.79,2.5-2.7.57-.62,1.18-1.21,1.75-1.83.75-.83,1.8-1.56,2.14-2.54.76-2.18,2.18-3.79,3.69-5.41.5-.53.93-1.22,1.13-1.91.81-2.77,1.08-5.75,3.6-7.75.45-.36.58-1.15.82-1.76.24-.61.29-1.33.65-1.85,2.56-3.79,5.27-7.48,7.76-11.32,1.39-2.15,3.3-3.87,3.86-6.73.44-2.27,2.4-4.25,3.72-6.35.46-.73,1.17-1.34,1.45-2.12,1.07-3,2.57-5.71,4.59-8.19.93-1.15,1.31-2.54,1.13-4.2-.16-1.41.13-3.1.82-4.33,1.09-1.97,1.95-3.86,1.9-6.16-.01-.47.78-.97,1.3-1.57-.53-.71-1.02-1.48.18-2.47.73-.59,1.33-1.75,1.38-2.68.16-2.92,1.58-5.14,3.5-7.27-.38-.28-.74-.55-1.11-.83.25-.55.87-1.38.7-1.61-1.25-1.64-.09-3.22.16-4.68.43-2.46,1.67-4.59,4.18-5.77,2.9-1.36,2.83-1.42,1.92-4.5-.37-1.25-1.15-2.78-.73-3.76.52-1.22.32-2.27.16-3.36.67-.11,1.12-.19,1.64-.27-.31-.68-.59-1.31-.91-2,.74-.12,1.24-.2,1.68-.28-.28-2.03-1-3.99-.63-5.71.32-1.48,1.01-2.96,1.3-4.53.24-1.3.65-2.58,1.02-3.85.9-3.11,2.83-5.84,2.77-9.35-.05-3.16.74-6.31.93-9.52.15-2.51,1.1-5.01.88-7.67-.07-.87.77-1.78.84-2.69.15-2.06.91-3.84,1.99-5.54.24-.38.59-.97.45-1.29Zm-433.73,352.33c-.12.03-.35-.31-.66-.61.4-.29.69-.5.97-.71.19.26.37.52.56.78-.29.19-.55.45-.87.54Zm9.72-.97c-.34.02-.69-.23-1.23-.43.76-.59,1.03-.89,1.12-.85.29.15.51.43.76.66-.22.22-.43.6-.66.62Zm22.1-6.8c.52.97.95,1.78,1.56,2.93-2.81-.75-2.94-1.01-1.56-2.93Zm146-392.75c-.9,11.47-2.77,22.81-7.16,33.53-3.04,7.43-6.54,14.63-10.83,21.48-4.76,7.6-10.22,14.61-16.36,21.07-5.2,5.48-10.66,10.76-16.44,15.61-5.19,4.36-10.87,8.16-16.53,11.92-5.66,3.75-11.89,6.49-18.13,9.14-2.7,1.15-5.58,1.85-8.37,2.8-1.52.52-2.98,1.2-4.5,1.72-6.54,2.23-13.3,3.32-20.14,4.01-2.36.24-4.71.67-7.07.75-4.19.14-8.4.27-12.58.07-8.42-.42-16.68-1.97-24.88-3.95-6.69-1.61-13.59-2.39-20.19-4.25-7.63-2.14-15.35-4.11-22.54-7.65-4.39-2.16-8.83-4.1-12.73-7.17-2.38-1.88-5.25-3.12-7.83-4.76-1.02-.65-1.88-1.56-2.77-2.4-.55-.52-.94-1.23-1.54-1.68-9.01-6.76-15.37-15.77-20.74-25.42-3.19-5.72-5.58-11.92-7.86-18.08-2.21-5.98-3.87-12.16-5.67-18.29-.54-1.82-.69-3.76-1.08-5.63-.4-1.95-.94-3.88-1.27-5.84-.19-1.11-.24-2.3-.08-3.41.24-1.68.71-3.33,1.14-5.26-1.45.19-2.07-.54-1.97-1.72.09-.99-.94-2.23.76-2.95.89-.37.72-2.22-.23-3.96.77-.56,1.56-1.14,2.66-1.94-1.01-.64-1.83-1.05-2.51-1.63-.33-.28-.44-.83-.64-1.28-.02,0-.04-.01-.06-.01,0-.02.02-.05.03-.07-1.11-2.17.14-4.24.55-6.26.2-1,.29-1.85-.08-2.88.94-.11,1.66-.2,2.59-.31.08.5.32,1,.19,1.36-.73,1.94-1.56,3.84-2.35,5.77-.31.77-.6,1.55-.9,2.33,0,.01,0,.02.01.03,0,.02.01.04.02.05,1.08.25,2.23.64,3.18-.22.41-.38.85-1.45.68-1.64-1.68-1.78-.61-3.65-.17-5.38.74-2.89.67-3.12-2.59-3.29,1.22-2.41.99-5.23,3.4-7.1.73-.56.76-2.03,1.22-3.41.96-.03,1.86.43,1.86,2.04,1.06-1.43.69-2.02-2.27-3.78.26-.86.5-1.66.79-2.62,1.48-.31,1.53,1.36,2.35,2.24,1.74-2.38-1.61-2.59-1.61-4.45.86.27,1.65.52,2.48.78.85-1.87.22-4.07,1.54-5.9,1.48-2.05,2.64-4.33,3.9-6.54,1.07-1.88,2.07-3.81,3.21-5.9-.25-.44-.6-1.06-1.05-1.84.49-.05.8-.18.98-.08.55.31,1.06.71,1.42.97.73-1.58,1.34-3.04,2.09-4.42.13-.24.85-.16,1.28-.22-.03-.69-.22-1.41-.04-2.02.2-.66.48-1.41,1.55-1.38.41,0,1.09-.6,1.22-1.06.52-1.82,1.68-3.11,3.1-4.26.42-.34.9-.96.89-1.43-.08-2.43,1.88-3.37,3.24-4.76.6-.61,1.33-1.18,1.66-1.92.51-1.14,1.21-1.81,2.43-2.03.33-.06.77-.35.89-.64.53-1.34,1.63-.98,2.96-.78-.4-.86-.66-1.42-.94-2.02.72-.42,1.7-.68,2.15-1.32.8-1.15,1.68.05,2.71-.33-.43-.8-.79-1.49-1.2-2.26.75-1.14,1.52-2.31,2.41-3.66,1.32.21,2.9.72,3.8-1.26.65.94,1.03,1.49,1.41,2.03l.46-.17c-.05-.48.05-1.04-.18-1.41-.41-.69-1.51-1.31-.46-2.1.49-.37,1.47-.09,2.39-.12.01-.62.03-1.41.05-2.26.42-.04.77-.19.94-.07.82.55,1.59,1.18,2.8,1.41-.44-.74-.89-1.48-1.43-2.39,1.41-1.17,2.64-2.68,4.97-1.62.37-2.14.74-4,3.29-4.49,1-.19,1.8-1.46,2.69-2.25-.21-.38-.43-.79-.65-1.19,1-.69,1.92-1.33,2.96-2.05.38.25.83.54,1.12.73,1.17-.52,2.24-1,3.47-1.55-.77-1.31.27-2.05,1.2-2.86-.15-.34-.31-.68-.52-1.15,1.77-.28,2.26,1.01,3.35,1.77.02-1.06.04-2.12.08-3.78.92,1.1,1.44,1.71,1.95,2.31,1.09-.21,2.1-.4,3.1-.59.01-.08.03-.16.04-.24-.86-.09-1.71-.17-2.76-.28.13-1.28.06-2.56,1.83-2.07,1.54.42,1.38-1.42,2.71-1.64.68.57,1.53,1.27,2.7,2.25-.24-1.03-.41-1.74-.58-2.51,1.34-.24,2.65-.78,3.85-.61,1.25.18,1.55-.23,2.28-1.1.66-.8,2.47-1.47,3.33-1.12,1.92.78,3.56-.2,4.9-.73,3.05-1.21,6.21-1.12,9.29-1.44,7.98-.85,15.99-1.44,24-1.85,4.29-.22,8.63,0,12.93.24,7.26.4,14.48,1.21,21.58,2.82,14.02,3.19,27.11,8.63,39.54,15.91,9.06,5.31,17.45,11.47,25.47,18.17,4.47,3.74,8.51,7.95,12.44,12.29,3.76,4.15,6.82,8.77,9.81,13.44,3.26,5.1,5.47,10.72,7.44,16.44,2.78,8.04,4.01,16.37,4.63,24.79.39,5.34.58,10.75.17,16.08Zm181.15-193.54c-.21.17-.56.18-.84.26-.07-.12-.13-.25-.2-.37.34-.3.69-.59,1.03-.89.12.08.25.17.37.25-.11.26-.17.59-.36.75Zm48.62,337.56c-.22.04-.49-.18-1.4-.57.92-.4,1.2-.62,1.43-.58.18.03.43.38.43.58,0,.21-.26.54-.45.57Z"/></svg>