<?xml version="1.0" encoding="UTF-8"?><svg id="Layer_1" xmlns="http://www.w3.org/2000/svg" viewBox="0 0 1018.93 768"><defs><style>.cls-1{fill:#fff;stroke-width:0px;}</style></defs><path class="cls-1" d="m847.44,256.73c.5-3.78.47-3.65-2.78-4.28-3.3-.65-6.49.01-9.66.54-13.14,2.2-26.29,4.27-39.56,5.46-.47.04-.95-.1-1.36-.15-.33-.33-.31-.61.06-.8.96-.52,2.42-.63,2.48-2,.06-1.36-1.27-1.79-2.28-2.23-8.25-3.55-16.59-6.74-25.8-6.5-4.39.12-8.81.03-13.06,1.32-3.68,1.12-7.43.6-11.15.79-6.21.31-6.81.82-8.55,6.56-2.88,9.48-5.79,18.95-8.84,28.37-2.38,7.35-2.48,7.31,5.32,8.42,13.18,1.87,26.33,4.02,39.55,5.55,7.74.9,15.31,2.67,23.02,3.66,2.67.34,5.39.84,9.19-.34-3.77-1.25-6.22-2.98-9.32-2.97-2.7.01-5.1-.94-7.36-2.3-2.82-1.69-5.82-2.86-9.07-3.35-5.97-.9-11.64-3.02-17.54-4.18-5.33-1.05-10.5-2.73-16.24-1.75-2.92.5-6.33-.77-9.55-1.04-1.91-.16-2.41-1.92-1.57-3.31,1.95-3.23,3.45-6.63,8.17-7.48,7.88-1.43,15.49-.88,23.16.86,1.23.28,2.32,1.23,3.99.79-.6-2.5-3.33-2.22-4.73-3.78,3.52-1.1,6.96,1.06,10.4.19.22-2.12-2.47-1.7-2.5-4.02,9.87-2.79,20.35-3.21,30.93-5.28.2,6.05,1.53,11.55,2.32,17.13.54,3.8,2.05,6.49,5.74,8.27,5.98,2.88,11.71,6.27,17.52,9.48,1.21.67,3.07,1.07,2.69,2.92-.39,1.88-2.2,2.13-3.85,2.4-3.55.57-7.12-.63-10.94.14,3.79,1.8,7.69,2.21,11.48,2.75,14.8,2.11,29.58,4.23,44.35,6.56,15.88,2.5,31.82,4.63,47.73,6.94,2.73.4,5.46.84,8.17,1.38,3.05.61,2.68,1,2.98,4.1.39,4.01-1.91,5.04-4.81,6.07-11.94,4.24-23.9,8.46-35.8,12.82-2.97,1.09-6.37,1.43-8.6,4.11-.34.41-.79.4-1.27.48-7.48,1.26-14.38,4.3-21.29,7.24-4.33,1.85-9.16,2.23-13.32,4.56-.7.39-1.5.6-2.25.9-2.16.86-2.56,2.19-1.3,4.19,1.68,2.67,3.21,5.43,5.21,8.83-3.03-.6-4.66-1.96-6.47-2.93-2.72-1.45-5.45-2.89-8.18-4.33-2.37-1.25-4.87-1.08-7.02.16-3.59,2.07-7.49,2.98-11.41,3.98-1.41.36-2.95.71-4.09,1.53-3.48,2.54-7.93,2.96-11.42,5.38-1.36.94-2.83.07-4.23.64-1.92.78-3.66,1.66-5.41,2.81-1.22.79-3.68.61-5.43,1.38-2.33,1.02-2.39,2.16-.53,3.91.99.93,2.18,1.47,3.4,1.8,1.32.36,2.56.77,3.18,2,.94,1.85,3.21,1.66,4.25,2.77,1.16,1.24,1.94,2.42,3.81,2.31.42-.03,1.13.28,1.25.6,1.39,3.6,6,3.11,7.78,6.18.07.13.26.25.4.26,4.96.42,7.35,4.64,10.79,7.3.51.39,1.12,1.05,1.62.99,3.11-.36,4.56,2.09,6.47,3.71,1.5,1.27,2.89,2.65,5.08,2.42,1.04,3.24,4.26,3.38,6.64,4.74,7.75,4.44,14.71,10.09,22.4,14.65,3.52,2.09,7.19,4.07,10.14,7.04.82.83,1.89,1.17,2.97,1.58,1.5.57,3.13,1.16,4.31,2.19,5.62,4.9,11.93,8.88,18.09,12.98,8.44,5.61,17.02,11.03,25.63,16.39,5.22,3.25,10.07,7.03,15.41,10.16,10.33,6.05,20.25,12.79,30.28,19.34,15.62,10.21,31.19,20.49,46.77,30.76.95.63,1.89,1.27,2.77,1.99.96.78,2.62,1.4,1.98,2.96-.63,1.53-2.11,2.55-3.85,2.49-1.26-.05-2.53-.54-3.76-.94-13.14-4.2-26.24-8.49-39.41-12.6-5.56-1.73-10.93-4.06-16.52-5.56-6.36-1.71-12.51-3.99-18.77-5.96-4.45-1.4-8.65-3.88-13.17-4.7-5.78-1.05-10.85-3.87-16.43-5.34-2.81-.74-5.54-1.76-8.38-2.48-3.37-.85-6.91-1.4-9.92-3.56-2.67-1.92-6.06-2.28-9.17-2.98-6.47-1.44-12.87-3.45-18.84-5.94-10.35-4.31-21.35-6.36-31.7-10.44-5.1-2.01-10.35-3.85-15.51-5.35-7.09-2.07-13.76-5.17-20.82-7.19-.87-.25-1.63.07-2.18.71-.49.57-.23,1.25.11,1.81.68,1.1,1.34,2.23,2.15,3.24,8.99,11.31,17.88,22.7,26.96,33.95,13.64,16.91,26.57,34.4,40.21,51.3,8.65,10.71,17.11,21.57,25.7,32.32,15.26,19.1,30.3,38.37,45.4,57.6,12.01,15.29,23.98,30.61,35.94,45.94,1.16,1.48,2.56,2.93,2.55,5.5-2.94-.23-5.67-.56-7.75-2.48-7.19-6.65-14.78-12.83-22.37-19.02-7.63-6.22-15.25-12.48-22.71-18.89-7.34-6.3-14.59-12.7-22.06-18.84-8.43-6.93-16.47-14.31-25.1-21.01-5.33-4.14-10.4-8.62-15.3-13.3-3.02-2.88-6.3-5.51-9.89-7.76-1.98-1.25-3.23-3.68-5.22-4.9-5.3-3.25-9.5-7.78-14.27-11.63-8.66-6.99-17.16-14.18-25.61-21.4-7.81-6.68-15.99-12.91-23.68-19.73-4.75-4.22-8.67-9.52-14.74-12.17-.41-.18-.72-.66-.98-1.07-3.21-5.07-8.6-7.7-12.88-11.57-.66-.6-1.28-1.05-2.09-.42-.62.48-.44,1.2-.24,1.8,1.53,4.62,3.08,9.22,4.63,13.83,6.35,18.95,12.72,37.89,19.05,56.84,6.27,18.77,12.47,37.56,18.76,56.33,4.8,14.31,9.77,28.56,14.53,42.88,4.1,12.33,8.03,24.72,12.02,37.08.4,1.23.8,2.48.98,3.76.08.55-.2,1.41-.62,1.73-.71.53-1.57.25-2.14-.47-2.04-2.54-4.01-5.12-7.45-5.9-.58-.13-.43-.65-.32-1.19.59-3.03-.43-5.05-3.01-5.82-2.21-.66-5.19-.47-3.64-4.35.17-.42-.82-1.3-1.28-1.96-.76-1.07-1.49-2.14-1.11-3.58.78-2.97-1.88-4.61-2.77-6.95-.37-.97-1.54-.93-2.59-.74-1.07.19-2.23.43-3.09-.55.02-.64.43-.9.92-.96,2.5-.31,1.82-2.38,1.9-3.78.08-1.4-1.27-1.73-2.44-1.85-2.13-.22-4.19-.53-5.63-2.41-.39-.51-.83-.94-.93-1.64-.21-1.34,2.24-2.64.95-3.33-2.3-1.22-3.56-3.73-6.31-4.35-3.39-.76-3.51-1.25-2.75-4.65.74-3.27-.4-5.13-3.21-7.54-2.01-1.73-3.32-4.2-6.21-4.93-.83-.21-.55-1.32-.02-2.07.64-.9,2.03-1.17,2.14-2.92-1.57-1-4.8-1.05-3.83-4.59.08-.28-2.97-.75-3.86-2.49-.25-.5-1.53.46-2.2-.32,1.93-1.27-.5-2.51,0-4.01,1.02-3.07-.63-5.16-3.67-5.24-.98-.03-1.93-.04-2.83-.54-1.88-1.05-2.37-2.55-.7-3.75,2.56-1.84,1.6-3.73.3-5.25-4.39-5.13-7.83-10.91-11.71-16.39-.54-.77-.65-1.87-1.85-2.02-2.42-.29-4.15-.81-1.42-3.37.26-.24-.28-1.53-.66-2.21-2.07-3.65-4.26-7.5-7.93-9.49-2.44-1.33-2.46-4.8-5.52-5.13-.14-.01-.38-.6-.31-.85,1.44-5.45-2.32-9.13-4.56-13.3-2.1-3.9-3.87-8.08-7.98-10.46.25-3.06-3.78-3.85-3.63-6.86.05-.98-.63-1.5-1.35-1.84-3.05-1.45-3.34-4.97-5.41-7.19-1.15-1.23,1.13-1.97,1.44-3.26-1.65.04-2.67.78-4.07-1.25-3.31-4.79-5.16-10.32-8.44-15.07-.56-.81-.51-1.75-.29-2.79.42-1.96-.76-4.18-2.14-4.44-2.78-.52-3.76-2.75-5.58-4.15-1.79-1.37-2.72-3.06-3.19-5.21-.6-2.76-2.39-4.47-5.45-5.27-2.17,9.22-4.25,18.34-6.46,27.43-1.45,5.98-3.8,11.75-4.46,17.9-.63,5.84-2.65,11.31-4.04,16.95-2.25,9.12-3.97,18.4-6.41,27.43-2.49,9.2-2.71,18.91-6.56,27.74-.44,1.02-.14,1.85-.21,2.76-.16,2.2,0,4.62-2.28,6.09-.36.23-.87.81-.8,1.08.87,2.87-1,3.8-3.13,4.5-3.13,1.04-6.33,1.61-9.55.51-1.13-.39-1-1.45-.69-2.5.57-1.9.03-4.12-1.43-4.8-2.1-.97-1.9-2.65-2.55-4.17-.81-1.9-1.47-3.49.5-5.21,2.05-1.79-.21-3.96.1-6.02.3-1.99.45-4.29-2.69-4.78-1.71-.27-1.43-1.54-.3-2.44.88-.7,1.9-1.21,3.25-2.05-1.84-1.63-1.81-4.19-4.52-5.29-1.8-.73-1.89-5.43-.65-7.21,1.63-2.36,1.96-6.39-.16-8.44-1.6-1.55-.68-2.44-.65-3.93.08-4.24,2.32-8.93-2.19-12.61-1.14-.93-1.12-3.25-2.51-4.54-.86-.8-.41-1.78.26-2.6.61-.74,1.15-1.56,1.84-2.22,1.26-1.22,1.78-2.28-.03-3.5-1.21-.82-1.9-2.47-.75-3.31,3.37-2.45-1.06-1.85-.98-3.12.59-.76,1.24-1.68,1.98-2.52,1.4-1.58-.45-1.78-1.02-2.52l.75-2.42c1.34-.41,2.54.43,3.83.42,1.07,0,2.08-.45,2.23-1.51.74-5.21,4.66-7.51,8.68-9.76.25-.14.37-.51.56-.8-.11-1.95-4.1-.85-3.12-4.03.21-.7-5.22-1.19-6.58.46-1.25,1.52-2.55,1.02-3.85,1.31,2.84,1.98,5.2-2.06,8.4-.7-2.83,3.88-6.84,6.15-9.91,9.36-.62.65-2.59,1-2.77-.57-.39-3.48-2.83-6.08-3.89-9.95,4.51,1.25,8.11,0,11.36-2.58.47-.37,1.21-.61,1.81-.59,5.26.17,8.91-3.65,13.39-5.37.76-.29,1.13-1.11.79-2.04-1.05-.9-1.78.22-2.62.46-2.39.69-4.79,1.79-5.87-1.82-.35-1.19-1.51-.98-2.47-1.03-1.35-.07-2.83.64-4.15-.64,1.49-1.28,3.63-.48,4.95-1.84.37-1.03-.43-1.84-.59-2.79-.28-1.69-.18-2.88,1.9-3.04.68-.05,1.27-.55,1.06-1.34-.2-.74-.9-1.03-1.56-.7-1.91.94-3.43.08-4.96-.86-.58-1.63,2.06-2.23,1.13-3.95-.99-.9-3.1.53-2.93.07,1.53-3.97-2.1-1.78-3.01-2.69-.22-.22-.55-.34-.82-.51-2.05-1.31-2.99-3.84-4.82-5.05-1.55-1.03-4.4.89-6.06-1.64-.2-.3-2.57-1.58-2.22,1.11.03.23-.7.77-1.1.8-3.84.29-4.3,3.2-5.03,6.1-2.08,8.33-4.32,16.61-6.45,24.93-3.29,12.88-6.36,25.81-9.87,38.63-2.73,9.99-4.55,20.22-8.01,30.04-1.17,3.33-1.38,6.99-2.05,10.49-.24,1.27-.44,2.57-.84,3.8-1.39,4.3-1.56,4.45-6.05,3.96-1.22-.13-2.22.29-3.32.51-1.61.32-3.37.73-4.76-.18-1.68-1.11-3.02-.65-4.55.07-.82.39-1.91,1.34-2.6.26-.85-1.32-2.36-2.37-2.27-4.18.05-1.15.87-1.68,1.93-1.84,1.33-.19,2.53.29,3.79.66,3.5,1.02,4.31.77,7.41-1.73.02-.36-.16-.57-.55-.57-1.43,0-3.44,1.95-4.11-.41-.45-1.58,1.8-1.85,3.08-2.42,1.54-.67,3.76-.73,3.42-3.31-.37-2.85-2.24-4.76-4.97-5-.95-.08-2.26.36-2.67-.61-1.46-3.49-3.02-2.52-4.83-.36-.5.59-1.21.48-1.68-.07-.37-.43-.05-.91.3-1.26,1.38-1.35,2.6-3.39,4.69-3.15,4.31.49,6.46-2.24,8.76-5.14-4.44-4.2-4.22-9.55-3.55-15,.06-.46.49-1.22.37-1.32-3.21-2.38-1.93-6.19-2.99-9.23-.73-2.09-1.98-1.07-3.06-.36-2.61,1.72-2.59,1.74-5.4.99,4.55-2.32,4.79-5.93,4.22-10.24-.35-2.66-1.8-5.61.26-8.28-1.99-2.45-1.43-5.97-3.11-8.33-1.83-2.57.18-4.54.06-6.77-.13-2.27-3.15-4.18-.85-6.74.47-.52.85-1.23-.24-1.3-1.97-.12-1.7-.96-.93-2.18.16-.25.23-.67.14-.94-.4-1.13-1.77-2.28-.15-3.37,1.3-.87,2.83.59,4.4-.25.71-.38.59,1.21.81,1.92.4,1.26,1.56,1.64,2.58,2.03,1.79.68,1.43-1.08,2.01-1.88,1.53-2.09,3.81-2.58,6.18-2.75.53,1.4-.32,1.72-1.01,2.1-1.23.69-3,1-1.42,3.11.62.82-.43,1.35-1.06,1.82-.9.68-.83,1.7.18,1.71,3.95.03.9,3.71,2.65,4.79-.59,5.67.06,6.68,5.31,8.09.47.13.96.15,1.43.21-2.94.21-4.95,1.6-5.98,4.43.64.13,1.14.15,1.57.34.23.1.49.52.46.74-.41,2.51-2.9,3.87-7.75,4.21,1.13,1.53,2.61,1.68,4.24,1.51,2.06-.21,3.92-.09,4.08,2.69.04.72.73,1.21,1.37,1.08,2.19-.48,4.55-.22,6.6-1.29,1.28-.66,1.64-1.89,1.6-3.29-.04-1.31-.59-2.15-1.93-2.34-.72-.1-1.65.38-1.89-.55.32-3.14,3.54-2.44,4.95-3.83-.42-1.74-3.24-.91-2.71-2.39.79-2.18-.27-1.77-1.46-1.58-.79.13-1.56.39-2.34.6.56-1.82,2.87-3.23.94-5.66-.66-.83.96-.87,1.55-1.25,1.05-.68,1.79-1.59,1.23-2.83-.55-1.21-1.62-.7-2.52-.38-.92.33-1.64.07-2.03-.78-.39-.84.06-1.61.57-2.24.98-1.22,2.66-1.6,3.27-3.43.52-1.58,1.86-2.62,2.57.2.22.87,1.01,1.39,1.87.77.59-.42.4-1.22.07-1.79-.4-.7-1.03-1.95-1.38-1.89-3.64.63-4.6-3.41-7.43-4.1-2.2-.54-1.42-1.63-.46-2.74,2.44-2.84,2.4-3.09-.85-5.04,3.87-.29,2.4-5.59,6.59-5.92-1.75-1.86-2.63-3.15-1.66-5.45,1.17-2.74-.16-4.17-3.47-4.79-1.29-.24-2.48-.67-3.9-1.55,1.41-2.26,2.44-4.66,3.83-6.97,1.68-2.8,2.55-6.1,3.61-9.24.43-1.29-.57-1.76-1.69-1.55-1.11.21-2.34.41-3.23,1.02-3.46,2.38-7.7,3.16-11.12,5.63-2.92,2.11-6.25,3.45-9.7,4.41-1.45.4-2.75.94-3.8,2.04-1.22,1.29-2.36,2.61.08,3.75,1.49.7,2.05,2.05,2.6,3.37.52,1.25.16,3.09,2.41,2.92.17-.01.37.46.55.71-3.18,2.21.64,4.69-.26,7.01-.29.73-1.33,1.07-1.01,2.2.93.82,2.04-.61,3.05.06.09.25.35.59.27.77-1.03,2.14-2.86,4.43,1.41,5.17,1.29.22.44,1.22.53,1.91.16,1.13-.41,1.49-1.29,1.56-1.59.12-3.08,1-4.59.72-1.66-3.49-1.86-7.2-2.6-10.79-.74-3.6-1.14-7.27-1.75-11.24-4.84-.13-9.01,2.45-13.29,4.43-6.63,3.06-13.1,6.45-19.66,9.67-.87.43-1.86,1.14-2.68,1.01-1.79-.3-3.95,1.46-5.39-.81-1.71-2.68-2.29-5.58-1.41-8.67.17-.6.78-1.04,1.53-1,.72.03,1.21.36,1.38,1.1.17.77-.23,1.65.54,2.44,2.66,0,4.31-2.84,6.86-2.97,2.91-.14,4.54-2.92,6.54-3.37,3.75-.84,6.17-3.83,9.92-4.68,2.12-.48,4.54-1.8,6.75-2.85.87-.41,1.47-.88,2.47-.7.67.12,1.71-.31,1.64-.73-.57-3.41,2.5-3.53,4.21-4.9,1.05-.84,1.88-1.98,1.34-3.38-.44-1.15-.91-2.57-2.7-2.19-.46.1-.9.33-1.32-.17-1.96-2.35-1.96-2.33-4.45-.82-.42.25-.91.29-1.32-.12q2.48-4.11-1.59-7.63c-.72-.63-1.56-1.34-1.88-2.19-1.94-5.05-6.76-5.04-10.84-6.17-1.26-.35-3.35-.18-1.97,2.33.51.94-.22,1.24-.86,1.21-2.2-.1-3.24,1.23-4.69,2.71-11.56,11.78-19.89,26.02-29.89,38.98-6.15,7.97-11.98,16.19-18.04,24.23-1.23,1.63-2.28,3.66-4.71,3.94-.81-.14-1.62-.29-2.43-.43-1.97-.31-2.37-1.31-1.51-3.09,1.49-3.06,2.66-6.26,3.9-9.43.48-1.23.87-2.18.76-3.55-.16-1.98.66-3.87,1.92-5.4,1.63-1.97,3.77-3.53,2.31-6.71-.31-.66,1.48-2.08,1.79-3.28,1.52-5.93,4.64-11.2,6.81-16.85.17-.45.41-.9.47-1.37.11-.8.19-1.71-.73-2.1-.67-.28-1.22.16-1.64.7-.56.72-1.03,1.58-2.67,1.72,2.53-3.31,4.07-6.72,7.08-9.04.92-.71,1.94-1.62,1.91-2.73-.15-5.3,3.3-9.65,3.69-14.8.17-2.25.67-4.51,2.56-6.1.83-.69.97-1.63.97-2.64,0-2.63-.71-5.4,2.38-7.16.85-.48.46-2.07-.1-3.06-1.55-.77-2.33,1.54-4.06.79-.88-.38-.87.75-.61,1.67.35,1.23-1.07,4.61-1.97,4.99-5.29,2.19-8.38,6.68-11.81,10.93,1.67.98,2.65-.88,4.34-.69-2.01,2.4-4.2,4.13-7.11,4.85-.61.15-1.74.31-1.75.5-.14,2.99-2.59,5.28-2.62,8.14-.01,1.3-.17,2.3-1.02,2.96-4.6,3.62-7.11,9.82-13.57,10.63-.29,1.93,1.95,1.46,1.84,3.28-3.85-.19-5.63,1.95-5.76,5.75-.03.97-.66,1.99-1.81,1.99-2.01,0-2.95,1.91-4.72,2.36-2.06.52-4.09,1.28-1.4,3.72.18.16.26.73.13.91-1.33,1.82-2.7,3.56-3.69,5.66-1.04,2.2-3.35,2.58-5.77,2.78-3.41.28-4.82,2.52-4,6.06.31,1.33.27,2.21-.88,2.88-1.24.72-.98,2.33-1.96,3.2-3.02-2.87-4.49-2.66-6.73.98,1.26.96,3.24.41,4.23,1.96-.06,1.41-1.23,1.74-2.23,2.21-2.21,1.04-4.63,1.81-4.04,5.16.17.95-.84,1.87-1.73,2.17-2.83.96-4.25,4.07-7.3,4.67-.97.19-1.39,1.34-.83,1.89,2.49,2.43.21,3.51-1.36,4.12-1.66.65-3.04.75-2.37,3.13.27.95-1.01,1.68-1.89,1.97-2.13.71-3.03,2.93-4.99,3.82-.61.28-.99.8-.55,1.56,1.47,2.54-.39,3.02-2.15,4.13-4.6,2.9-8.61,6.58-12.37,10.52-.49.52-.92,1.12-.33,1.64,2.78,2.4-.12,3.44-1.27,4.45-1.79,1.58-4.1,2.56-5.76,4.82,1.75.95,3.16-.58,4.63-.32l-.07-.08c-1.51,2.11-3.94,2.74-6.11,3.79-1.9.92-3.8,1.84-5.65,2.84-.87.47-2,1.59-1.34,2.25,2.21,2.18.08,2.93-1.06,3.93-1.83,1.61-3.81,3.01-6.08,4.01-1.77.78-3.55,1.64-4.42,3.57.92,1.08,2.27-.6,3.34,1.02-.28,1.36-.69,3.15-2.39,4.05-6.1,3.25-9.52,9.09-14.23,14.19,1.32,1.17,3.5.04,4.26,2.05-10,7.94-20.07,16.04-30.65,23.25,1.55,2.78,3.21.61,4.36,1.52.02.17.09.43.04.45-4.69,2.37-8.02,6.37-11.97,10.65-.4-2.66.87-4.07,1.58-5.52,1.06-2.17.94-3.92-.85-5.54,3.59-.94,6.35-2.7,7.36-7.28-4.33,1.35-5.88,4.29-7.26,7.39-1.53.88-3.6,1.58-1.4,3.82.69.7.58,1.46.24,2.24-.98,2.26-2.19,4.37-4.2,5.88-.63.47-1.39,1-2.22.57-1.19-.62.63-1.78-.42-2.54-1.4.63-2.19,1.87-2.79,3.18-1.1,2.39-2.76,4.39-4.19,6.55-1.3,1.95-4,3.55-1.61,6.65.76.99-.67,2.36-1.47,3.37-2.27,2.84-5.43,4.54-8.46,6.09.09,1.19.8,1.24,1.4,1.42,1.72.53,1.92,1.51.93,2.93-1.31,1.88-2.73,3.58-4.77,4.79-1.99,1.18-4.1,2.45-1.61,5.24.95,1.06.49,2.48-.27,3.64-2.12,3.27-4.24,6.55-6.37,9.81-.87,1.33-2.24,1.77-3.7,2.13-2.19.53-3.96,1.73-4.51,3.99-.93,3.8-3.53,6.49-5.8,9.43-.67.88-2.35,1.42-1.06,3.18.65.89-.47,1.4-1.23,1.59-2.23.58-3.27,2.32-3.52,4.26-.58,4.49-2.94,7.66-6.49,10.2-1.93,1.38-3.39,3.64-3.51,5.66-.3,5.2-4.17,6.97-7.62,9.24-1.47.97-3.15,1.63-5.01,2.57-1.23-2.21-.45-4.02,1.15-5.46,3.49-3.14,5.66-6.85,6.89-11.47,1.06-3.96,4.61-6.58,7.18-9.72,4.5-5.5,8.69-11.2,10.15-18.4.16-.78.56-1.52.91-2.25,4.65-9.67,9.23-19.38,16.14-27.73,1.14-1.38,2.1-2.89,2.66-4.63.88-2.73,2.68-4.84,4.89-6.55,1.45-1.13,2.58-2.44,3.52-3.98,2.87-4.71,5.76-9.41,8.63-14.13.84-1.38,1.81-2.74,1.77-4.47-.02-.88.27-1.62.93-2.15,5.28-4.16,7.45-10.5,11.13-15.78.46-.66,1.16-1.47.6-2.2-2.4-3.12.04-5.15,1.63-7.23,4.12-5.38,8.22-10.71,12.98-15.66,4.12-4.28,7.48-9.75,10.45-15.13,3.13-5.66,7.43-10.63,9.66-16.85.66-1.84,2.83-3.1,4.03-4.82.79-1.13,2.52-2.55,0-3.93-1.35-.74-.3-1.58.23-2.35,1.83-2.69,3.87-5.21,6.11-7.57,1.53-1.61,3.54-2.84,3.49-5.54-.02-.95,1.13-1.51,1.95-2.05,2.97-1.96,4.06-5.09,5.03-8.26.19-.61.1-1.37.66-1.74,3.73-2.46,4.62-6.96,7.35-10.17,1.73-2.03,2.8-4.61,3.75-7.24,1.25-3.43,2.99-6.81,5.16-9.74,2.01-2.71,3.71-5.52,5.15-8.53.28-.58.59-1.19,1.05-1.63,2.63-2.51,3.97-5.75,5.49-8.98,3.37-7.13,7.22-14.09,11.33-20.76,5.01-8.12,8.68-16.93,13.94-24.86.64-.96,1.48-1.94.41-3.03-1.14-1.16-2.11,0-3.01.52-4.79,2.74-9.58,5.5-14.32,8.32-7.95,4.73-15.87,9.53-23.82,14.27-.9.54-1.74,1.63-3.49.45,4.08-4.14,7.06-9.15,12.12-12.23.55-.34,1.42-.7,1.5-1.17.82-4.53,5.08-6.47,7.64-9.53,3.98-4.74,7.54-10.06,12.4-13.94,4.56-3.65,7.54-8.37,10.86-12.91.03-.34.07-.7.1-1.05.32-1.64,1.72-2.18,2.96-2.81,3.19-1.63,5.53-4.11,7.32-7.17.62,1.6,1.62,2.46,3.34,1.52,1.7-.92,3.55-1.31,3.91-4.07.33-2.49,3.86.85,5.01-1.59.06-.14.31-.3.28-.35-1.28-2.49.96-2.79,2.24-3.02,1.62-.29,1.92-1.58,2.77-2.46,1.17-1.2,1.5-3.12,4.32-2.22,1.56.5,4.18-1.87,3.96-4.1-.31-3.06.92-5.6,1.77-8.39-4.21.87-6.86,3.41-9.4,6.45-4.46,5.36-9.27,10.43-13.95,15.61-1.19,1.32-2.31,2.79-4.37,2.72,7.31-8.01,13.98-16.56,21.74-24.2,4.92-4.84,8.99-10.53,13.68-16.13-4.57-1.82-9.09-2.79-14.13-3.86.13,1.98,1.48,3.69-.17,5.48-1.34,1.46-2.91,2.19-4.55,2.42-1.72.24-2.75,1.73-4.44,1.83-.62.04-1.54.36-1.47,1.04.56,5.43-5.37,4.29-7.3,7.24-.57.88-1.79-.12-2.69-.37-2.05-.57-3.85.02-5.52,1.18-.6.42-1.59.71-1.09,1.81,1.25,2.74-.64,3.18-2.52,3.05-2.37-.16-3.26,1.16-4.47,2.86-1.47,2.06-2.96,4.92-6.6,2.95-1.51-.81-2.34.2-2.34,1.93,0,2.57-1.58,3.62-3.88,3.97-.74-1.55,1.81-1.12.89-2.49-2.95-.34-3.1-.33-3.83,1.92-.75,2.33-.94,5.17-4.64,2.84-1.32-.83-.37,2.72-2.44,1.63-1.01-.53-2.24-.35-3.34.05-.87.31-1.34,1.03-1.16,1.9.63,3.02-1.18,3.58-3.55,4.57-2.9,1.21-5.72,1.86-8.74,2.53-3.42.75-7.53,2.93-8.75,7.28-.49,1.75-1.58,2.19-2.84,1.51-3.23-1.75-4.89-.11-6.04,2.57-2.54,5.89-7.43,8.54-13.28,9.99-1.59.4-2.96,1.24-3.84,2.71-1.41,2.36-4.11,3.03-6.09,4.66-1,.82-1.72.04-2.19-.99-.34-.76-.94-1.42-1.87-1.21-.99.22-.96,1.01-.94,1.9.07,2.33-1.28,3.28-3.31,4.51-4.07,2.47-8.18,4.28-12.89,4.88-1.22.16-2.89.71-1.03,2.44-1.44,1.54-2.65,3.43-4.37,4.53-2.32,1.49-4.93,2.6-6.68,4.79-1.56,1.96-3.67-.74-4.82.67-.98,1.21-1.26,3.3-3.04,3.48-4.08.4-6.41,3.06-8.98,5.79-1.7,1.8-3.63,3.76-6.39,4.13-1.33.18-1.99.17-.91-1.48.62-.95-.74-1.02-1.51-1.12-3.25-.46-3.8,2.63-5.82,3.9,1.52,1.64,3.06-.85,4.52.97-2.32,1.36-4.4,2.99-7.1,3.8-2.52.75-4.68,1.61-6.51,4.28-1.62,2.37-4.78,4.05-6.95,6.41-.45.49-1.22.54-1.83.25-1.46-.7-2.05.13-2.6,1.28-1.11,2.32-3.26,3.7-5.4,4.61-3.06,1.3-5.19,3.52-7.52,5.69-2.39,2.24-4.66,4.9-8.58,4.55-1.48-.13-2.35,1.07-2.26,2.59.12,1.9-.62,3.16-2.44,3.68-1.05.31-1.37,1.35-2.13,1.9-3.07,2.2-5.55,4.94-9.14,6.77-4.3,2.18-7.85,6.21-10.77,10.37-3.21,4.58-6.53,8.75-12.6,9.89-2.64.5-5.17,2.16-5.29,5.57-.03.78-.4,1.66.57,2.12.67.32,1.27-.06,1.8-.44,2.1-1.51,4.09-3.2,6.82-3.61-.95,3.38-5.62,7.58-8.75,7.3-2.66-.24-4.41.81-5.9,2.61-3.98,4.8-8.95,8.27-13.99,11.9-6.31,4.55-12.72,8.86-19.27,13.05-4.64,2.97-8.77,6.73-13.96,8.83-.59.24-1.17.62-1.62,1.07-7.43,7.43-16.44,12.66-25.16,18.31-1.76,1.14-3.42,2.48-5.01,3.86-3.8,3.32-7.79,6.27-12.28,8.69-4.41,2.37-8.35,5.6-12.54,8.4-1.32.89-2.55,2.01-4.25,2.34-1.07-1.76,1.27-2.54.94-3.97-.26,0-.61-.11-.83.02-2.59,1.45-4.7,3.31-6.17,6.02-1.91,3.52-5.45,5.61-8.49,7.93-4.71,3.59-9.59,7.1-15.17,9.34-.93.37-1.78.66-2.4,1.5-1.84,2.5-4.21,4.51-6.37,6.71-1.85,1.89-1.79,1.93.99,3.41.26.14.43.46.64.7-.08.66-.15,1.33-.23,1.99.2,1.54-.51,2.47-1.95,2.91-3.21.97-6.6,1-9.76,2.43-1.98.89-5.09-2.39-4.53-4.45.31-1.12,1.46-1.27,2.31-1.55,3.76-1.27,5.94-3.38,6.85-7.65.62-2.9,3.27-5.38,6.32-7.02,8.37-4.5,15.43-10.58,20.96-18.37,1.65-2.32,4.21-3.52,6.45-5.12,7.91-5.67,15.83-11.33,21.75-19.26,1.37-1.84,3.1-3.39,5.17-4.38,7.34-3.49,12.51-9.72,18.7-14.67.61-.49,1.35-1.25,1.4-1.93.36-4.86,4.53-6.45,7.57-8.94,5.14-4.22,11.05-7.36,16.27-11.53,8.9-7.1,18.03-14.09,25.85-22.24,6.54-6.82,14.03-12.41,20.76-18.93,5.95-5.77,11.85-11.75,19.25-16.01,6.02-3.47,10.55-9.04,16.21-13.13,4.33-3.13,8.17-6.94,12.52-10.02,6.6-4.67,12.25-10.42,18.45-15.54,6.25-5.16,12.38-10.45,18.63-15.61,9.71-8.01,19.52-15.91,28.8-24.43,2.45-2.25,5.06-4.37,7.86-6.29,2.59-1.78,5.07-4.02,7.28-6.3,5.43-5.63,11.78-10.14,17.65-15.21,11.5-9.92,23.33-19.44,34.67-29.56,7.74-6.9,15.91-13.31,23.85-19.99,1.69-1.42,3.2-3.07,5.46-5.27-5.76-.69-10.45-.55-15.11.73-.93.26-1.9,1-2.74.87-5.78-.93-11.12,1.42-16.68,1.96-2.44.24-4,2.4-6.51,2.27-2.43-.13-5.27-.79-7.21.2-2.61,1.33-4.81,1.39-7.33.55l.08.07c4.78-2.59,10.16-2.97,15.33-4,3.8-.76,7.51-1.97,11.45-2.25,1.67-.12,3.41-1.13,4.86-2.12,3.92-2.66,8.54-3.99,12.41-6.69,3.91-2.73,8.68-2.06,12.92-3.47.48-.16,1.01,0,1.24.48.8,1.66,1.87,1.23,3.23.69,5.41-2.17,10.87-4.22,16.32-6.31.91-.35,1.81-.84,2.75-.94,8.33-.87,16.32-3.4,24.33-5.55,5.01-1.34,10.18-2.94,14.89-5.42,1.88-.99,4.24-1.1,5.87-2.02,4.01-2.27,9.7-1.06,12.4-6.01.31-.57,1.37-.88,2.13-1.02,4.53-.82,8.19-3.58,12.27-5.4,1.36-.6,2.65-1.23,4.17-1.13,2.3.15,4.55-.22,6.76-.73,4.74-1.11,8.94-.32,12.65,3.01,1.07.96,2.83,3.08,3.97,1.22,1.27-2.06-1.4-2.71-2.89-3.39-1.51-.69-3.24-1.07-2.19-3.36l-.08.09c4.14,0,7.85,2.06,8.6,5.66.79,3.76,4.37,8.68-1.47,11.77.44,1.07,1.69.22,2.03,1.24-.11,1.53-2.44.66-2.61,2.36-.17,1.71,1.41,1.96,2.03,2.93,1.53,2.4-.19,4.85-1.04,6.86-.75,1.77-.95,2.32.45,3.78,1.26,1.31,1.79,3.28-.52,4.94-1.68,1.21-1.27,3.19.67,4.22,3.08,1.63,6.6,1.57,9.94,2.19.74.14,1.06-.48,1.31-1.14.64-1.68,1.96-1.25,3.24-1,1.41.28.08,2.46,1.5,2.34.74-.06,1.14-1.38,2.41-1.19,3.59.56,6.87,1.79,9.76,4.01,2.3,1.77,4.62,3.53,6.89,5.33,1.66,1.31,3.26,2.63,3.29,5.09.02,1.88,1.02,2.61,2.92,1.83,1.55-.63,3.2-.52,4.8-.19.75.16,1.78.37,1.6,1.42-.15.89-1.05,1.18-1.9,1.12-.77-.05-1.48-.68-2.68.01,2.7,1.6,5.35,1.59,8.02,1.01,4.77-1.04,9.53-2.08,14.45-1.93,1.51.05,2.68-.57,3.97-1.43,1.88-1.26,2.93-.57,2.99,1.83.03,1.26.87,1.31,1.46,1.37,4.63.47,8.97-.27,12.58-3.53.48-.43.91-1.11,1.46-1.23,4.28-.94,6.75-4.49,10.06-6.81,3.45-2.41,7.38-3.95,10.91-6.29,2.32-1.54,5.34-3.12,8.59-2.94.32.02.73.06.96-.1,4.56-3.26,9.7-1.34,14.58-1.56,2.13-.1,4.21-.35,6.27-.74,2.56-.48,4.21-2.5,3.27-4.86-1.84-4.6,1.86-6.91,3.61-9.92,1.19-2.04,1.95-2.65,2.11-5.84.02-.31.1-.87.18-.88,3.72-.29,2.14-4.78,4.72-5.93,1.83-.81-.32-2.78,1.47-4.07,3.44-2.49,5.76-6.28,9.96-8.1,1.89-.82,3.52-1.34,5.49-1.13,3.54.37,7.06-.62,10.68.27,3.39.84,7.17.38,9.6,3.66,4.41-.34,6.98,4.77,11.57,3.89,2.57,2.24,6.43,1.68,8.93,4.11.32.32.88.61,1.3.57,5.22-.45,9.4,4.07,14.75,3.06.7-.13,1.58.31,2.29.68,1.68.87,3.08,2.15,5.36,1.33,1.66-.59,2.82,2.79,5.15,1.12.98-.7,1.5.9,2.41,1.18,3.53,1.06,7.04,2.24,11.43,3.65-2.35.89-3.19,3.73-5.65,1.23-.35-.35-1.45-.48-1.82-.2-2.11,1.61-4.28.08-6.4.3-9.13.95-18.25-1.18-27.46.14-3.84.55-8-.77-12.07-.34-5.45.58-10.93-.35-16.41.29-2.53.29-5.17-.3-7.75-.54-3.66-.34-7.04.49-10.22,3.02,4.93,0,9.87.15,14.8-.03,8.76-.33,17.52-.25,26.29-.6,13.26-.53,26.58.1,39.87.29,2.98.04,5.73-.38,8.45-1.79,2.85-1.47,5.89-2.09,9.1-.52,1.52.75,3.36.85,5.21,1.28-.49-1.86-2.76-2.25-2.57-4.51,5.54-.77,11.18-.09,16.76-.4.63-1.53-.67-1.54-1.41-1.96-.78-.44-1.37-.99-.8-1.92.5-.82,1.25-1.02,2.04-.36,2.25,1.89,5.52,1.86,7.59,4.17.74.82,2.02.94,3.17,1.08,4.83.56,9.65,1.59,14.49,1.67,8.01.14,15.72,2.22,23.63,2.93,13.9,1.25,27.79,2.72,41.61,4.58,6.18.83,12.6.96,18.38,3.85,1.38.69,2.57-.05,3.74-.45,3.68-1.27,7.34-2.6,10.94-4.08,2-.82,4.04-1.31,5.28-3.79,1.14-2.27,4.61-2.04,6.99-3.91-2.96-2.56-6.6-3.75-9.96-4.31-17.75-2.93-35.58-5.4-53.38-8.03-9.47-1.4-18.9-3.08-28.4-4.16-6.45-.73-12.81-1.79-19.17-2.99-3.27-.62-6.61-1.27-10.05-.01-1.77.65-3.86.2-5.62-.89-4.05-2.52-8.33-2.46-13.01-2.25-4.11.18-8.74.53-12.58-2.02-1.62-1.08-3.28-1.34-5.1-1.12-1.43.18-2.86.66-4.04-.73-.26-.3-1.09-.53-1.35-.35-2.95,2.02-5.25-.44-7.77-1.11-4.83-1.28-9.71-1.64-14.66-1.17-.86.08-1.39-.21-2.14-.53-2.94-1.25-5.96-2.47-9.29-1.5-.97.28-2.01.47-2.63-.53-.73-1.2-.61-2.42.25-3.63.73-1.03,2.42-1.16,2.56-3.09-7.48-.97-14.83-2.59-22.19-4.14-.6-.13-1.32.03-1.91.25-2.29.87-3.16-.29-2.93-2.28.27-2.34-.54-3.04-2.72-2.54-.76.18-1.7.58-2.07-.48-.32-.91.29-1.52,1.11-1.88.74-.33,1.53-.6,1.56-1.62-.29-.84-.97-.66-1.6-.63-1.11.06-2.16.04-1.01-1.45.29-.38.82-.71.52-1.19-.43-.71-1.15-.44-1.72-.16-.72.36-1.39.84-2.07,1.27-1.7,1.08-3.35,2.15-5.07-.06-1-1.29-2,.79-3.41-.06.8-2.04,2.37-3.17,4.36-3.94,4.27-1.65,7.93-4.07,11.3-7.28,3.33-3.17,7.7-5.1,11.61-7.56,3.7-2.33,7.77-3.96,11.37-6.25,4.41-2.82,9.35-3.43,14.04-5,1.94-.65,4.03-.87,5.96-1.83,2.5-1.24,5.33-1.3,8.06-1.7,3.08-.45,5.8-2.58,9.35-1.18,1.23.49,3.23-1.35,4.96-1.62,1.77-.28,4.49-2.63,5.03,1.55.04.3.72.59,1.15.74,9.76,3.47,19.7,3.71,29.75,1.48.97-.22,1.97-.57,1.95-1.79-.01-.93-.81-1.35-1.57-1.67-4.05-1.68-8.13-3.28-12.15-5.04-1.26-.55-3.26-1.03-2.91-2.75.3-1.46,2.19-1.43,3.59-1.85,2.07-.62,2.96-.2,4.6,1.36,1.68,1.61,4.64,2.08,7.04,3.05,4.18,1.7,8.18,4,12.8,4.45l-.13-.12c4.09,3.35,9.2,4.47,13.96,6.34,7.22,2.84,14.44,5.69,21.66,8.51,1.35.53,2.73,1.01,4.12,1.43,1.32.4,3.12.12,2.98,2.36-.14,2.3-1.51,3.04-3.61,2.85l.1.09Zm-45.26,245.78c.18-.24.36-.48.54-.72-8.96-11.28-17.91-22.57-26.87-33.84-1.34-1.69-2.81-3.35-1.34-5.63,1.35-2.08,3.33-1.59,5.27-1.08.78.21,1.56.44,2.34.69,5.24,1.72,10.45,3.53,15.72,5.17,16.74,5.21,33.25,11.1,49.92,16.49,18.07,5.84,36.12,11.73,54.13,17.75,28.33,9.46,56.73,18.71,85.11,28.04,3.09,1.02,6.18,2.01,9.29,2.96.64.19,1.38-.03,1.56-.75.09-.36-.18-1.08-.48-1.22-2.54-1.15-4.38-3.88-6.88-4.37-3.12-.61-4.98-2.44-6.77-4.46-3.93-4.43-10.73-4.16-14.32-9.04-2.9.03-4.46-2.25-6.32-3.86-1.14-.98-2.23-1.76-3.65-2.25-3.42-1.17-6.58-2.53-9.1-5.57-1.93-2.32-4.88-4.2-7.74-5.24-4.11-1.5-7.43-4.15-10.9-6.5-1.85-1.25-3.45-2.84-5.66-3.56-1.08-.35-1.86-1.24-2.76-1.82-2.76-1.76-4.56-4.98-7.72-5.85-4.78-1.32-7.85-5.56-12.58-6.81-.28-.07-.59-.36-.73-.62-1.37-2.66-4.23-3.38-6.4-5-3.32-2.47-6.79-4.68-10.41-6.71-5.78-3.24-10.95-7.49-16.89-10.5-1-.5-1.99-1.14-2.77-1.92-1.96-1.97-4.26-3.42-6.66-4.77-3.95-2.23-7.58-4.95-11.3-7.53-3.78-2.62-7.31-5.58-11.14-8.15-4.02-2.69-8.15-5.2-12.34-7.53-4.66-2.6-8.44-6.5-13.48-8.56-1.73-.7-2.84-1.01-4.36.13-3.14,2.35-6.97,2.73-10.63,2.72-4.91,0-9.53-2.26-13.62-4.49-3.31-1.8-7.39-2.21-10.12-5.22-.61-.67-2.15-.47-3.26-.69-.95-.19-2.23-.1-2.78-.69-4.14-4.42-10.65-2.55-15.21-5.83-.76-.55-1.87.2-2.81.32-3.98.54-7.89,1.98-12.02.89-8.56-2.25-16.11-6.32-23.12-11.72-3.74-2.88-8.37-4.95-13.09-3.18-3.89,1.45-7.52,2.53-11.74,2.11-3.13-.32-3.95,1.17-3.12,4.28.42,1.57.97,3.1,1.46,4.65,1.83,5.72,3.25,11.56,4.91,17.33,1.52,5.27,4.05,10.25,6,15.41,2.59,6.84,5.17,13.68,7.54,20.6,1.06,3.09-.61,4.72-3.76,3.98-1.76-.41-3.3-1.28-4.73-2.42-3.55-2.84-7.13-5.64-10.73-8.41-15.45-11.85-30.93-23.67-46.37-35.53-7.45-5.73-14.83-11.57-22.27-17.31-3.23-2.49-4.98-1.84-5.6,2.1-.68,4.34-2.04,8.57-2.63,12.88-1.44,10.48-3.83,20.75-5.81,31.12-.55,2.87-1.1,5.76-1.35,8.66-.18,2.05-.61,4.43,1.29,5.95,5.35,4.29,11.58,7.06,18.36,6.62,4.86-.31,9.42,0,13.83,1.61,7.37,2.69,14.94,3,22.59,2.41,1.81-.14,3.52-.17,5.3.12,7.21,1.19,13.71,3.9,19.18,8.83,5.19,4.67,10.48,9.21,16.19,13.24,2.93,2.07,6.1,3.62,9.62,4.5,5.7,1.41,11.59,1.34,17.31,2.39,9.14,1.67,17.84,4.86,26.38,8.46,6.06,2.55,12.33,3.99,18.95,3.71,9.38-.4,18.76-.81,27.87,2.21,1.22.4,2.48.68,3.72,1.01Zm-550.08-33.36c4.9.68,7.91-1.94,10.21-6.07.65-1.18,1.59-2.37,2.45-3.44,2.3-2.87,4.6-6.03,8.89-6.12,1.46-.03,2.12-1.21,3.11-2.01,2.46-1.99,2.73-5.48,5.92-7.19,2.48-1.32,5.08-2.64,7.43-4.28.88-.61,2.32-.55,2.59-1.95,1.24-6.27,6.77-7.42,11.44-9.55,3.18-1.46,6.63-2.36,6.45-7.14-.06-1.67.96-3.97,3.15-4.54,5.46-1.41,8.42-5.75,11.76-9.69,1.51-1.78,3.15-3.22,5.73-3.12,1.52.06,3.02-.36,3.69-1.88,1.98-4.44,6.59-6.64,9-10.71.37-.63,1.24-1.24,1.96-1.34,3.89-.52,5.53-3.5,7.21-6.42.4-.7.5-1.61,1.58-1.49,4.48.5,5.65-4.43,9.13-5.58.17-.06.36-.64.26-.84-1.54-2.93.74-6.11-.52-8.86-3.04-.52-4.35,3.01-7.24,2.9-.48-.02-1.05.57-.84.99,1.78,3.55-1.53,3.36-3.11,3.87-3.29,1.07-6.84,2.73-8.26,5.29-2.48,4.45-5.86,6.44-10.41,7.57-3.42.84-3.66,1.35-3.81,4.96-.03.64.04,1.33-.19,1.89-.13.33-.74.57-1.17.64-.51.09-.9-.23-.94-.81-.06-.68.72-1.62-1.12-2.04.18,2.94-2.39,3.77-4.12,5.33-.83.75-2.35,1.04-2.5,2.18-.47,3.45-3.06,4.28-5.74,5.15-1.93.62-3.01,2.24-4.2,3.71,2.15,1.83.18,1.97-.96,2.01-1.92.07-4.77,1.23-4.5,2.04.97,2.94-2.69,1.59-2.54,3.34.22,2.53-1.12,3.1-3.33,2.67-.41-.08-.89.31-1.36.41-3.01.63-3.28,5.28-7.05,4.82-.03,0-.27.64-.16.83.86,1.49-.06,2.34-1.24,2.48-3.3.39-4.43,2.75-5.55,5.35-1.03,2.4-2.43,4.6-5.36,5.01-2.03.28-3.34,2.11-5.67,2.1-3.18-.01-1.21,3.89-3.16,5.14-.5.32-.76,1-1.16,1.48-4.21,4.98-8.73,9.59-14.81,12.3-.98.44-1.52,1.18-2.07,1.96-1.15,1.63-2.73,2.74-4.38,3.8-3.67,2.35-6.3,5.17-8.82,9.11-.33.51-.96.84-1.48,1.23-2.79,2.1-4.54,5.6-8.58,6.07-1.25.15-2.29,1.36-2.72,2.62-.76,2.24-2.39,3.37-4.47,4.11-.76.27-1.6.58-1.53,1.6.1,1.33,1.71.61,2.25,1.64-.8,1.18-2.82,1.77-2.33,3.77,4.83.74,5.19.65,6.4-3.38.4-1.33.9-1.78,2.22-2,3.39-.58,5.6-3.37,8.53-4.84.4-3.88,3.81-4.39,6.44-5.79.66-.35,2.25-.1,1.96-.86-1.35-3.54,2.31-2.81,3.36-4.24,1.37-1.86,3.91-.76,5.53-1.69-.07-1.27-1.59-1.04-1.26-2.5Zm405.79-128.09c-.6,2.05.33,3.84.89,5.67,2.1,6.8,4.05,13.64,6.42,20.34,1.13,3.18.92,6.24.92,9.46,0,3.94-3.21,9.06,3.25,11.21.13.04.21.24.31.37,3.96,5.27,8.05,10.45,10.51,16.67.84,2.12,2.16,3.81,3.96,5,1.27-.77-.51-3.39,1.9-2.79,2.26.56,2.27-.38,1.71-1.9-3.25-8.88-6.57-17.73-9.84-26.6-1.21-3.28-2.81-6.53-3.33-9.93-.32-2.11,2.89-2.56,4.25-4.23,2.32-2.86,4.19-6.14,6.92-8.62,4.88-4.44,10.19-8.36,15.86-11.76,2.35-1.41,4.54-3.31,7.09-4.13,3.74-1.21,6.77-3.38,10.78-5.8-5.83-.04-10.82-1.14-15.6,1.2-.91.44-1.89.62-2.72-.19-.87-.85-1.84-.68-2.69-.17-1.62.96-3.11.48-4.66-.1-1.23-.46-2.59-.95-3.79-.3-2.64,1.41-5.78-.57-8.33,1.39-.5.39-1.26.15-1.72-.47-1.03-1.4-2.26-.61-3.53-.45-1.57.2-3.13.43-4.8.25-5.48-.57-7.91,2.08-5.65,7.05.8,1.75,2.03,3.54,1.4,5.55-1.05,3.34.07,6.37.85,9.5.33,1.3,1.43,2.62.29,4.43-2.25-1.97-2.39-4.84-3.66-7.08-2.51-4.42-2.26-10.28-7.02-13.58Zm-201.53,22.74q2.72,2.33,1.87,4.63c.72-.12,1.36-.14,1.96-.34.76-.25,1.45-.74,2.22-.95.73-.19,1.73-.53,2.06.54.3.97-1.27.85-1.3,1.75,3.14.05,3.24.1,4.08-1.7.26-.56.27-1.52.89-1.5,3.45.07,5.72-2.9,9.02-3.27,4.65-.53,9.04-2.09,13.22-4.21.57-.29,1.21-.44,2.12.97-2.77.12-3.15,3.27-5.81,3.71-4.49.75-8.29,2.85-11.61,6.04,4.03,1.69,8,2.64,12.24,1.23,2.97-.99,6.06-.99,9.14-.71,1.83.17,3.37-.2,5.09-.98,2.63-1.2,5.49-3.03,8.52-.57.81.66,1.74.51,2.75.11,2.65-1.06,5.43-.66,8.18-.45.8.06,1.61.34,2.39.25.83-.09,1.54-.66,1.63-1.56.09-.84-.66-.96-1.29-1.06-.7-.11-1.47-.37-1.04-1.19,1.4-2.64-.68-3.51-2.28-4.47-1.26-.75-2.54-1.44-3.56-2.49-2.2-2.25-3.89-2.44-5.45-.13-2.08,3.07-5.19,3.89-8.73,4.61,1.6-1.87-1.13-4.09.91-5.84,1.49-1.29,3.57-1.89,4.55-3.19-3.63-2.12-7.5-.27-11.14-1.52-.47-.16-1.86-.73-1.61.77.31,1.87-.9,1.81-2.04,1.83-1.48.03-2.81.09-3.92,1.42-.83.99-1.89.7-2.95-.21-2.13-1.81-4.01-.59-5.47,1.03-2.66,2.95-2.58,3.02-6.49,1.33-.51-2.33,2.41-2.84,2.82-5.29-5.05-.51-9.01,2.13-13.41,2.97.17.51.18.69.27.79.22.23.46.45.72.64,2.56,1.92,2.57,2.07.19,4.28-.2.18-.59.23-.69.44-1.09,2.33-1.11,2.47-2.29,2.2-1.93-.43-3.8-.56-5.74.09Zm-37.19-6.11c9.6,2.59,18.19,4.9,26.77,7.25,1.71.47,3.03.16,4.43-1.06,3.28-2.86,6.83-5.38,8.65-9.6.55-1.27,1.69-2.4,2.82-3.27,2.1-1.62,3.24-4.05,5.25-5.72.5-.42.9-.97.53-1.68-.47-.89-1.34-.99-2.1-.68-1.97.81-4.06,1.96-6.05.84-3.57-2-7.21.99-10.69-.52-1.92,1.6-4.55.28-6.49,1.51-5.89,3.73-12,7-18.37,9.84-1.43.64-2.67,1.73-4.75,3.11Zm-12.02-16.33c6.3-.31,12.61-.62,18.91-.95,1.3-.07,3-.05,3.59-1.16,1.5-2.82,4.56-2.05,6.53-3.32,2.18-1.41,3.27-4.34,5.89-5.53.43-.19.72-.69,1.15-.87,2.2-.91,4.1.43,4.02,2.95-.03.84.54.99.83,1.48,1.06,1.76,2.95,1.48,4.59,1.92-5.74,1.67-11.8.96-17.38,3.26,1.71.21,3.49.49,5.14.16,3.37-.67,6.8-.47,10.16-.93,2.69-.37,6.04.66,7.37-3.13.12-.33,1.14-.39,1.76-.5,1.1-.19,2.28.35,3.71-.59-.86-1.1-1.21-2.3-.03-3.64,1.12-1.28,1.65-2.75-.64-3.84-.85-.41-1.71-1.81-.92-2.88.89-1.2,2.33-1,3.54-.33.55.3.91.92,1.4,1.33.65.55,1.49,1.01,2.19.36,2.15-2.01,5.34-2.61,7.73-5.3-3.16-.05-5.74,1.29-8.12-.53-.68-.52-1.6-.04-2.31.32-1.82.93-3.42,1.43-5.4-.04-.84-.62-2.9-.01-1.93,1.91,1.33,2.64-.48,3.71-2.14,4.56-1.84.94-3.89,1.6-5.97,1.6-.98-.73-.82-1.82-1.14-2.71-1.42-4-2.63-4.52-6.25-2.45-1.12.64-2.13,1.47-3.2,2.2-1.43.97-2.48,1.9-1.4,3.93.82,1.54-.11,2.09-1.59,1.46-1.03-.44-1.91-1.21-2.95-1.62-3.36-1.3-6.88-.23-9.04,2.66,1.07.98,2.43.61,3.67.81,1.6.25,3.18.61,4.74,1.05.56.16,1.28.64,1.13,1.34-.2.9-1.17,1.47-1.87,1.11-2.83-1.46-5.72.08-8.6-.32-1.55-.22-3.68.08-5.01,1.74,2.36,1.39,4.94-.21,7.57,1.17-3.56,3.32-6.98-.48-10.11.93-3.09,1.4-6.65.44-9.67,2.39Zm290.81-67.24c4.2,2.46,8.07,3.21,12.63,2.27,3.15-.65,6.68-.84,9.98.89,2.17,1.13,4.21.05,5.18-2.18.77-1.75,2.69-3.47,2.05-5.3-.99-2.81,2.54-2.8,2.4-4.95-.19-2.95,1.11-5.57,2.3-8.19.33-.71.67-1.62-.17-2.2-.76-.53-1.53-.05-2.25.34-5.12,2.78-10.33,5.38-15.34,8.35-5.63,3.34-12.09,5.43-16.78,10.97Zm-39.2,45.09c1.58,1.08,1.99,1.89,1.38,3.2-.57,1.22-1.16,2.83-2.53,2.58-3.57-.65-4.5,1.84-5.33,4.2-.67,1.89-3.68,4.24-.82,5.78,1.87,1.01,3.07-2.27,4.15-3.85,1.34-1.96,2.64-3.97,5.07-4.11,4.42-.26,8.05-2.1,11.47-4.67,1.7-1.27,3.39-1.83,5.06.24.94,1.16,1.65.86,2.54-.5.78-1.18,2.28-1.8,3.12-3.19.84-1.37,2.96-2.92,3.97-1.94,1.63,1.59,2.91.69,4.41.65.91-.02,1.97-.13,2.46.98-.58,1.57-2.85.67-3.43,2.48,3.78,1.57,8.13.23,11.7,2.48.55.35,1.42-.07,1.68-.63.76-1.63,2.69-2.5,3.41-5.04-4.2,2.15-7.13,1.28-10.27-1.17-3.3-2.57-7.24-4.35-11.69-4.16-3.02.13-6.02.2-9.03-.38-2.18-.42-4.39.23-5.73,1.96-2.8,3.61-6.7,4.49-11.58,5.1Zm-22.42,33c-.09-.42-.07-.63-.16-.7-2.22-1.84-4.1-1.07-5.99.66-3,2.74-6.18,6.18-10,6.6-4.18.46-6.45,3.33-10.01,4.41,2.66,2.16,5.56.17,8.16,1.6,2.8,1.54,6.28.25,8.6-2.52.73-.87,1.22-1.12,2.32-.27,2.33,1.8,5.22,2.09,7.85,1.13,3.55-1.3,7.04-2.28,11.01-1.55.22-1.72.84-3.19.59-4.44-3.22-1.36-6.23-2.01-9.26-2.45-3-.43-5.46,2.5-8.69,1.83.99-2.87,4.06-2.7,5.58-4.3Zm166.21-68.89c.13-4.48-1.38-8.3-1.55-12.26-.05-1.06-.74-2.12-1.21-3.14-.3-.65-1.15-1.14-1.57-.67-2.25,2.6-5.09.94-7.62,1.12-3.61.26-7.08.82-11.18,2.15,7.17,6,15.86,7.58,23.13,12.79Zm-171.31,65.67c-3.1-.37-5.96-.06-8.85-.38-2.46-.28-4.85.31-6.29,2.68-1,1.65-2.48,1.89-4.2,1.73-5.14-.48-7.91,3.8-11.7,5.98-1.08.62-1.26,2.28-.59,3.56.65,1.24,1.98,1.11,3.04.94,2.78-.42,5.5-1.59,7.17-3.69,1.95-2.45,4.34-3.29,7.08-3.57,5.74-.59,10.07-3.84,14.34-7.25Zm-78.49,78.61c.6-4.66-1.89-17.4-4.06-21.21-3.38,2.58-5.23,6.06-6.48,9.94-.55,1.71-.05,3.27,1.25,4.43,2.75,2.46,5.33,5.2,9.29,6.84Zm17.16,130.8c.21-1.73-2.88-.56-2.08-2.41.87-2.02-.1-1.83-1.44-1.55-3.7.8-7.28,2.45-11.12-.14-1.65-1.12-3.04.45-2.69,2.78.24,1.56.62,3.1.83,4.67.4,2.87,1.12,3.56,3.32,2.22,2.55-1.55,5.4-2.08,8.07-3.18,1.75-.72,3.76-.96,5.1-2.38Zm242.01-265.83c-3.42-3.75-23.4-13.68-27.74-13.87,8.48,7.74,17.78,11.49,27.74,13.87Zm-79.63,32.37c-5.21-.68-9.99-2.68-14.98-3.92-1.7-.42-3.63-1.06-4.64,1.14-.48,1.05,1.97,3.4,3.81,3.76.63.12,1.29.09,1.93.08,3.88-.07,7.76-.12,11.64-.27.72-.03,1.85.61,2.24-.79Zm-360.26,19.35c5.02-.38,9.53-.68,14.02-1.09.76-.07,2-.41,2.15-.89,1.03-3.39,3.73-2.89,6.25-2.95.93-.02,2.21.06,2.13-1.29-.06-1.13-1.16-1.5-2.21-1.36-.95.13-1.88.44-2.81.71-2.91.86-5.82,1.75-8.71,2.62.32.5.81.14,1.25.18.86.08,2.24-.3,1.96,1.24-.22,1.15-1.35,1.23-2.37.96-.47-.12-.93-.52-1.36-.47-3.36.36-7.18-1.72-10.3,2.34Zm278.7,199.77c-1.42-2.26-1.45-2.17-4.09-2.98-1.98-.6.79-1.3-.09-2.15-2.67,1.02-5.08,2.49-6.7,5.04-.35.56-.51,1.25-.17,1.84.39.68,1.14.63,1.72.36,2.96-1.37,6.37-.72,9.34-2.11Zm-163.55-203.04c-.24-1.76-.76-3.23-2.6-3.09-2.44.19-4.66,1.21-6.33,3.04-.87.95-.57,2.12.24,3.1.73.88,1.48,1.73,2.76,1.76-.02-3.81,3.84-1.55,5.13-3.28.37-.5.59-1.11.81-1.53Zm351.18,18.7c-4.01-2-5.92.96-8.38,1.93-.75.29-1.66.64-1.56,1.58.13,1.2,1.27,1.27,2.19,1.39,3.7.47,5.22-2.43,7.75-4.9Zm-31.44,9.35c2.88-.52,5.29-2.19,7.76-1.57,2.85.72,4.03-1.1,5.55-2.66.38-.39.58-.83.31-1.28-.36-.6-.91-.81-1.65-.5-3.51,1.48-6.93,3.23-10.8,3.7-.57.07-.98.79-1.18,2.3Zm-334.98-56.98c-3.23-.43-5.85,2.29-9.16,1.86-1.14-.15-1.27,1.22-.36,2.07.99.92,2.28,1.6,3.45.65,1.41-1.15,2.95-1.81,4.66-2.29.88-.25,1.73-.86,1.41-2.28Zm157.33,315.93c.07-2.35-2.07-3.19-1.2-5.23.49-1.15-.9-1.56-1.88-.81-1.53,1.17-2.25,2.92-1.62,4.69.84,2.35,2.86,1.23,4.7,1.35Zm131.25-15.15c-1.93,1.73-4.08,2.96-6.58,3.67-.75.21-1.42,1.01-.95,1.92.47.91,1.35.63,2.12.33,2.67-1.06,4.47-2.99,5.41-5.91Zm-123.71-45.09c-1.2-1.38-2.38-2.06-3.92-1.16-1.92,1.13-4.38,1.61-5.54,4.33,3.93.19,6.08-3.1,9.46-3.17Zm-162.51-79.06c-.15-.67.22-1.93-1.16-2-.86-.04-1.27.78-1.51,1.61-.22.76-.56,1.49-.78,2.26-.21.76-.46,1.69.42,2.13,1.06.53,1.77-.23,2.35-1.04.59-.82.59-1.8.67-2.95Zm-139.22-62.47c-3.41.9-5.75,2.15-7.17,4.74,2.17-1.61,6.14-.27,7.17-4.74Z"/><path class="cls-1" d="m715.39,45.9c-.84-4.13,1.85-6.41,4.75-8.23,2.71-1.7,5-4.19,8.35-4.85.72-.14.84-1.38,1.99-1.52,1.47,1.81.5,3.44-.43,5.15-3.09,5.71-6.14,11.45-9.17,17.19-.58,1.1-1.46,2.17-.75,3.83,2.48-.25,3.26-2.27,4.26-4.03,4.03-7.05,8.03-14.11,12.09-21.15,1.37-2.39,2.85-4.71,4.31-7.05.35-.56.91-.99,1.62-.88.74.12,1.03.75,1.11,1.41,1.07,8.8,1.46,17.39-3.57,25.46-3.42,5.49-6.09,11.45-9.14,17.18-.92,1.72-1.93,3.4-3.05,4.98-1.99,2.81-4.71,4.22-8.01,2.69-2.25-1.04-3.28-.13-4.35,1.53-5.76,8.97-9.86,18.52-10.1,29.39,0,.16.07.32.06.48-.46,4.7-.46,4.64,4.44,4.67,2.72.01,5.47-.75,8.67.12-2.7,3.66-6.94,4.26-10.07,6.31.08.92.59.86,1,.66,15.34-7.43,30.65-14.91,46.02-22.29,15.51-7.45,31.08-14.78,46.6-22.22,1.81-.87,3.06-.58,4.19.97.66.91,1.37,1.79,2.1,2.66,2.98,3.56,2.76,5.04-1.22,7.55-1.5.95-2.97,2.36-4.8,2.18-4.41-.42-7.31,2.13-10.24,4.73-1.82,1.61-3.36,3.92-5.49,4.76-9.45,3.72-13.7,12.77-20.31,19.34-6.9,6.86-12.99,14.51-19.85,21.44-1.96,1.97-3.93,3.95-3.89,7.03-.22.6-.43,1.2-.65,1.8-1.48.08-2.86.43-4.15,1.23-4.55,2.83-9.4,5.13-14.11,7.66-12.72,6.85-25.29,13.98-37.97,20.92-8.69,4.75-17.42,9.42-26.19,14.03-2.93,1.54-3.45,1.3-3.56-1.85-.12-3.62-1.38-5.61-5.2-6.35-3.4-.66-3.56-1.4-3.25-4.93.05-.59-.06-.96-.62-1.04-2.01-.28-1.49-1.65-.72-2.39,2.71-2.64,3.01-6.39,3.97-9.59,1.55-5.16,3.02-10.28,4.99-15.33,1.98-5.07,5.48-9.22,7.46-14.17,1.34-3.35,3.22-6.25,5.29-9.07,1.2.49-.1,2,1.48,2.51.67-2.15,1.38-4.27,1.99-6.43,1.34-4.79,2.56-9.53,5.48-13.81,1.65-2.42,2.88-5.56,2.15-8.98-5.3,5.79-10.18,11.79-15.06,17.78-.41.5-1.03,1.14-.69,1.7,1.38,2.32-.61,3.55-1.49,5.15-.55.98-1.56,2.02-1.5,2.96.18,2.52-1.2,4.32-2.28,6.28-3.88,7.1-7.41,14.35-12.6,20.73-3.15,3.88-6.5,6.18-11.44,6.65-2.39.23-5.48-.37-6.35,3.44-.29,1.25-2.08,1.76-3.58.91.39-2.01,1.7-2.89,2.91-4,5.1-4.71,5.43-9.21,1.16-14.88-1-1.33-1.86-2.69-2.32-4.24-2.16-7.29-4.22-14.61-6.38-21.9-.71-2.41-.58-5.26-3.27-6.76-.56-.31-.77-1.06-.67-1.74.88-5.62-3.04-10.86-1.32-16.56.13-.42-.07-.97-.19-1.44-1.1-4.41-2.06-8.87-3.39-13.22-.92-3-1.52-6.19-3.54-9.22-1.67,2.28-1.76,4.61-2.03,6.77-.87,6.99-4.38,13.69-2.27,21.01.16.57-.1,1.29-.24,1.92-.83,3.81-1.56,7.65-2.57,11.41-1.01,3.78-1.89,7.56-2.33,11.45-.38,3.37-.35,3.38,2.85,3.14.81-.06,1.62-.27,2.42-.23.79.03,1.8-.38,2.64.87-3.91.42-7.39,2.28-11.04.34l.1.13c.56-1.64.17-3.2-.33-4.77-1.78-5.7-3.56-11.4-5.34-17.09-.39-1.24-.65-2.53-1.16-3.72-.52-1.19-.29-3.53-2.22-3.04-1.52.39-.44,2.22-.27,3.42.05.32.13.64.19.96.71,3.54.93,6.89-1.07,10.29-1.42,2.41-2.01,5.32-1.99,8.41,2.42-1.32,2.92-1.21,3.04.48.03.48-.01.97-.06,1.45-.71,6.94-1.03,13.89-.95,20.88.03,3.06-.03,6.13-.39,9.22-.86,7.43-2.17,14.84-3.96,22.02-1.28,5.15-1.77,11.76-8.62,13.94-1.36.43-1.63,3.08-3.15,2.73-3.59-.84-6.79.4-10.13,1.02-.93.17-1.89-.37-2.4-1.76,2.34-.38,2.73-2.16,2.79-4.14.1-3.34,1.72-5.95,3.79-8.33,1.77.87,2.09,4.02,4.55,2.77,1.79-.91,4.32-1.14,5.07-3.39,1.02-3.05.96-6.34,3.63-8.93,1.01-.98,1.92-3.5.94-5.47-.84-1.68-.05-3.05.24-4.63.64-3.57,1.92-6.96,1.82-10.79-.1-3.92-.54-8.08,1.03-11.92,1.46-3.57,1-6.58-2.61-9.14-4.4,16-8.76,31.85-13.21,48.04-6.96-6.63-22.3-28.77-23.24-33.42,3.66-.36,6.47,1.52,9.38,3.22,2.97,1.73,7.19.87,8.38-1.91.78-1.83,1.25-3.86,1.34-6.02.11-2.56-.72-3.59-3.11-3.84-2.26-.24-4.64-.42-6.41-2.03-3.94-3.59-9.06-4.76-13.74-6.8-3.26-1.42-6.59-2.52-9.35-4.9-1.29-1.11-2.86-1.94-5.38-1.27,1.76,2.46,3.26,4.53,4.73,6.63,1.86,2.67,3.72,5.33,5.49,8.05.84,1.3,1.15,2.75-.18,3.98-.31.28-.92.42-1.34.35-.88-.16-.92-.79-.39-1.37,1-1.11.5-2.22-.13-3.13-2.83-4.15-5.72-8.28-8.67-12.34-1.18-1.63-2.75-2.27-4.62-.89-.55.4-1.17.55-2.16-.12.74-1.32,2.56-2.55,1.63-4.39-1.09-2.16-1.85-4.66-3.84-6.13-3.2-2.37-6.41-5.77-10.79-1.88-.22.19-.61.23-.93.25-2.71.14-2.66,1.82-2.12,3.78,1.96,7.21,3.9,14.42,5.88,21.63,2.38,8.68,4.78,17.34,7.45,27.03-2.53-1.69-4.12-2.74-5.71-3.81-.95-.64-2.25-1.73-3.05-1.15-2.33,1.7-3.78.29-5.57-.84-2.01-1.26-1.89.83-2.43,1.82l.08-.09c-.32-.03-.64-.06-.96-.09q-4.44-.39-5.68-4.45c-.46,8.1,5.93,25.67,13.53,32.04,0,1.45-2.17,1.49-1.99,3.08,1.53,1.8,2.92.23,4.36-.2,2.9-.87,4.71.32,4.67,3.37-.03,1.83.44,3.52.73,5.26.11.68-.1,1.34-.8,1.58-.75.27-1.24-.3-1.53-.86-.6-1.14-1.17-2.31-1.6-3.52-1.15-3.27-1.11-3.28-5.76-2.23,2.46,1.89,2.48,5.22,5.41,6.58.96.45.89,1.67.28,2.59-1.51,2.28-2.79,4.65-3.32,7.39-.12.63-.64,1.18-1.39,1.11-1.07-.1-1.21-.94-1.14-1.79.08-.97.25-1.93.36-2.9.08-.63.44-1.56.15-1.85-1.66-1.7-3.01-3.39-1.77-5.92-.29-.1-.58-.3-.86-.29-2.02.12-1.89-.71-.87-1.92,1.93-2.28.71-3.78-1.18-5.24-4.87-3.76-10.14-7.02-14.57-11.36,1.56.15,2.95,1.55,4.87.55.27-1.68-.04-3.4-.45-5.13-.82-3.47-1.85-6.87-2.65-10.35-.91-3.97-1.25-8.04-2.88-11.95-.86-2.05-2.52-4.29-2.11-6.81.46-2.82-.83-5.11-2-7.38-1.06-2.05-1.84-4.1-2.16-6.4-.15-1.05.44-3.08-1.58-2.85-1.73.2-1.35,2.01-1.29,3.23.05,1.11.37,2.24.75,3.29,1.22,3.4,1.81,6.9,2.01,10.49.08,1.46.04,2.92.66,4.31,2.41,5.38,2.01,11.6,5.14,16.82.79,1.32,1.38,2.91,2.01,4.39,1.13,2.65,1.61,5.3-.21,7.88-.43-.74-2.51-.95-1.61-1.73,2.21-1.9.71-3.48.14-5.16-.84-2.47-1.83-4.71-4.51-5.97-6.61-3.1-13.12-6.45-19.66-9.69-5.79-2.87-11.31-6.32-17.73-7.83-2.05-.48-3.62-2.11-5.21-3.51-4.62-4.08-10.34-6.49-14.9-10.35-1.31,1-.03,2.2-1.35,3.18-3.51-5.34-9.78-6.12-14.97-8.82-2.4-1.25-4.81-2.37-7.37-4.58,4.51-.92,8.36-.11,12.15,0,4.06.11,8.12.4,12.17.18,6.35-.36,12.64.69,18.97.45,1.47-.06,2.83.28,4.13,1.18,1.03.71,2.84,2.27,2.42-1.08-.08-.63,1.16-.44,1.6-.2,1.84,1.03,3.78.58,5.7.56,1.55-.02,2.96-.18,3.29-2.11.31-1.83.2-3.24-2.28-3.15-.73.03-1.01-1.29-.59-1.48,2.69-1.23.95-2.5.15-3.74-2.78-4.29-6.65-7.95-7.78-13.75,2.26.52,3.89,1.6,5.34,3.07.68.69,1.31,1.47,2.1,2,.92.62,2.09,1.4,3,.1.88-1.26-.54-1.58-1.18-2.17-2.93-2.74-5.7-5.55-9.62-7.14-2.15-.87-3.7-3.25-5.5-4.97-1.14-1.09-1.48-3.52-4.03-2.14-.58.32-.91-.56-1.25-1.14-3.58-5.99-7.28-11.91-10.83-17.92-1.04-1.76-2.06-3.63-2.19-6.04,2.14-.04,3.69.86,5.16,1.76,5.82,3.53,11.67,7.03,17.33,10.8,1.83,1.22,3.55,2.54,4.8,4.89,1.17,2.2,4.38,3.36,5.95,5.99.94,1.57,3.42.8,4.6-1.06,1.61-2.53,3.97-3.57,6.49-2.33,5.24,2.57,11.02,4.42,15.64,7.72,3.39,2.42,7.19,3.14,11.2,5.96-.89-4.58.65-8.4-2.19-12.08-2.08-2.7-1.08-6.53-1.95-9.67,1.64-.89,2.48-.03,3.2.85,1.43,1.75,2.81,3.54,4.15,5.36,4.82,6.53,9.71,13.01,14.4,19.62,4.05,5.71,9.43,9.38,16.06,11.43,2.16.67,4.13,1.92,6.27,2.64,2.71.9,3.2.54,3.27-2.24.12-5.04-.36-10.05-.64-15.08-.32-5.74-3.41-10.51-4.66-15.9-.46-1.98-2.04-3.39-.35-5.58.5-.65.03-2.2-.25-3.26-.42-1.59-2.3-3.33.77-4.29.14-.05.29-.74.19-.84-2.77-2.35-.46-4.64-.16-7.06.32-2.55-.57-5.12-2.81-6.88-5.02-3.92-8.5-9.29-13-13.71-1.27-1.25-2.72-2.63-.86-4.53,1.52-1.56,3.82-1.76,5.75-.49,2.21,1.45,3.55,3.78,5.48,5.53.84.76,1.59,1.63,2.43,2.4,1.04.95,1.93,2.84,3.42,2.28,1.87-.71.17-2.59.45-3.92.19-.93.02-2.02,1.32-2.41,1.76.94.74,2.57.9,3.89.27,2.17,2.27,4.38-.12,6.5,1.11,5.43.19,10.98.88,16.44.24,1.89,1.28,1.79,2.69,1.86,4.15.19,4.94.81,5.69,3.9.8,3.27,0,4.14-3.26,5.18-1.63.52-4.71-1.57-4.7,1.4.01,1.94,3.04.63,4.66,1.1,2.25.65,4.51,2.08,4.33,4.03-.32,3.69,1.93,6.05,3.19,8.93.78,1.77,2,3.3-.17,5.14-1.33,1.13.25,1.97,1.08,2.59,1.25.93,2.36,1.77,1.28,3.53-.64,1.04,0,1.84.65,2.61.39.47,1.25,1.17.66,1.59-3.1,2.23-1.63,4.06.17,6.16.55.64.05,1.89-.46,2.76-.56.97-1.75,1.81-1.57,2.95.59,3.71-1.47,3.16-3.99,2.31,3.08,2.6,6.54,3.73,9.96,4.55,2.02.48,3.71,1.01,4.92,2.67.72.98,1.81,1.37,2.8,1.89,3.32,1.74,4.02,1.33,4.6-2.42.43-2.74.79-5.5,4.23-6.37,1.07-.27,1.9-1.43,2.01-2.58.41-3.96,1.67-7.47,3.95-10.83.89-1.31,2.42-3.61.43-5.8-.99-1.1.67-1.48,1.21-2.12,1.37-1.62,3.34-3.09.13-4.92-.89-.51-.35-1.48.48-1.88.71-.35,1.51-.51,2.66-.87-4.06-9.86-10.84-18.05-15.67-27.34-4.76-9.17-9.69-18.24-13.41-27.92,5.33,8.82,11.3,17.19,15.92,26.45,4.55,9.1,9.82,17.84,15.11,27.33,3.15-3.83,4.08-7.78,5.6-11.38,1.65-3.88,2.97-7.9,4.37-11.89.74-2.1,1.68-3.9,4.15-4.28,2.23-.35,3.21-2.08,4.07-3.84,2.42-4.96,4.72-9.99,7.19-14.92.99-1.98,1.62-5.19,3.8-5.24,2.68-.06,2.4,3.44,3.19,5.4,1.27,3.14,2.13,6.47,2.87,9.78,1.82,8.1,5.16,15.68,7.95,23.45,4.16,11.59,8.41,23.13,12.7,34.67.93,2.5,1.87,2.74,3.42,1.29.35-.33.59-1.21.33-1.17-4.33.6-.87-4.14-3.43-4.97-.79-.26.73-6.95,1.88-8.14.79-.82,2.17-1.72,1.29-2.76-1.99-2.34-.26-4.26.22-6.34.68-2.92,2.72-5.24,3.03-8.48.28-2.89,4.18-4.24,7.14-3.33,1.27.39,1.9,1.26,1.89,2.51-.01,1.46-.13,2.92-.3,4.37-.46,3.89-.66,7.77,1,11.67.03-2.88.11-5.76.08-8.64-.03-2.93-.24-5.85-.22-8.78.02-2.52-.74-4.12-3.61-3.94-.64.04-1.31-.06-1.93-.21-1.6-.4-3.22-.84-3.43-2.89-.27-2.58.89-5.33,3.09-5.37,5.15-.1,5.4-3.23,5.53-7.07.16-4.87.58-9.72.61-14.6.02-3.67-.62-7.45,1.37-10.96.6-1.05.58-2.53.58-3.82.03-9.25-.01-18.5-.03-27.74,0-1.33-.34-2.57-.95-3.74l.1.11c.33-.77,1.06-1.06,1.39-.29.82,1.93,2.1,3.62,2.53,5.77.44,2.21,1.08,4.45,2.06,6.47,1,2.07,1.45,3.81-.11,5.81-.54.69-.55,1.84-.68,2.8-1.31,9.98-2.18,20-2.35,30.08-.27,15.97-.69,31.94-1.06,48.34,4.75-3.17,8.3-7.18,12.22-10.74,11.16-10.15,22.16-20.48,33.31-30.65,2.29-2.09,4.33-4.37,6.34-6.66,1.93-1.91,3.89-3.84,5.84-5.77Zm-44.42,86.14c-.73.78-1.48,1.54-2.18,2.34-.56.65-1.38-1.62-2.07.46-2.03,6.14-4.49,12.14-6.71,18.22-1.45,3.95-1.54,8.37-4.21,11.91-1.83,2.43-.69,5.33-.96,8-.11,1.11.42,2.65,1.96,3.05,1.96.52,2.68-1.22,3.22-2.35,1.12-2.35,1.87-4.89,2.62-7.4,1.49-4.95,2.98-9.92,4.3-14.92,1.64-6.24,3.79-12.36,4.04-19.31Zm-181.52,11.07c-2.4-3.48-3.7-6.88-3.41-10.82.37-4.96-1.56-9.14-4.92-12.71-.67-.71-1.21-1.51-2.25-1.75-.97-.22-1.96-.51-2.7.4-.58.71-.33,1.53.04,2.28,2.73,5.54,3.04,11.82,5.37,17.48.28.67-.79,2.03.1,2.14,2.69.31,3.98,3.55,7.76,2.98Zm-53.07-9.5c-.09.35-.19.71-.28,1.06,9.5,2.55,18.69,6.26,28.88,7.73-.35-3.04-2.43-4.66-3.28-6.79-1.23-3.09-3.42-3.42-6.11-3.25-6.41.41-12.81.83-19.22,1.24Zm278.66-8.22c.01-.7-.31-1.25-.82-1.68-1.05-.91-2.31-1.3-3.63-.94-4.09,1.12-7.9,2.91-11.28,5.49-.72.55-1.12,1.56-1.56,2.42-.38.74-.52,1.59.03,2.31.7.92,1.72.9,2.64.47,4.41-2.04,8.81-4.11,13.19-6.22.73-.35,1.33-.94,1.42-1.85Zm-290.46-56.67c1.78,4.04,4.74,6.71,5.81,10.42.36,1.24,2.02,1.49,3.34,1.62,3.59.34,6.41,1.98,8.59,4.84.91,1.19,1.97,2.22,4.18,2.22-.89-1.12-1.28-1.89-1.91-2.35-1.59-1.16-3.2-1.96-2.14-4.63.25-.62-.88-3.38-3.06-4.04-3.51-1.06-6.45-3.18-9.34-5.39-1.36-1.04-2.46-2.65-5.48-2.69Zm71.1,48.95c-.18-4.24-1.05-7.94-3.04-11.32-1.49-2.52-4.05-3.65-6.61-4.69-.82-.34-1.63-.14-2.18.58-.53.69-.76,1.76-.17,2.25,2.01,1.68,2.01,4.33,3.33,6.29,2.08,3.09,4.45,5.86,8.68,6.88Zm149.53.16c-1.53-1.14-2.44-.56-3.24-.14-1.92,1.03-3.87,1.54-6.05.99-1.66-.42-2.84.12-3.34,1.86-.55,1.92.38,5.03,1.74,5.69.64.32,1.26.19,1.81-.2.92-.66,2.22-1.17,2.62-2.08,1.24-2.82,3.74-4.25,6.45-6.13Z"/><path class="cls-1" d="m210.22,365.93c.7,1.91,2.65.51,3.51,2.11-6.54,2.52-13.29,4.01-20.04,5.5-7.61,1.67-15.22,3.33-22.83,4.99-.94.2-2.04.71-2.83.42-3.06-1.11-5.71.22-8.53.92-3.54.88-6.8,3.41-10.79,1.96-.37-.13-1,.11-1.37.37-3.6,2.52-7.65,1.85-11.68,1.96-2.81.08-6.23-.67-8.21,2.6-.19.32-.84.44-1.3.52-4.49.78-8.68,2.68-13.1,3.63-2.71.59-5.61,2.02-8.44-.1-.75-.56-1.92-.4-2.85-.06-2.66.99-5.1-.06-8.17-.7,3.33-2.79,6.93-4.12,10.48-5.12,4.6-1.3,8.54-3.78,12.67-5.91,3.79-1.96,7.53-3.88,11.9-3.9,3.37-.02,5.86-2.41,8.61-3.68,6.01-2.77,12.3-4.74,18.33-7.37,4.25-1.85,9.16-2.29,12.55-5.97.21-.23.54-.4.85-.47,5.93-1.25,11.12-4.55,16.82-6.26,4.71-1.4,8.79-4,13.34-5.69,4.36-1.62,8.86-3,13.1-5.07,2.72-1.33,5.27-2.97,8.12-4.12,7.67-3.09,15.03-6.95,22.79-9.78,9.01-3.28,17.36-8.03,26.45-11.11,4.54-1.54,8.79-3.97,13.07-6.2,3.16-1.65,6.65-2.29,9.85-3.91,8.32-4.22,17.1-7.48,25.61-11.35,7.03-3.2,14.07-6.47,21.29-9.29,6.87-2.68,13.69-5.55,20.39-8.55,7.67-3.43,15.11-7.45,23.03-10.32,5.94-2.15,11.13-5.85,17.15-7.83,1.76-.58,3.9-1.51,4.06-4.23.11-1.91,1.39-2.09,3.18-1.53,2.67.84,5.42,2.61,8.58-.06-2.82-3.58-6.58-6.05-10.37-8.34-2.87-1.74-5.76-3.11-7.95-5.95-1.83-2.37-4.7-3.95-7.14-5.83-1.14-.87-2.56-1.45-3-3.67,5.79-1,10.89,2.85,16.45,2.05-2.39.25-4.81-.02-7.31,1.05.38,1.94,1.72,2.93,3.49,3.31,2.28.49,4.15,1.77,6.15,2.84,1.73.92,3.29,2.77,5.62,1.12.32-.23,1.28.16,1.78.51,3.89,2.77,8.55,2.89,12.97,3.84.32.07.74.3.93.18,3.93-2.67,7.73.25,11.55.44,3.97.19,7.88,1.76,11.8,2.8,1.25.33,2.65.59,3.6,1.36,1.63,1.32,3.51,1.35,5.33,1.91,4.11,1.26,9.2.79,11.64,5.66.28.56,1.45,1.1,2.09.98,4.58-.85,6.16,3.17,8.3,5.58,1.3,1.47,1.88,3.02,4.19,3.14,2.17.12,3.74,1.81,5.46,2.96,1.12.75,1.52,2.16,1.1,3.5-.34,1.06.01,1.86.44,2.76,1.67,3.51,1.65,3.51-1.43,5.55-.81.54-1.53,1.23-2.38,1.67-3.23,1.68-5.3,1.17-7.53-1.77-.47-.62-.75-1.44-1.33-1.9-.56-.45-1.39-1.06-2.14-.2-.6.69.09,1.11.43,1.63,1.44,2.25,1.3,5.73-.34,7.41-.3.31-1.04.69-1.23.56-4.19-3.08-7.62.57-10.43,2.08-10.16,5.45-20.67,10.14-30.92,15.38-3.18,1.63-6.42,3.14-9.63,4.72-1.26.62-1.95,1.32-.33,2.39,1.12.75.4,1.48-.31,1.79-6.61,2.83-12.42,7.81-20.31,7.21-3.35-.25-6.16,1.82-9.06,3.19-5.29,2.5-10.49,5.17-15.73,7.77-.87.43-1.73.9-3.35.43,2.46-1.52,3.39-4.47,6.72-4.18.59.05,1.17-.6.85-1.4-1.42-3.51.72-2.58,2.57-2.11.44.11.93.02,1.85.02-1.7-2.72-.28-4.14,1.89-5.23,2.08-1.04,3.87-2.4,4.82-4.61.49-1.14,1.34-1.81,2.52-2.08.97-.22,1.84-.55,2.52-1.35.83-.98,2.07-1.81,1.26-3.33-.66-1.26-1.85-1.03-3.01-.87-3.66.51-7.28,1.25-10.97-.25-1.73-.7-3.55-.36-4.43,1.8-.63,1.56-2.07,1.97-3.56,2.18-.64.09-1.59-.05-1.41-.82.54-2.33-.39-1.59-1.58-.94-1.7.93-3.42,1.93-5.25,2.51-2.3.73-4.64,2.59-7.16.15-.91-.88-2.2-.18-3.16.46-2.76,1.83-5.58,3.14-9.03,2.11-.7-.21-1.59.2-2.39.31-1.44.19-1.76,1.91-3.07,2.25-1.71.45-1.37-2.13-2.95-2.02-.69.05-1.56,0-1.3.85.85,2.77-.79,2.23-2.28,1.81-1.69-.48-3.15-.36-4.5.93-.69.66-1.7,1.27-2.66.99-2.3-.66-3.99.33-5.87,1.46-2.31,1.39-5.06.98-7.59.67-1.83-.22-3.19-.42-3.68,1.84-.4,1.83-2.05,2.29-3.42,1.82-1.81-.62-3.55.42-5.29-.25-.95-.37-1.85-.1-2.73.51-4.34,3.02-9.21,4.83-14.44,4.64-2.87-.11-3.58,3.17-5.78,2.89-2.24-.29-4.11-.32-5.78,1.29-1.14,1.1-2.18,2.26-4.07,1.46-.92-.39-1.52.16-1.45,1.24.02.3-.07.62-.11.92-4.22-1.33-4.51,4.59-8.22,4.43-2.23-.1-3.56,2.16-5.6,2.77-.92.28-1.77.83-2.7,1.06-1.19.29-1.09-2.97-2.86-1.18-.76.77-1.15,1.91-1.79,2.82-.67.97-1.65,1.57-2.77,1.88-4.34,1.21-8.55,2.71-12.19,5.46-.55.42-1.29.69-1.8.23-2.09-1.89-3.15-.43-4.11,1.21-.43.73-.83,1.56-1.66,1.64-4.51.47-6.36,3.68-7.81,7.37-.43,1.1-1.3,1.62-2.2.62-2.95-3.28-5.93-1.55-9.06-.53Zm92.31-59.75c-1.06-.64-1.9-.14-2.61.58-5.03,5.13-12.78,5.14-18.14,9.64-.23.2-.59.3-.9.34-4.02.44-7.48,1.97-10.66,4.54-2.24,1.81-4.8,3.02-8.03,2.85-3.92-.2-7.62.71-10.15,4.33-1.07,1.53-2.35,3.21-4.65,3.07-1.26-.08-2.96-.7-3.28,1.03-.29,1.55,1.44,2.36,2.52,3.19.7.54,1.82.59,2.78.71,2.67.32,5.3-1.65,8.01-.19,3.1-2.69,7.38-1.51,10.88-3.43,3.2-1.75,6.57-4.4,10.84-2.86.34.12.97-.19,1.32-.48,2.26-1.87,5.94-.68,7.72-3.65.26-.43,1.18-.45,1.78-.68,5.24-2.05,10.97-2.65,16.02-5.27,1.17-.61,2.46-1.39,3.69-.87,3,1.28,4.97-.18,6.78-2.18,1.24-1.38,2.75-2.67,4.43-2.85,3.25-.35,5.97-3.18,9.65-1.76.99.38,3.18.16,3.37-1.88.16-1.65,3.87-.6,2.36-3.3,1.59-1.32,3.42-.53,5.16-.57.63-.01,1.71-.01,1.47-.69-.69-1.92.84-2.01,1.71-2.02,5.67-.07,8.71-4.93,13.21-7.12,2.24-1.09,4.18-2.76,6.93-2.09,1.16.28,1.73-.17,2.69-1.16,2.81-2.89,7.03-3.48,10.5-5.37.23-.13.76-.07.92.1,2.76,2.94,4.34-.78,4.87-1.68.89-1.49,2.05-2.1,3.26-2.97,1.76-1.25,3.85-1.67,5.79-2.48,1.03-.44,2.33-.81,2.24-2.24-.15-2.28-1.95-3.89-2.74-5.96-.48-1.24-2.68-.6-4.04-.23-1.12.31-2.22.81-3.26.12-.8-.53,1.37-1.35.12-1.78-.81-.28-1.89.23-2.85.38-2.32.37-4.29,1.48-5.78,3.23-.78.93-1.7,1.52-2.73,1.94-2.38.98-5.24.2-7.26.86-2.35.77-4.4,3.06-7.22,3.5-.32.05-.64.11-.96.19-1.88.45-4.48-.29-4.39,3.2.02.85-1.59,1.52-2.85.73-1.46-.91-1.95-.65-2.68,1.15-.79,1.93-2.75,2.92-5.26,1.91-2.41-.97-4.7.11-5.69,2.26-1.02,2.22-2.85,3.31-4.68,3.87-2.94.89-5.62,2.48-8.71,2.94-2.09.31-3.98,1.13-5.56,2.77-1.72,1.79-4.24,2.82-6.45,3.15-2.82.42-5.28.45-6.81,3.38-.5.96-1.77.17-2.65-.23Zm168.53-21.27c-.38-1.1-1.12-1.75-1.94-2.25-3.56-2.21-7.15-4.37-10.72-6.56-1.38-.84-2.67-1.85-4.13-2.5-1.35-.6-2.97.86-2.24,2.03,1.67,2.69,4.28,4.74,5.64,7.7,3.25-.45,5.25,2.02,7.73,3.36,1.89,1.03,3.43.2,4.97-.69.35-.2.49-.75.69-1.07Zm-26.74-26.73c2.76,1.66,4.63,2.85,6.56,3.9.7.38,1.61,1.48,2.36.02.49-.95.4-1.8-.52-2.56-2.09-1.74-4.34-2.69-8.41-1.36Zm1.8,17c2.01-4.15-1.45-5.16-2.06-7.41-.27-1.02-2.29-.44-3.48-.12-.54.15-1.2.7-.99,1.43.3,1.03,1.26,1.58,2.2,1.6,2.43.07,3.58,1.58,4.32,4.5Z"/><path class="cls-1" d="m355.51,193.64c.33,4.11,3.93,4.69,6.69,6.1.94.48,2.24.15,3.19.86-.52,2.39-3.22.22-3.96,2.44,2,.48,4.42-.94,5.99,1.11,1.66-1.22,3.11-2.92,5.48-2.36,1.18,1.2-1.29,2.88.25,3.46,1.53.57,3.2,1.85,5.01.93,1.05-.53,1.9-1.13,3.08-.24,2.41,1.83,4.74,1.55,7.07-.33,1.28-1.03,2.7-1.56,3.15.88.21,1.14,1.06,1.13,1.84.86,1.27-.44,2.74-.01,3.81-.45,4.16-1.73,8.28.57,12.4-.2,1.61-.3,3.08-.71,4.58-1.43,2.24-1.08,4.73-2.62,6.98.22.23.29,1.22.44,1.34.28,2.14-2.83,4.25-2.16,6.66-.31.49.38,1.95-.13,2.76-.6,3.1-1.8,6.42-1.63,9.76-1.28,3.12.32,6.04-.09,9.06-1.16,2.63-.93,5.62-1.17,8.45-1.18,2.72-.02,4.69,1.63,6.37,3.89,5.04,6.8,10.15,13.53,14.46,20.83,2.14,3.63,4.74,5.35,9.47,5,3.38-.25,7.05.04,10.58.28,2.79.18,5.45-.28,8.08-1.2.68-.24,1.78,0,1.93.96.17,1.13-.78,1.21-1.63,1.18-2.11-.06-4.33.26-6.31-.29-2.94-.81-3.41,1.79-4.82,3-.47.41-.98,1.83.54,2.32,3.05.99,2.49,3.78,2.64,5.97.16,2.32.4,3.01,2.33,2.22,2.3-.95,4.81-.91,7-1.67,3.19-1.1,6.26,1.67,9.3-.34.61-.41,1.51.43,1.83,1.25.51,1.29,1.71,1.35,2.78,1.67,6.09,1.79,8.32,6.44,5.68,12.24-.9,1.99-1.21,4.02-1.5,6.1-.68,4.83-5.55,8.49-10.3,7.68-2.39-.41-5.1.43-7.11-1.11-1.16-.89-4.29-.93-2.55-4.14.7-1.29-.95-.41-1.48-.45-2-.17-3.77-.47-2.52-3.15.46-.98.07-1.1-.75-1.04-1.98.16-2.41-.51-1.21-2.16.41-.56.53-1.43-.46-1.32-3.28.39-3.39-1.98-2.56-3.67,1.16-2.36-2.72-2.82-1.34-4.89.02-.04-.41-.55-.59-.53-4.58.53-9-1.69-13.47-1.05-2.03.29-3.28-.04-4.77-1.15-1.04-.78-2.47-1.11-3.74-.77-2.1.56-3.76.38-5.84-.7-1.29-.67-3.59.46-5.55-.21-1.51-.51-3.12-.5-4.4-1.78-1.47-1.46-3.68-1.71-5.49-1.64-4.23.17-7.72-2.12-11.64-2.79-1.84-.31-3.67-1.64-3.75-2.68-.26-3.56-2.12-2.72-4.47-2.69-3.2.03-6.36-1.1-9.65-.83-.86.07-1.58-.48-1.5-1.48.07-.86.87-.8,1.48-.94,1.97-.45,4.16.74,6.25-1.03-3.17.25-4.9-.93-5.98-3.89-.46-1.25-2.92-1.68-4.76-1.63-1.24.04-2.51.95-3.88-.2.3-1.43,2.15-.36,2.6-1.54-2.27-1.71-5.17-1.45-7.66-2.42-2.86-1.12-5.5-2.92-8.43-3.74-3.44-.96-7.09-1.23-10.65-1.73-2.25-.31-4.65-.44-6.29-2.11-1.49-1.52-3-2.12-4.67-.91-1.78,1.29-3.19,1.05-4.85-.08-.77-.52-1.83-1-2.71-.92-6.9.56-13.93-1.27-20.69.61-4.3,1.2-8.52,1.02-12.77.67-2.98-.25-5.26.03-6.71,3-.81,1.67-2.21.75-3.4.31-7.26-2.73-14.53-5.44-21.79-8.19-7.52-2.84-14.97-5.89-22.57-8.51-4.87-1.68-10.06-2.06-15.53-2.18,1.09-1.47,2.13-2.81,3.65-2.4,3.43.93,6.95-.61,10.3.62,1.38.51,2.54-.31,3.78-.54,2.21-.42,4.33-1.41,6.66-.5.55.22,1.53.27,1.86-.05,2.61-2.58,5.67-1.49,8.63-1.21.48.05,1.09.43,1.4.25,3.46-2.02,7.34-.26,10.66-1,7.63-1.7,15.54-.07,22.99-2.56,3.54,1.33,7.13-.78,10.78.3,2.95.88,6.34-.07,9.05-.89,4.68-1.42,9.07-1.52,13.69-.61.59.12,1.26-.14,2.49-.31-5.23-3.92-10.98-5.86-15.97-9.06-1.21-.78-2.62-1.27-3.24-2.8-.74-1.82-.32-2.87,1.68-3.02,2.42-.18,4.89-.23,7.31-.03,4.06.35,8.18-.25,12.14.12,5.84.55,11.66.64,17.5.84,9.73.34,19.45.61,29.18.92,5.34.17,10.7,1.17,15.99-.5.85-.27,2.03.11,2.18.68.93,3.43,4.24,5.26,5.48,8.47.91,2.35.38,3.32-2.12,3.35-7.81.11-15.63.27-23.35,1.49-4.94.78-9.9.65-14.83,1.02-10.01.75-20.11.75-29.99,2.95-1.85.41-3.82.57-5.78.29-3.54-.5-7.07-.92-10.34,1.3-1.93,1.32-4-1.35-6.04-.05-1.75-1.58-3.44-1.2-5.3-.07-1.04.63-2.43,1.72-1.79,2.37.88.9,1.65,2.35,3.19,2.51,1.16.12,1.75-.51,2.04-1.6.34-1.26.98-2.39,1.91-3.33Zm87.54-12.44c-4-2.71-8.33-2.62-12.7-2.85-9.32-.48-18.68,1.05-27.97-.71-.62-.12-1.33-.08-1.94.09-5.85,1.63-11.37.44-16.78-1.85-2.31-.98-4.22-.4-5.33,1.76-.27.52-.33,1.3-.16,1.86.24.76,1.03.63,1.64.43,1.11-.37,2.14-.52,3.28.05,2.45,1.22,5,1.89,7.82,1.57,1.05-.12,2.17.56,3.27.78,4.03.82,8.08,1.57,12.1,2.43,2.99.64,5.6-.04,8.31-1.4,1.34-.68,3.58-2.27,4.74-.1,1.41,2.63,3.43,1.65,4.31.6,1.87-2.22,3.69-1.28,5.7-.87,2.03.42,4.14,1.59,6.13.34,2.33-1.47,4.71-2.4,7.57-2.14Zm-.64,53.64c2.5,2.33,5.37,2.12,8,2.17,7.45.15,14.92.37,22.34-.07,6.07-.36,12.15.47,18.28-.23-4.19-3.73-10.02-1.12-14.25-4.21-.14-.1-.66.13-.84.34-1.53,1.77-2.96.85-4.19-.28-1.17-1.07-2.53-1.72-3.98-1.47-8.27,1.45-17.14-1.62-25.36,3.74Zm-81.53-60.09c1.32.44,3.29,1.47,4.97,2.84,3.65,2.97,7.76,1.84,9.4-3.24-4.95,1.07-9.65-.2-14.37.4Z"/><path class="cls-1" d="m365.91,577.63c3.26-2.09,6.49-4.16,8.06-8.04.77-1.9,2.71-2.78,4.59-3.38,3.54-1.14,7-2.55,10.72-3.16,4.13-.68,7.23-3.82,7.7-7.94.14-1.23.78-1.64,1.46-2.23,1.71-1.52,3.76-2.34,6.3-3.19-1.12,4.4-1.48,8.65-6.51,9.9-.3.07-.51.76-.64,1.2-.17.61-.01,1.65-.36,1.84-3.15,1.71-3.6,5.63-6.29,7.6-4.47,3.28-7.03,8.1-10.2,12.4-1.19,1.61-2.03,3.25-4.08,3.79-.8.21-1.78.41-1.91,1.29-.67,4.35-4.76,5.65-7.27,8.35-4.74,5.12-8.93,10.7-13.29,16.14-5.92,7.38-12.18,14.5-18.01,21.95-10.5,13.42-21.83,26.16-32.08,39.78-3.8,5.05-8.23,9.61-12.22,14.52-10.12,12.47-20.23,24.94-30.17,37.56-2.69,3.41-5.68,6.56-8.3,9.99-3.35,4.37-5.76,9.36-8.32,14.23-.65,1.23-.54,2.61-2.86,1.29-1.41-.8-3.9.59-5.21-1.89-.37-.7-1.49.26-2.01.8-1.46,1.52-2.86,3.1-4.19,4.73-2.68,3.27-5.37,6.52-8.67,9.18-1.77,1.42-3.55,2.88-5.9,3.27-.79.13-1.69.33-2.1-.63-.39-.92.25-1.57.91-2.03,1.33-.93,2.64-1.92,4.09-2.62,5.57-2.69,9.78-6.6,12.08-12.48.8-2.05,2.72-2.47,4.75-2.81,4.31-.72,8.83-4.56,10.22-8.44-1.87-.38-2.46,1.21-3.41,2.16-.91.91-1.66,2-2.92,2.28-.91-.48-.86-1.22-.44-1.66,6.06-6.27,9.5-14.45,15.72-20.74,3.74-3.78,7.03-8.46,9.52-13.43.82-1.63,1.66-2.98,3.97-2.93,1.99.04,3.1-1.78,3.64-3.49.5-1.56,1.1-3.03,1.92-4.44.32-.55.9-1.48.42-1.77-3.1-1.86-.66-3.54.14-5.13,2.93-5.8,6.06-11.51,8.97-17.32,1.7-3.4,3.54-6.47,7.26-8.15,2.49-1.13,4.68-2.93,7.07-4.3,2.67-1.52,5.31-3.02,8.62-2.99,2.55.02,5.72-2.67,5.53-5.13-.25-3.25,1.75-4.3,3.84-5.5,2.85-1.64,5.37-3.64,7.44-6.2,1.08-1.34,2.26-2.59-.18-3.81-1.42-.71-.65-1.65.06-2.32.94-.88,2.07-1.57,3.05-2.42,1.47-1.28,3.37-2.37,4.19-4,1.49-2.96,3.85-4.68,6.46-6.39,1.16-.76,3.43-1.01,1.7-3.9-.83-1.39,2.58-3.16,4.2-2.84,2.98.58,4.13-1.28,5.66-2.86,2.81-2.92,5.15-5.96,6.52-10.04,1.31-3.89,4.61-6.89,8.14-9.31,1.39-.95,2.83-1.57,2.16-4.16-.53-2.07,2.06-3.47,3.8-4.58,2.56-1.62,4.09-3.6,3.45-7.08-2.4-.28-4.44,1.82-6.88,1.39,0,0,.07.08.07.08Zm-78.88,104.57c-6.23-.63-6.97.23-6.75,7.31,2.91-1.74,5.2-3.83,6.75-7.31Z"/><path class="cls-1" d="m703.61,182.32c-1.37,2.64-3.64,4.5-5.74,6.46-4.01,3.74-8.44,7.07-11.36,11.87-.38.63-1.31.91-1.94,1.4-2.89,2.24-5.92,4.3-7.46,7.88-.64,1.49-1.91,2.76-3.55,3.16-2.56.64-4.35,2.31-5.71,4.31-2.57,3.77-6.61,6.27-8.72,10.42-.32.64-1.18,1.17-1.91,1.43-4.23,1.47-8.59,1.32-12.95.72-.55-.08-1.06-.68-1.54-1.11-.61-.55-1.34-1.47-2.03-1.11-3.99,2.12-8.13-.15-12.12.61-2.06.39-3.82.3-5.35-1.29-.55-.57-1.21-1.1-1.92-1.46-1.09-.56-3.24.04-3.23-1.46,0-1.66-1.3-3.37.12-5.11,1.15-1.41.25-2.27-1.23-1.83-1.78.53-2.41.15-3.27-1.55-.88-1.74-3.31-1.69-4.85-1.29-2.47.65-4.89.49-7.23.16-4.71-.66-9.27.96-13.96.46-1.75-.19-3.72.74-4.7,2.19-1.61,2.36-4.04,3.72-6.01,5.6-3.73,3.54-8.94,4.37-13.5,6.37-4.16,1.83-8.87,1.47-13.21,2.7-.82.23-1.67.15-2.36-.3-1.86-1.23-4.07-.97-6.09-1.53-1.77-.49-4.43.82-4.28-2.67-4.47-.65-3.61-5.17-5.5-7.7-.58-.78-.76-2.34-.4-3.25.61-1.55-.42-2.66-.92-3.5-1.25-2.1-4.18-3.3-3.16-6.53-3.75-.17-.63-3.36-2.04-4.63-1.56-1.4-3.24-2.79-4.38-4.51-4.88-7.34-9.6-14.79-14.35-22.22-.62-.97-1.32-1.78-2.23-2.52-5.04-4.07-7.77-9.6-9.68-15.63,0,0-.08.09-.08.09,1.63.08,2.5,1.29,3.59,2.27,3.9,3.48,6.47,8.4,11.58,10.6,1.04.45,1.68,1.53.73,2.82-1.34,1.84-.56,2.57,1.44,2.71.76.05,1.22.61.73,1.34-1.32,1.97.09,2.46,1.5,3.14,1.17.57,1.6,1.79,2.28,2.87,1.73,2.71,2.01,7.33,7.13,6.54.56-.09,1.48.73,1.9,1.36.82,1.23,1.73,1.59,3.23,1.53,1.38-.05,2.69.9,4,1.4,2.21.84,2.46,3.34,4.05,4.14,2.88,1.45,2.42,3.88,2.58,6.15.06.88-.36,2.13-1.39,2.37-1.14.27-1.44-.88-2.01-1.69-1.41-2.02-2.62-4.5-5.68-4.21-.54.9-.27,1.51.17,1.99,3.32,3.62,5.91,7.81,8.1,12.09,4.28,8.39,10.51,8.7,18.44,6.28,3.83-1.17,7.47-2.98,11.17-4.56,1.51-.64,3.45-1.47,3.5-3.1.12-3.75,2.95-3.56,5.25-4.22,1.08-.31,2.43-.07,3.31-.63,5.62-3.58,11.32-2.78,17.1-.63,1.84.69,3.67,1.42,5.67.92,4.6-1.14,9.27-1.2,13.98-1.33,4.86-.13,8.47,3.76,13.25,3.56.26-.01.72.26.76.46.82,4.46,5.2,4.67,8,6.75,3.46,2.57,7.65,2.78,11.51,2.61,7.35-.32,13.32-3.71,17.16-10.28.74-1.26,2.07-2.01,3.01-3.01,2.29-2.42,6.11-2.62,7.82-5.54,1.74-2.97,4.14-4.87,7.3-6.09,1.5-.58,2.79-1.67,3.79-2.99,3.16-4.13,8.2-6.07,11.62-9.93.53-.6,1.53-.42,2.34-.29l-.09-.08Z"/><path class="cls-1" d="m875.4,239.94c-1.82.47-2.94-.41-4.19-1.69-6.81-6.95-13.82-13.71-20.62-20.67-5.88-6.02-11.57-12.23-17.31-18.33.84-1.68,2.34-1.24,3.52-1.37,25.49-2.94,50.99-5.81,76.48-8.74,9.36-1.07,18.71-2.18,28.05-3.43,3.08-.41,5.83.19,8.39,1.74,2.01,1.22,1.84,3.12-.31,4-1.02.42-2.2.52-3.32.66-18.54,2.26-37.08,4.5-55.62,6.74-11.12,1.34-22.24,2.68-33.36,4.04-1.42.17-2.95.22-4.03,2.16,3.64.71,6.18,3.6,9.88,4.11.68.09,1.37.83,1.86,1.42,2.87,3.43,6.5,5.08,10.96,4.66,1.84-.17,2.96,1.17,4.46,1.7,3.82,1.37,7.58,2.83,11.22,4.69,2.33,1.19,3.79,2.3,2.55,5.92,2.05-1.21,2.83-3.76,5.09-1.78,1.17,1.02,3.46.48,4.89,1.73.47.41.79,1.2,1.29,1.31,8.91,2.07,16.74,6.76,25.06,10.24.81.34,1.58.65,1.48,1.62-.1,1.03-1.03,1.15-1.84,1.23-2.77.29-5.79.61-8.19-.44-2.4-1.04-4.18-.82-6.25.14-1.08.5-2.23.32-3.36.29-9.58-.2-19.16-.41-28.74-.57-2.78-.05-5.5-.37-8.14-1.3.53-1.61,1.83-2,3.32-2.37,1.2-.3,2.79-.67,3.02-2.1.33-2.03,2.03-3.11,3.1-4.79-3.1-.14-5.4,1.18-5.51,2.95-.18,2.85-.19,2.9-2.53,2.76-1.61-.1-3.21-.34-5.01-.55.73,2.23,2.35,3,3.72,4.01Zm-32.29-41.08c3.02,3.48,6.08,3.25,9.17,2.87,9.83-1.2,19.65-2.45,29.48-3.59,20.31-2.37,40.64-4.66,60.95-7.08,1.96-.23,4.17-.08,6.21-1.81-2.46-2.25-5.15-2.29-7.86-2.01-4.2.44-8.38,1.03-12.57,1.52-23.38,2.74-46.76,5.46-70.14,8.2-4.81.56-9.61,1.2-15.24,1.9Z"/><path class="cls-1" d="m643.57,268.35c.61-3.53,1.01-6.24.26-9.24-.46-1.85.43-4.97,3.06-5.87,3.7-1.25,2.6-4.47,3.27-6.97.1-.36-.52-1.23-.51-1.24,2.5-1.17,3.34-3.39,3.74-5.88,3.22-.82,4.65-5.13,8.65-4.43.3.05.83.02.92-.15,2.29-4.14,7.13-3.31,10.5-5.38,1.77-1.09,3.99-1.74,5.16,1.28.68,1.74,2.4,1.89,4.09,2.07,4.88.51,9.8.65,14.59-.15,4.39-.73,8.45.79,12.69.95,6.9.26,13.71,1.32,20.46-1.24,5.81-2.21,12.13-1.83,18.16-3.02.79-.16,1.96-.25,2.7.74-1.63,1.13-3.37,1.91-5.23,2.53-8.27,2.76-16.62,5.22-25.03,7.54-6.97,1.93-14.12,3.44-20.86,6.16-2.31.93-5.15,1.12-6.42,3.86-.11.24-.45.52-.71.54-8.41.7-13.33,8.03-20.63,10.82-1.46,3.8-4.37,5.19-8.26,4.96-3.65,3.3-8.76,1.72-12.8,3.81-1.12.58-2.82.24-3.5-1-1-1.84-2.45-1.57-4.32-.71Z"/><path class="cls-1" d="m845.82,144.66c-.81,2.01-2.76,2.68-4.42,3.63-15.07,8.66-30.08,17.42-45.27,25.86-4.92,2.74-10.69,3.66-15.55,6.78-4.09,2.63-8.48,4.8-12.77,7.12-1.11.6-2.14,1.49-4.12,1.32,2.75-3.17,6.02-5.05,9.18-7.03,3.16-1.98,6.46-3.73,9.66-5.65,1.5-.9,3.37-1.75,2.48-4.09-.72-1.9-2.9-2.61-5.42-1.59-2.4.98-4.69,2.24-7.02,3.38-1.64.8-3.35,1.29-5.18.92-2.76-.56-3.7-2.85-1.91-5,1.44-1.74,2.92-3.56,4.94-4.66,2.42-1.32,2.58-3.02,1.39-5.25-.53-.99-.73-2.16-1.28-3.15-1.43-2.59-2.61-2.7-3.99-.08-.95,1.8-1.27,2.33-2.62.36-.4-.59-1.6.99-2.93.19,1.1-1.35,2.18-2.68,3.26-4-.01-.17-.02-.33-.03-.5.78-1.48,2.18-2.2,3.65-1.88,5.43,1.22,10.65-.38,15.93-.96,11.3-1.22,22.57-2.68,33.85-4.05,7.09-.86,14.19-1.72,21.28-2.59,2.39-.29,4.84-1.12,6.87,1.02,0,0,0-.12,0-.12Z"/><path class="cls-1" d="m773.3,222.8c-6.19,4.27-12.21,3.21-18.05,3.19,3.54-.94,7.19-1.35,11.64-3.09-5.84-.51-10.45-1.49-14.11-5.07-1.43-1.4-1.95-2.65-1.6-4.68,1.23-7.24,4.12-13.17,10.94-16.88,6.98-3.8,13.73-8.03,20.58-12.06,1.59-.93,3.1-1.51,4.99-.42,1.95,1.12,4.15.42,6.2.03,7.81-1.5,15.55-3.34,23.39-4.71,2.93-.51,5.65-2.24,8.35-3.96-10.45-1.07-20.65-.18-30.74,2.96,2.56-2.88,6.3-3.73,9.05-6.09.3-.26,1-.33,1.39-.18,6.21,2.4,12.55,0,18.81.58,1.61.15,3.24.1,4.86.17,1.69.07,2.71,1.07,3.15,2.59.51,1.76-.62,2.74-1.99,3.45-4.61,2.39-9.23,4.76-13.87,7.09-10.45,5.25-20.44,11.32-30.73,16.85-7.43,4-15.03,7.68-22.45,11.7-2.13,1.15-4.2,1.05-6.46.52l-.19.98c5.23,2.17,10.46,4.35,16.84,7Zm27.04-34.83c-2.81-.83-5.47-.56-8.19-.33-3.84.32-7.77-.1-10.71,3.32-.62.72-2.09.81-3.19,1.01-6.95,1.25-12.6,5.07-18.07,9.18-2.27,1.71-3.67,4.11-3.6,7.13.06,2.61.98,3.35,3.34,2.19,3.93-1.93,7.72-4.13,11.56-6.23.86-.47,1.97-1.06,1.9-2.06-.26-3.72,2.63-4.03,5.01-4.78,2.16-.68,4.41-1.1,6.63-1.6,5.76-1.31,10.53-4.51,15.32-7.82Z"/><path class="cls-1" d="m845.82,144.66s0,.12,0,.12c3.53-1.28,6.73-3.22,9.92-5.16,11.52-7.01,23.05-14.03,34.57-21.04,1.24-.76,2.43-1.65,3.96-1.77-1.06,1.98-3.99,2.12-4.76,4.63,3.73,1.36,6.45-.56,9.18-2.24,8.95-5.48,17.92-10.94,26.77-16.59,1.84-1.17,5.78-1.96,4.58-4.39-.97-1.97-4.32.22-6.55.97,1.68-2.13,3.61-3.83,6.58-3.17,1.07.24,2.32.58,2.54,1.95.17,1.07-.48,1.85-1.3,2.44-1.05.76-2.13,1.5-3.23,2.18-7.85,4.9-15.72,9.78-23.57,14.68-1.5.94-2.95,1.97-4.85,3.25,3.89,2.02,8.4-.62,11.98,2.7-2.76,1.19-5.61.5-7.98,2.2-1.33.95-3.24-.92-4.81-1.69-1.03-.5-1.73-.8-2.18.63-.43,1.37.74,1.26,1.34,1.46,3.78,1.24,7.29,3.21,11.67,3.77-2.29,4.39-6.47,4.57-9.89,6.01.13-.63.12-1.34.42-1.87,1.17-2-.04-2.97-1.64-2.94-3.1.06-6.03-.43-9.05-1.05-3-.61-4.08,1.05-3.74,4.68-4.13,2.99-8.02,6.25-11.09,10.37-1.67,2.25-4.35,2.98-6.66,4.15-3.01,1.52-6.36,2.37-9.39,3.86-2.86,1.4-5.49,1.36-8.36.21-2.37-.95-4.89-1.56-7.58-2.39.75-2.16,2.69-2.49,4.02-3.52,2.16-1.68-.04-1.83-.89-2.46Z"/><path class="cls-1" d="m199.88,545.31c-.27,3.07-1.93,4.9-4.77,6.11-4.07,1.73-7.15,5.02-10.84,7.4-6.42,4.13-12.85,8.25-19.49,12.03-5.41,3.07-9.37,8-14.52,11.4-2.17,1.43-4.14,3.31-6.5,4.26-4.79,1.93-8.35,5.42-12.42,8.31-6,4.26-11.37,9.66-18.86,11.69-3.13.85-5.75,3.01-8.04,5.35-2.31,2.36-4.89,4.25-7.96,5.5-1.96.8-3.72,1.97-5.33,3.38-2.82,2.46-5.99,4.25-9.36,5.96-5.46,2.78-10.52,6.39-15.08,10.57-3.31,3.03-3.37,3.09-8.54,4.03-.23-1.49.74-2.67,1.62-3.27,1.88-1.28,1.45-3.44,2.38-4.86,1.09-1.66,3.75.26,5.44-1.14.74-.62,1.63-1.07,2.47-1.57,2.49-1.47,4.78-3.14,7.86-3.62,1.62-.25,5.23-.95,2.38-4.43-.65-.8.32-1.47,1.01-1.83,3.1-1.6,5.46-4.72,9.49-4.44.67.05,1.43-.67,2.1-1.11,6.63-4.36,12.97-9.15,19.6-13.52,7.95-5.24,15.95-10.42,24-15.51,1.23-.78,2.34-1.74,3.45-2.68,4.36-3.68,8.94-7,14.05-9.61,7.83-4,14.93-9.19,22.35-13.87,7.8-4.92,15.34-10.28,23.61-14.43l-.09-.08Z"/><path class="cls-1" d="m228.87,374.23c-2.08,3.86-5.27,5.07-9.44,4-2.91-.75-5.12-.16-7.17,2.43-1.62,2.05-4.72,2-7.19,2.27-4.44.5-8.84,2.32-13.44.66-.98-.35-2.29-.17-3.05.98.36,1.42,1.78-.11,2.4.99-2.87,1.57-6.1,1.97-9.18,2.57-3.81.75-7.74.89-11.37,2.46-1.45.63-2.88-.06-4.32-.09-2.53-.06-5.19-.87-7.39,1.22-1.5,1.42-2.94-.98-4.58-.05-1.18.67,1.98,2.68-1.14,2.68-2.2,0-4.37,1.19-6.6,1.57-7.02,1.2-13.85,3.38-21.1,3.49-2.62.04-5.24,1.56-7.82,2.5-6.29,2.3-12.71,4.75-19.41,2.94-3.27-.88-6.04-.37-8.99.32-1.69.4-3.15.9-3.97,3.02-.96,2.5-2.94,2.87-4.91.99-1.45-1.38-2.54-1.19-3.79-.36-1.22.81-2.34,1.76-3.82,2.06-.63.13-1.27.31-1.89.28-1.44-.07-.85-3.16-3.11-2.13-1.17.53-2.25,1.38-3.65,1.11-.29-.06-.55-.31-.82-.47,2.36-3.98,5.06-4.8,8.16-2.18,1.19,1.01,2.22,1.02,2.82,0,.8-1.37,1.89-1.75,3.2-1.68,2.38.13,4.43-.69,6.49-1.72.99-.5,2.18-.96,3.24-.88,5.63.44,10.87-1.41,16.23-2.56,8.72-1.88,17.44-3.77,26.19-5.51,17.81-3.53,35.48-7.7,53.31-11.09,15.44-2.94,30.76-6.51,46.15-9.79.01,0-.06-.02-.06-.02Z"/><path class="cls-1" d="m746.42,99.15c1.51-5.1,5.43-8.8,7.36-13.84-1.83.41-3.09,1.22-3.86,2.38-2.25,3.38-5.75,5.26-8.9,7.47-2.76,1.93-5.95,3.14-9.71.84,3.01-2.31,5.58-4.52,8.38-6.36,2.26-1.49,4.42-2.41,5.44-5.6.84-2.62,4.41-3.5,7.33-4.17,1.32-.3,3.52.1,3.51-1.79,0-1.77-2.27-1.26-3.48-1.87-2.07-1.05-3.88-.57-5.97.4-7.4,3.43-14.44,7.45-21.29,11.83-2,1.28-3.98,2.66-6.46,3.03,3.39-3.96,7.72-6.72,12.23-9.01,10.73-5.45,21.27-11.23,31.5-17.57,1.31-.81,2.65-2.22,4.4-1.35,1.3.64,1.47,4.23.29,6.29-1.69,2.96-3.55,5.83-5.33,8.74-3.58,5.82-7.14,11.64-10.74,17.44-1,1.61-1.89,3.48-4.71,3.15Z"/><path class="cls-1" d="m352.93,235.61c-2.08-1.47-4.39-1.72-6.53-2.43-1.06-.35-2.08-.89-3.01-1.51-.56-.37-.66-1.18-.32-1.77.2-.35.76-.73,1.14-.72,1.12.04,2.36,0,3.34.46,12.5,5.95,25.6,10.42,38.47,15.46.28.11.48.41,1.54,1.35-5.66.19-10.49-.12-15.31-.16-5.02-.04-10.03.12-15.05.3-4.87.17-9.73.58-14.6.7-5.01.12-10.02.03-15.24.03.18-1.14,1.29-1.41,2.23-1.76,5.92-2.18,11.84-4.39,17.8-6.44,2.03-.7,4.02-1.29,5.55-3.5Z"/><path class="cls-1" d="m808.36,235.26c-1.01-2.31-3.46-2.19-5.28-3.09-3.18-1.57-3.57-5.32-.7-7.5,1.65-1.26,3.56-1.8,5.51-1.16,9.06,3,18.42,5.3,26.61,10.45,3.58,2.25,4.48,6.3,4.91,10.14.21,1.89-1.74,1.42-2.95.96-4.83-1.86-9.54-4.07-14.46-5.61-4.59-1.44-8.71-4.44-13.77-4.31,0,0,.14.12.14.12Z"/><path class="cls-1" d="m847.34,256.64c-.62.69-.94,1.39.21,1.84,2.27.89,4.52,1.82,6.82,2.6,17.69,5.97,35.39,11.91,53.08,17.87,1.84.62,3.75,1.1,5.12,2.65,1.19,1.35,2.63,2.68,1.37,4.66-1.06,1.69-2.8,1.51-4.38,1.03-3.26-.98-6.49-2.09-9.72-3.17-19.53-6.58-39.04-13.2-58.59-19.72-4.87-1.62-9.84-2.9-14.94-4.39,4.17-1.67,7.87-1.44,11.82.43,8.37,3.97,17.37,6.35,26.11,9.36,14.12,4.86,28.29,9.57,42.43,14.36,1.5.51,2.95,1.26,4.97.9-.6-3.14-3.08-3.99-5.42-4.8-7.98-2.74-16.01-5.37-24.01-8.05-9.54-3.2-19.09-6.35-28.59-9.66-5.05-1.76-10.15-3.28-15.42-4.59,3.12-.42,6.06-1.62,9.21-1.26,0,0-.1-.08-.1-.08Z"/><path class="cls-1" d="m764.23,153.23c0,.17.02.33.03.5-4.78,2.56-9.9,3.93-15.27,4.56-7.57.9-13.12,4.3-14.93,12.3-.37,1.63-1.74,2.76-3.09,3.65-2.67,1.77-5.45,3.38-8.41,4.81,1.89-4.4,5.94-6.97,8.67-10.61,2.69-3.59,5.91-6.8,8.71-11.57-4.52,1.16-7.38,3.32-10.18,5.53-7.86,6.22-15.68,12.5-23.53,18.75-.76.61-1.61,1.1-2.63,1.17,0,0,.09.08.09.08.13-1.9,1.78-2.61,2.95-3.65,6.66-5.87,13.74-11.27,19.92-17.67,3.49-3.62,7.88-6.04,12.03-8.81-1.04-1.31-2.23.55-3.04-.6,2.1-1.5,4.2-2.99,6.3-4.49.22-.6.43-1.2.65-1.8,2.01-3.04,4.97-1.09,7.85-1.55-1.5,4.13-5.69,6.32-6.97,11.34,4.23-1.13,8.14-.44,11.84-1.42,3.03-.8,5.98-.88,9.01-.52Z"/><path class="cls-1" d="m337.78,229.43c-.36-.02-.81.09-.98-.08-2.49-2.5-6.08-2.11-8.95-3.47-3.32-1.57-7.03-2-10.22-3.93-1.36-.82-3.62-.04-3.99-2.63-.14-.93-1.37-.34-2.11-.47-1.92-.33-4.38.57-5.24-2.35-.3-1.02-1.3-.65-2.05-.26-.96.51-1.86.35-2.76-.17-2.4-1.4-4.6-3.23-7.59-3.33-1.64-.06-1.68-1.29-1.33-2.45.43-1.44,1.53-.83,2.38-.51,6.83,2.57,13.64,5.17,20.46,7.76,7.56,2.88,15.12,5.79,22.69,8.66,1.03.39,2.54.37,2.4,1.88-.14,1.56-1.68,1.15-2.7,1.36Z"/><path class="cls-1" d="m739.01,310.51c.4,1.51,2.22,1.86,3.08,4.15-12.37-5.07-23.36-11.05-32.99-19.61,1.83-.98,2.81.61,4.12.99,1.66.49,3.04,2.83,5.15.74.48-.47,1.27.18,1.74.55,3.99,3.14,8.58,5.09,13.22,7.04,3.67,1.54,3.56,1.81,4.44,5.74.41.13.83.26,1.24.39Z"/><path class="cls-1" d="m16.31,667.75c.08-.66.15-1.33.23-1.99,4.15-2.22,7.57-5.61,11.98-7.44.82-.34,1.41-1.3,2.04-2.04.85-1,1.72-2.22,2.96-2.46,4.84-.93,8.2-4.45,12.29-6.68,1.41-.77,2.79-1.64,4.44-.58-.07,1.46-1.28,1.82-2.2,2.4-5.22,3.3-10.06,7.11-15.02,10.75-4.95,3.63-10.99,5.66-16.71,8.03Z"/><path class="cls-1" d="m389.41,552.88c5.26-5.87,11.46-9.55,18.09-12.66,1.86-.87,3.27-2.64,5.01-3.83,1.05-.72,2.23-1.38,3.59-1.37,1.18.01,2.09.74,1.44,1.83-2.4,4.03-4.83,8.07-8.63,11-.31.24-.89.13-1.5.2-.26-2.22,2.38-3.2,1.96-5.58-1.51-1.01-2.94-.08-4.26.69-2.24,1.31-4.38,2.78-6.55,4.19-.27.18-.56.36-.76.6-2.47,3.04-2.48,3-4.65,3.59-1.09.29-2.13.76-3.73,1.35Z"/><path class="cls-1" d="m726.16,311.28c-.5.97-1.09,1.13-1.75,1.27-2.46.52-4.03-1.26-6-2.04-1.85-.73-4.38.57-5.93-1.91-.57-.91-1.74-1.26-2.96-1.36-1.88-.15-2.68-1.66-3.13-3.26-.51-1.83.63-3.15,2.57-3.16.32,0,.68-.02.95.11,5.83,2.84,11.95,5.27,16.25,10.35Z"/><path class="cls-1" d="m199.97,545.39c11.69-8.57,24.2-15.85,36.45-23.56.82-.52,1.75-.83,2.75-.74,0,0-.08-.1-.08-.1.32,1.8-.84,2.63-2.17,3.35-6.38,3.47-12.03,8.05-18.15,11.91-4.35,2.74-8.78,5.38-13.27,7.89-1.67.93-3.65,1.17-5.61,1.18,0,0,.08.08.08.08Z"/><path class="cls-1" d="m61.1,404.28c3.17-3.52,6.56-4.58,9.44-6.1,5.09-2.71,10.75-4.36,16.16-6.46,2.29-.89,3.88,1.16,5.95.99-.14,1.6-1.02,2.3-1.95,2.28-5.43-.1-9.93,2.74-14.79,4.45-1.99.7-4.02,1.28-5.99,2-1.13.41-1.48.82-.26,1.9.97.85-.3,1.46-1,1.32-2.15-.43-4.36-.21-7.56-.36Z"/><path class="cls-1" d="m266.56,504.62c.13-1.59.95-2.68,2.28-3.53,6.56-4.18,13-8.58,19.69-12.56,5.29-3.15,9.99-7.28,15.78-9.6,0,0-.09-.08-.09-.08,1.05,1.42.41,2.46-.88,3.16-4.1,2.25-7.85,5.07-11.87,7.43-4.14,2.44-8.59,4.67-12.39,7.35-4.08,2.87-8.97,4.27-12.59,7.73l.07.1Z"/><path class="cls-1" d="m315.48,356.25c-4.71.94-9,3.48-13.91,3.68-.16,0-.36-.02-.48.07-4.82,3.58-10.95,1.85-16.18,4.01-1.87.77-4.15.87-6,1.85-2.42,1.28-4.62,1.01-7.33-.33,3.96-2.04,8.13-2.44,12.06-3.19,9.08-1.73,18.03-4,27.08-5.84,1.62-.33,3.2-.52,4.83-.17,0,0-.08-.07-.08-.07Z"/><path class="cls-1" d="m732.21,101.55c-2.54,2.12-4.66,4.46-6.9,6.6-2.8,2.68-7.26,2.5-12.61.09,2-1.69,4.37-1.4,6.45-1.91,1.74-.42,3.33-.62,4.35-2.55,1.74-3.32,4.09-3.84,8.71-2.23Z"/><path class="cls-1" d="m266.5,504.52c-3.71,3.12-7.59,5.94-11.89,8.26-3.41,1.84-6.48,4.3-9.68,6.52-1.77,1.23-3.52,2.4-5.84,1.68,0,0,.08.1.08.1,1.54-2.84,4.47-4.17,6.91-5.87,5.15-3.6,10.67-6.67,16.06-9.92,1.35-.82,2.72-1.97,4.43-.68,0,0-.06-.1-.06-.1Z"/><path class="cls-1" d="m655.79.64c-1.93,6.27-6.24,11.17-9.59,16.7-.71-2.55.34-4.71,1.02-6.92.38-1.24.82-2.47,1.2-3.71q1.7-5.55,7.46-5.97s-.1-.11-.1-.11Z"/><path class="cls-1" d="m252.45,369.44c.56.78,1.12,1.55,1.98,2.73-5.12.89-9.63,3.21-14.76,2.16-.86-.18-1.87.27-2.8.5-2.73.65-5.4.73-7.99-.59-.01,0,.06.02.05.01,4.86-1.09,9.77-2,14.58-3.31,2.99-.81,5.99-1.16,9.03-1.43l-.09-.08Z"/><path class="cls-1" d="m683.05,229.18c6.37-3.36,13.31-2.2,20.91-3.07-1.59,1.65-2.97,1.05-4.05,1.45.73,1.03,1.91.15,2.62.85.21.4.08.69-.38.64-3.31-.34-6.63.3-9.55,1.41-3.65,1.39-6.41-.25-9.55-1.29Z"/><path class="cls-1" d="m349.94,449.52c.29,1.58.04,2.81-1.7,3.48-2.99,1.16-5.59,2.9-7.96,5.15-1.47,1.4-3.48,2.34-5.4,3.12-2.27.92-4.13,2.09-5.83,3.97-1.91,2.12-4.49,3.68-7.63,3.61,0,0,.14.16.14.16,1.12-3.51,4.71-4.25,7.22-6,6.88-4.78,14.16-8.99,21.28-13.42l-.11-.07Z"/><path class="cls-1" d="m401.48,417.85c-.04.36-.07.71-.1,1.05-6.2,3.9-12.03,8.38-18.34,12.17-2.02,1.21-3.98,1.97-6.27,2.05,0,0,.1.11.1.11,3.41-3.7,7.95-5.91,12.1-8.49,4-2.49,7.7-5.78,12.51-6.89Z"/><path class="cls-1" d="m890.48,133.52c1.84-1.65,3.79-1.31,5.73-.23,1.25.69,2.46,1.46,3.68,2.19-3.37,2.15-7.26,3.03-11.22,4.94-.23-2.82,4.31-4.05,1.81-6.9Z"/><path class="cls-1" d="m421.58,524.68c-3.08,1.6-5.91,3.78-9.95,4.43.37-2.75.74-5.68,3.28-5.93,2-.19,5.32-2.07,6.61,1.71,0,0,.06-.21.06-.21Z"/><path class="cls-1" d="m619.21,514.76c-3.26,2.57-6.54,3.08-9.79,4.17.92-6.15,1.22-6.28,9.79-4.17Z"/><path class="cls-1" d="m321.56,469.02s-.14-.16-.14-.16c-.82,3.31-4.13,3.81-6.4,5.26-3.29,2.1-6.62,4.49-10.79,4.74,0,0,.09.09.09.08,4.45-3.77,9.66-6.4,14.49-9.61.81-.54,1.76-.83,2.75-.31Z"/><path class="cls-1" d="m196.39,535.54c-4.19,1.4-7.26,4.1-9.84,7.5-.38.5-.91.95-1.47,1.23-.36.18-.97.13-1.34-.06-.49-.26-.4-.87-.12-1.26,3.12-4.37,7.11-7.32,12.76-7.41Z"/><path class="cls-1" d="m739.01,310.51c-.41-.13-.83-.26-1.24-.39,1.43-2.27,3.3-1.35,5.08-.63,3.51,1.41,6.87,3.27,10.8,3.47-1.23,2.42-3.66,3.05-6.37,1.44-2.64-1.57-5.38-2.87-8.27-3.88Z"/><path class="cls-1" d="m451.24,530.28c.81.14,1.62.29,2.43.43.07,3.05-1.59,5.18-3.88,6.84-.94.68-2.21.64-3.05-.36-.68-.82.17-1.43.54-2.11,1.01-1.86,2.58-3.25,3.95-4.8Z"/><path class="cls-1" d="m361.75,441.72c3.75-2.22,7.67-4.17,11.14-6.85,1.16-.9,2.43-1.64,3.98-1.64,0,0-.1-.11-.1-.11-.36,1.88-1.58,3.11-3.12,4.07-2.17,1.35-4.43,2.58-6.53,4.03-1.82,1.27-3.62.97-5.49.4.01,0,.12.09.12.09Z"/><path class="cls-1" d="m611.71,551.83l-.75,2.42c-2.37,1.32-3.4-.82-4.79-1.93-.52-.41-.63-1.2-.09-1.72.88-.85,1.47-2.6,2.87-2.15,1.39.45,3.82.67,2.76,3.37Z"/><path class="cls-1" d="m715.39,45.9c-1.96,1.93-3.91,3.86-5.84,5.77-1.6,1.22-3.22,2.48-5.56,3.06.01-1.91.9-2.83,2.18-3.56.96-.55,2.23-.82,2.65-1.96,1.18-3.19,3.78-3.4,6.57-3.31Z"/><path class="cls-1" d="m436.56,512.37c4.05-5.05,8.1-10.09,12.63-15.73-.51,3.53-8.58,13.87-12.63,15.73Z"/><path class="cls-1" d="m820.71,162.09c4.88-2.78,9.76-5.55,14.63-8.33.16.28.31.55.47.83-4.58,3.4-9.46,6.26-14.72,8.46-.13-.32-.25-.64-.38-.96Z"/><path class="cls-1" d="m421.58,524.68s-.06.22-.06.21c1.73-.83,3.43-1.69,5.19-2.45.56-.24,1.3-.33,1.74.32.41.6.22,1.21-.2,1.74-1.31,1.67-2.06,4.31-5.11,2.94l.09.09c-.55-.95-1.1-1.9-1.65-2.85Z"/><path class="cls-1" d="m500.58,480.32c.82-2.54,1.73-4.23,1.57-6.12-.13-1.52.92-1.87,2.03-2.11.67-.15,1.61.21,1.4.79-.55,1.51.17,3.11-.66,4.62-.84,1.51-1.92,2.33-4.34,2.82Z"/><path class="cls-1" d="m400.8,250.84c-1.8-.11-3.06.94-4.17-.48-1.29-1.65-2.91-1.78-4.77-.87-.75.37-1.65.26-2.07-.64-.18-.39-.19-.99-.01-1.37.43-.93,1.37-.86,2.11-.6,2.85,1.02,6.08,1.11,8.91,3.95Z"/><path class="cls-1" d="m226.19,516.73c-2.33,3.12-7.47,1.96-9.22,6.08.33-3.6.46-3.69,9.22-6.08Z"/><path class="cls-1" d="m286.78,207.39c-2.01,1.17-3.6,3.7-4.62-.37-.39-1.53-1.76-.78-2.83-.53-.89.2-1.68-.04-1.57-1.16.09-.89.76-1.47,1.66-1.28,2.5.52,4.92,1.29,7.35,3.34Z"/><path class="cls-1" d="m350.05,449.59c3.85-2.71,8.23-4.61,11.71-7.86-.01,0-.12-.1-.13-.1.38.67,1.14,1.59.42,2.14-3.6,2.78-6.81,6.5-12.1,5.76-.01,0,.1.06.1.06Z"/><path class="cls-1" d="m549.56,587.68c-.13,1.78-1.32,2.34-2.44,2.97-1.46.83-3.01,1.11-4.61.6-.47-.15-.6-.78-.38-1.26.75-1.6,2.41-1.41,3.75-1.76,1.17-.31,2.35-.89,3.67-.54Z"/><path class="cls-1" d="m520.85,237.48c-.48.89-1.2,1.6-2.26,1.22-.49-.17-.85-.88-1.14-1.41-.72-1.3-3.9-1.57-2.68-3.1,1.23-1.55,3.29.25,4.69,1.48.58.51,1.4.81,1.39,1.81Z"/><path class="cls-1" d="m252.54,369.52c3.56-.89,7.03-2.21,10.99-2.55-1.07,2.34-2.21,3.66-4.84,3.14-2.02-.4-4.2.17-6.23-.66,0,0,.08.07.08.07Z"/><path class="cls-1" d="m490.41,301.9c-3.27,2.73-5.91.02-8.99-.81,2.66-2.11,3.93-1.95,8.9.91.01-.01.09-.1.09-.1Z"/><path class="cls-1" d="m423.13,527.45c.44,4.52-.06,4.86-6.53,4.34,1.59-2.58,5.13-1.87,6.63-4.24-.01-.01-.1-.1-.1-.1Z"/><path class="cls-1" d="m594.33,127.89c1.7,6.89,4.39,13.42,7.36,19.82,1.71,3.67,1.23,7.91,3.34,11.44.31.52.25,1.36-.39,1.7-.35.19-.95.05-1.38-.1-1.54-.52-2.33-1.81-2.63-3.25-.96-4.6-3.04-8.82-4.4-13.27-.97-3.21-1.48-6.58-2.2-9.87-.56-2.62-1.82-5.09-2.08-7.76,1.64-.5,1.65,1.05,2.47,1.41,0,0-.1-.12-.1-.12Z"/><path class="cls-1" d="m596.52,155.36c.01,2.34-.59,2.74-2.59,1.87-4.09-1.79-5.21-4.44-3.48-8.84.31-.78.62-2.13.48-2.19-3.32-1.43.28-4.87-1.99-6.64-.78-.61-.16-1.54.55-1.99.99-.61,1.46.27,1.9.9.37.52.71,1.1.89,1.71,1.36,4.46,2.68,8.93,3.99,13.41.18.61.18,1.28.24,1.76Z"/><path class="cls-1" d="m545.98,208.41c-2.38,2.73.68,3.46.91,4.97.06.37,1.09.66.59,1.44-.38.58-1,.76-1.68.71-2.33-.19-3.61-1.82-4.73-3.59-.65-1.03.11-1.84.66-2.59.83-1.13,2.03-1.55,3.4-1.33.5.08.81.44.84.39Z"/></svg>